<svg width="301" height="53" viewBox="0 0 301 53" fill="none" xmlns="http://www.w3.org/2000/svg">
<path d="M102.15 33.1701C100.53 33.1701 99.3902 33.0801 98.6202 32.9601C97.8502 32.8401 97.4702 32.6601 97.4702 32.4501L98.8702 29.3901C99.4202 29.4801 100.74 29.5601 102.91 29.6501C105.08 29.7401 108.01 29.7801 111.79 29.7801H112.47C113.49 29.7801 114.21 29.6101 114.64 29.2301C115.07 28.8501 115.28 28.2501 115.28 27.3601V26.6401C115.28 25.8301 115.11 25.2401 114.77 24.9001C114.43 24.5601 113.66 24.3901 112.47 24.3901H104.31C101.93 24.3901 100.19 23.9601 99.1202 23.0701C98.0502 22.1801 97.5002 20.7301 97.5002 18.7301V18.1801C97.5002 17.1601 97.7102 16.1801 98.1002 15.3301C98.4902 14.4801 99.1602 13.7601 100.1 13.2501C101.04 12.7401 102.35 12.4401 103.97 12.4401H113.58C115.2 12.4401 116.47 12.5301 117.45 12.7001C118.43 12.8701 118.94 13.0401 118.94 13.2101L118.22 16.1901C117.62 16.1001 116.22 16.0601 114.05 15.9801C111.88 15.8901 108.99 15.8501 105.34 15.8501L104.96 15.8101C103.9 15.8101 103.13 16.0201 102.79 16.4501C102.41 16.8801 102.19 17.4301 102.19 18.1101V18.7101C102.19 19.4801 102.4 20.0701 102.83 20.4501C103.26 20.8301 103.98 21.0501 105 21.0501H112.82C114.31 21.0501 115.63 21.2201 116.65 21.5201C117.71 21.8201 118.52 22.3701 119.07 23.1801C119.62 23.9901 119.92 25.1801 119.92 26.7501V27.3001C119.92 29.0401 119.45 30.4901 118.56 31.5501C117.67 32.6101 116.09 33.1701 113.84 33.1701H102.15Z" fill="#EFEFEF"/>
<path d="M128.46 33.17C126.89 33.17 125.7 32.87 124.93 32.23C124.16 31.59 123.78 30.57 123.78 29.13V21.9C123.78 21.56 123.82 21.13 123.87 20.62C123.92 20.11 124.08 19.6 124.38 19.13C124.64 18.62 125.1 18.24 125.74 17.9C126.38 17.56 127.27 17.39 128.42 17.39H138.16C139.35 17.39 140.24 17.56 140.88 17.9C141.52 18.24 141.99 18.62 142.24 19.13C142.49 19.64 142.67 20.11 142.75 20.62C142.79 21.13 142.84 21.56 142.84 21.9V28.66C142.84 29.09 142.8 29.55 142.75 30.06C142.71 30.57 142.54 31.08 142.24 31.55C141.94 32.02 141.52 32.4 140.88 32.7C140.24 33 139.35 33.17 138.2 33.17H128.46ZM129.82 30.15H136.88C138.03 30.15 138.62 29.68 138.62 28.75V21.82C138.62 20.88 138.02 20.42 136.88 20.42H129.82C128.67 20.42 128.12 20.89 128.12 21.82V28.75C128.12 29.69 128.67 30.15 129.82 30.15Z" fill="#EFEFEF"/>
<path d="M147.13 33.1701V13.6201L146.79 10.8101H151.47V33.1701H147.13Z" fill="#EFEFEF"/>
<path d="M160.18 33.17C158.39 33.17 157.12 32.74 156.31 31.94C155.5 31.09 155.12 29.94 155.12 28.5C155.12 26.97 155.55 25.78 156.35 24.97C157.2 24.16 158.48 23.74 160.18 23.74H161.97C163.71 23.74 165.33 23.78 166.73 23.87C168.13 23.96 169.32 24.04 170.22 24.17V21.83C170.22 21.62 170.18 21.4 170.13 21.19C170.08 20.98 169.96 20.76 169.7 20.64C169.44 20.52 169.06 20.43 168.51 20.43H166.81C164.26 20.43 162.09 20.47 160.39 20.56C158.69 20.65 157.5 20.73 156.9 20.77L156.52 18.09C156.52 17.75 157.41 17.58 159.2 17.49C160.99 17.4 163.96 17.4 168.17 17.4H169.96C171.15 17.4 172.04 17.57 172.68 17.91C173.32 18.25 173.79 18.63 174.04 19.14C174.29 19.65 174.47 20.12 174.55 20.63C174.59 21.14 174.64 21.57 174.64 21.91V33.22H171.75L170.39 32.5C169.41 32.67 168.22 32.84 166.82 32.97C165.42 33.14 163.84 33.18 162.06 33.18H160.19L160.18 33.17ZM161.11 30.15H169.19C169.7 30.15 170 30.11 170.13 30.02C170.22 29.93 170.26 29.64 170.26 29.13V26.41H161.12C160.48 26.41 160.06 26.58 159.8 26.88C159.54 27.18 159.42 27.69 159.42 28.33C159.42 28.97 159.55 29.48 159.85 29.73C160.15 30.03 160.57 30.16 161.13 30.16L161.11 30.15Z" fill="#EFEFEF"/>
<path d="M178.63 33.17V17.4H181.52L182.88 18.1201C183.48 17.7801 184.16 17.52 184.84 17.35C185.56 17.18 186.46 17.05 187.52 17.05C189.22 17.05 190.62 17.22 191.69 17.6C192.75 17.98 193.48 18.2401 193.82 18.4501L192.59 21.51C192.29 21.38 191.82 21.17 191.19 20.96C190.56 20.75 189.79 20.53 188.89 20.32C188.04 20.15 187.06 20.0201 186.04 20.0201H185.66C184.51 20.0201 183.79 20.2301 183.45 20.7001C183.11 21.1701 182.94 21.89 182.9 22.91V33.16H178.65L178.63 33.17Z" fill="#EFEFEF"/>
<path d="M197.33 33.1701V15.2701L196.99 12.4601H202.09L214.08 25.0001L215.44 26.9101H215.82V12.4601H220.5V33.2101H216.04L203.75 20.4601L202.39 18.8001H202.05V33.2101H197.33V33.1701Z" fill="#EFEFEF"/>
<path d="M229.73 33.17C228.54 33.17 227.65 33 227.01 32.7C226.37 32.4 225.9 32.02 225.65 31.55C225.39 31.08 225.22 30.57 225.14 30.06C225.1 29.55 225.05 29.08 225.05 28.66V21.9C225.05 21.56 225.09 21.13 225.14 20.62C225.18 20.11 225.35 19.6 225.65 19.13C225.91 18.62 226.37 18.24 227.01 17.9C227.65 17.56 228.54 17.39 229.69 17.39H237.26C238.83 17.39 240.02 17.52 240.92 17.82C241.82 18.12 242.41 18.59 242.79 19.27C243.17 19.91 243.34 20.8 243.34 21.91V27.14H237.18C235.05 27.14 233.35 27.1 231.99 27.01C230.67 26.92 229.78 26.84 229.31 26.84V28.75C229.27 29.69 229.86 30.15 231.01 30.15H232.8C234.08 30.15 235.31 30.15 236.54 30.11C237.73 30.07 238.88 30.02 239.86 29.98C240.88 29.94 241.69 29.85 242.28 29.81L243.68 32.11C243.68 32.83 241.34 33.22 236.71 33.22H229.74V33.18L229.73 33.17ZM229.39 24.07H239.08V21.82C239.08 21.35 239.04 21.01 238.91 20.84C238.82 20.67 238.48 20.54 237.97 20.5C237.46 20.46 236.57 20.41 235.33 20.41H231.08C229.93 20.41 229.38 20.88 229.38 21.81V24.06L229.39 24.07Z" fill="#EFEFEF"/>
<path d="M253.45 33.1701C251.66 33.1701 250.43 32.7901 249.79 32.0201C249.15 31.2501 248.81 30.1501 248.81 28.6201V20.4201H245.92V17.4001H247.41C247.88 17.4001 248.18 17.3101 248.39 17.1901C248.6 17.0701 248.73 16.7601 248.82 16.3401L249.54 12.5601H253.15V17.4101H260.5V20.4301H253.1V28.7201C253.1 29.3201 253.23 29.7001 253.53 29.8701C253.83 30.0401 254.25 30.1701 254.81 30.1701H259.78L260.12 32.8501C259.61 32.9401 258.89 32.9801 257.87 33.0601C256.85 33.1501 255.74 33.1901 254.55 33.1901H253.44L253.45 33.1701Z" fill="#EFEFEF"/>
<path d="M267.26 33.1701C265.69 33.1701 264.58 33.0801 263.9 32.9101C263.26 32.7401 262.92 32.5701 262.92 32.4001L263.98 29.7601C264.66 29.8501 265.94 29.8901 267.72 29.9701C269.55 30.0601 271.8 30.1001 274.48 30.1001H276.27C276.87 30.1001 277.25 29.9301 277.38 29.6301C277.55 29.3301 277.59 28.8601 277.59 28.3501C277.59 27.8001 277.5 27.3701 277.33 27.0301C277.16 26.6901 276.78 26.5201 276.27 26.5201H267.56C265.9 26.5201 264.71 26.2201 263.99 25.5801C263.27 24.9401 262.88 24.0101 262.88 22.7701V21.3701C262.88 21.0301 262.92 20.6501 262.97 20.2201C263.06 19.7501 263.23 19.3301 263.48 18.8601C263.78 18.3901 264.2 18.0501 264.84 17.7501C265.48 17.4501 266.37 17.3201 267.48 17.3201H277.22C278.62 17.3201 279.64 17.4101 280.24 17.5801C280.84 17.7501 281.13 17.9201 281.13 18.0901L280.79 20.7301C280.11 20.6401 278.83 20.6001 277.01 20.5201C275.18 20.4301 272.93 20.3901 270.25 20.3901H268.46C267.86 20.3901 267.48 20.5601 267.35 20.8601C267.18 21.1601 267.14 21.5401 267.14 21.9701C267.14 22.4401 267.23 22.7801 267.35 23.0801C267.52 23.3801 267.86 23.5101 268.46 23.5101H277.13C278.75 23.5101 279.89 23.8501 280.66 24.4901C281.43 25.1301 281.81 25.9801 281.81 27.0001V29.0801C281.81 29.5101 281.77 29.9301 281.72 30.4401C281.68 30.9101 281.51 31.3301 281.21 31.7601C280.91 32.1901 280.49 32.5301 279.85 32.7801C279.21 33.0301 278.32 33.1601 277.17 33.1601H267.26V33.1701Z" fill="#EFEFEF"/>
<path d="M97.6901 45.8399V39.3399L97.5601 38.3199H103.21C103.76 38.3199 104.19 38.4099 104.49 38.5299C104.79 38.6499 105.04 38.8699 105.17 39.0799C105.34 39.3399 105.43 39.5499 105.47 39.8499C105.51 40.1099 105.56 40.3599 105.56 40.6199V41.3899C105.56 41.5999 105.52 41.8199 105.47 42.0699C105.43 42.3299 105.3 42.5399 105.13 42.7899C104.96 42.9999 104.75 43.2199 104.41 43.3399C104.11 43.5099 103.69 43.5499 103.22 43.5499H101.9C101.35 43.5499 100.88 43.5499 100.41 43.5099C99.9401 43.4699 99.6001 43.4699 99.3501 43.4199V45.8399H97.6901ZM99.3901 42.2699H102.88C103.26 42.2699 103.52 42.1799 103.69 41.9699C103.82 41.7999 103.9 41.5399 103.9 41.2899V40.4799C103.9 40.2199 103.81 39.9699 103.69 39.7999C103.57 39.6299 103.26 39.4999 102.92 39.4999H99.4301V42.2599H99.3901V42.2699Z" fill="#6A6F73"/>
<path d="M116.39 45.9701C116.05 45.9701 115.71 45.9301 115.37 45.8001C115.03 45.6701 114.65 45.4201 114.26 44.9901L113.32 44.0501C112.94 43.6701 112.51 43.3701 112.09 43.2001C111.62 43.0301 111.07 42.9401 110.39 42.9401H110.01V45.7901H108.31V39.3301L108.18 38.3101H113.83C114.38 38.3101 114.81 38.4001 115.11 38.5201C115.41 38.6401 115.66 38.8601 115.79 39.0701C115.96 39.3301 116.05 39.5401 116.09 39.8401C116.13 40.1001 116.18 40.3501 116.18 40.6101V40.8701C116.18 41.0401 116.14 41.2501 116.09 41.5101C116.04 41.7701 115.92 41.9801 115.79 42.1901C115.66 42.4001 115.45 42.6201 115.15 42.7401C114.89 42.9101 114.51 43.0001 114.09 43.0001C114.22 43.0401 114.35 43.1701 114.52 43.2601C114.69 43.3901 114.86 43.5201 115.03 43.6401C115.2 43.7701 115.37 43.9401 115.54 44.0201C115.71 44.1001 115.8 44.2301 115.88 44.2801C116.18 44.4501 116.48 44.5801 116.69 44.6601C116.95 44.7501 117.12 44.7901 117.29 44.7901H117.55L117.29 45.8101C117.2 45.8501 117.08 45.8501 116.91 45.9001C116.87 45.9901 116.65 45.9901 116.4 45.9901L116.39 45.9701ZM111.97 41.8401H112.82C113.08 41.8401 113.29 41.8001 113.5 41.8001C113.88 41.7601 114.14 41.6701 114.31 41.5001C114.48 41.3301 114.52 41.1201 114.52 40.8601V40.5601C114.52 40.3001 114.43 40.0501 114.31 39.8801C114.19 39.7101 113.88 39.5801 113.54 39.5801H110.05V41.7901C110.43 41.8301 110.77 41.8301 111.07 41.8301C111.37 41.7901 111.67 41.8301 111.96 41.8301L111.97 41.8401Z" fill="#6A6F73"/>
<path d="M121.87 45.84C121.27 45.84 120.81 45.75 120.47 45.58C120.13 45.41 119.87 45.15 119.75 44.81C119.62 44.47 119.54 44.04 119.54 43.53V40.55C119.54 40.04 119.63 39.66 119.75 39.32C119.87 38.98 120.13 38.72 120.47 38.55C120.81 38.38 121.28 38.29 121.87 38.29H125.61C126.21 38.29 126.67 38.38 127.01 38.55C127.35 38.72 127.61 38.98 127.73 39.32C127.85 39.66 127.94 40.09 127.94 40.55V43.53C127.94 44.3 127.77 44.85 127.43 45.23C127.09 45.61 126.49 45.83 125.6 45.83H121.86L121.87 45.84ZM122.26 44.61H125.28C125.58 44.61 125.83 44.52 126 44.35C126.17 44.18 126.26 43.97 126.26 43.67V40.4C126.26 40.14 126.17 39.93 126 39.76C125.83 39.59 125.57 39.5 125.28 39.5H122.26C121.96 39.5 121.71 39.59 121.54 39.76C121.37 39.93 121.24 40.14 121.24 40.4V43.67C121.24 43.97 121.33 44.18 121.5 44.35C121.71 44.52 121.97 44.61 122.27 44.61H122.26Z" fill="#6A6F73"/>
<path d="M133.31 45.8399V39.5499H129.99V38.3199H138.32V39.5499H134.96V45.8399H133.3H133.31Z" fill="#6A6F73"/>
<path d="M140.45 45.8399V38.3199H148.4V39.5499H142.15V41.3399H146.95V42.6199H142.15V44.6599H148.48L148.99 45.7699C148.99 45.7699 148.86 45.8599 148.65 45.8599C148.44 45.8999 148.01 45.8999 147.46 45.8999H140.45V45.8599V45.8399Z" fill="#6A6F73"/>
<path d="M153.33 45.84C152.73 45.84 152.27 45.75 151.93 45.58C151.59 45.41 151.33 45.15 151.21 44.81C151.08 44.47 151 44.04 151 43.53V40.68C151 39.87 151.17 39.28 151.55 38.85C151.93 38.47 152.53 38.25 153.34 38.25H157.21C157.81 38.25 158.23 38.29 158.57 38.34C158.91 38.39 159.04 38.47 159.04 38.55L158.78 39.61C158.65 39.57 158.23 39.57 157.5 39.52C156.77 39.47 155.76 39.48 154.4 39.48H153.76C153.08 39.48 152.74 39.78 152.74 40.37V43.64C152.74 43.94 152.83 44.15 152.95 44.32C153.12 44.49 153.38 44.58 153.76 44.58H154.27C155.67 44.58 156.78 44.58 157.59 44.54C158.36 44.5 158.87 44.5 159.04 44.45L159.55 45.3C159.55 45.3 159.46 45.43 159.34 45.51C159.22 45.59 158.96 45.68 158.57 45.72C158.19 45.81 157.63 45.81 156.95 45.81H153.34L153.33 45.84Z" fill="#6A6F73"/>
<path d="M164.22 45.8399V39.5499H160.86V38.3199H169.23V39.5499H165.87V45.8399H164.21H164.22Z" fill="#6A6F73"/>
<path d="M177.86 45.8399V42.7399L174.12 38.3199H176.16L178.07 40.6999L178.67 41.5099H178.8L179.4 40.6999L181.31 38.3199H183.35L182.84 39.0899L179.57 42.7899V45.8499H177.87L177.86 45.8399Z" fill="#6A6F73"/>
<path d="M187.17 45.84C186.57 45.84 186.11 45.75 185.77 45.58C185.43 45.41 185.17 45.15 185.05 44.81C184.92 44.47 184.84 44.04 184.84 43.53V40.55C184.84 40.04 184.93 39.66 185.05 39.32C185.17 38.98 185.43 38.72 185.77 38.55C186.11 38.38 186.58 38.29 187.17 38.29H190.91C191.51 38.29 191.97 38.38 192.31 38.55C192.65 38.72 192.91 38.98 193.03 39.32C193.15 39.66 193.24 40.09 193.24 40.55V43.53C193.24 44.3 193.07 44.85 192.73 45.23C192.39 45.61 191.79 45.83 190.9 45.83H187.16L187.17 45.84ZM187.55 44.61H190.57C190.87 44.61 191.12 44.52 191.29 44.35C191.46 44.18 191.55 43.97 191.55 43.67V40.4C191.55 40.14 191.46 39.93 191.29 39.76C191.12 39.59 190.86 39.5 190.57 39.5H187.55C187.25 39.5 187 39.59 186.83 39.76C186.66 39.93 186.53 40.14 186.53 40.4V43.67C186.53 43.97 186.62 44.18 186.79 44.35C187 44.52 187.26 44.61 187.56 44.61H187.55Z" fill="#6A6F73"/>
<path d="M197.93 45.9701C197.16 45.9701 196.61 45.7601 196.31 45.3301C196.01 44.9001 195.84 44.3501 195.84 43.6701V38.3101H197.54V43.7101C197.54 44.0901 197.63 44.3901 197.84 44.5201C198.05 44.6501 198.27 44.7301 198.56 44.7301H201.28C201.54 44.7301 201.79 44.6401 202 44.5201C202.21 44.4001 202.3 44.0901 202.3 43.7101V38.3101H204V43.6701C204 44.1401 203.91 44.5201 203.79 44.8601C203.67 45.2001 203.45 45.4601 203.15 45.6701C202.85 45.8801 202.43 45.9701 201.92 45.9701H197.92H197.93Z" fill="#6A6F73"/>
<path d="M214.85 45.9701C214.51 45.9701 214.17 45.9301 213.83 45.8001C213.49 45.6701 213.11 45.4201 212.72 44.9901L211.78 44.0501C211.4 43.6701 210.97 43.3701 210.55 43.2001C210.08 43.0301 209.53 42.9401 208.85 42.9401H208.47V45.7901H206.77V39.3301L206.64 38.3101H212.29C212.84 38.3101 213.27 38.4001 213.57 38.5201C213.87 38.6401 214.12 38.8601 214.25 39.0701C214.42 39.3301 214.51 39.5401 214.55 39.8401C214.59 40.1001 214.64 40.3501 214.64 40.6101V40.8701C214.64 41.0401 214.6 41.2501 214.55 41.5101C214.5 41.7701 214.38 41.9801 214.25 42.1901C214.12 42.4001 213.91 42.6201 213.61 42.7401C213.35 42.9101 212.97 43.0001 212.55 43.0001C212.68 43.0401 212.81 43.1701 212.98 43.2601C213.15 43.3901 213.32 43.5201 213.49 43.6401C213.66 43.7701 213.83 43.9401 214 44.0201C214.17 44.1001 214.26 44.2301 214.34 44.2801C214.64 44.4501 214.94 44.5801 215.15 44.6601C215.41 44.7501 215.58 44.7901 215.75 44.7901H216.01L215.75 45.8101C215.66 45.8501 215.54 45.8501 215.37 45.9001C215.33 45.9901 215.11 45.9901 214.86 45.9901L214.85 45.9701ZM210.43 41.8401H211.28C211.54 41.8401 211.75 41.8001 211.96 41.8001C212.34 41.7601 212.6 41.6701 212.77 41.5001C212.94 41.3301 212.98 41.1201 212.98 40.8601V40.5601C212.98 40.3001 212.89 40.0501 212.77 39.8801C212.65 39.7101 212.34 39.5801 212 39.5801H208.51V41.7901C208.89 41.8301 209.23 41.8301 209.53 41.8301C209.87 41.7901 210.13 41.8301 210.42 41.8301L210.43 41.8401Z" fill="#6A6F73"/>
<path d="M221.95 45.8399V39.3399L221.82 38.3199H227.47C228.02 38.3199 228.45 38.4099 228.75 38.5299C229.05 38.6499 229.3 38.8699 229.43 39.0799C229.6 39.3399 229.69 39.5499 229.73 39.8499C229.77 40.1099 229.82 40.3599 229.82 40.6199V41.3899C229.82 41.5999 229.78 41.8199 229.73 42.0699C229.69 42.3299 229.56 42.5399 229.39 42.7899C229.22 42.9999 229.01 43.2199 228.67 43.3399C228.37 43.5099 227.95 43.5499 227.48 43.5499H226.16C225.61 43.5499 225.14 43.5499 224.67 43.5099C224.2 43.4699 223.86 43.4699 223.61 43.4199V45.8399H221.95ZM223.6 42.2699H227.09C227.47 42.2699 227.73 42.1799 227.9 41.9699C228.03 41.7999 228.11 41.5399 228.11 41.2899V40.4799C228.11 40.2199 228.02 39.9699 227.9 39.7999C227.78 39.6299 227.47 39.4999 227.13 39.4999H223.64V42.2599H223.6V42.2699Z" fill="#6A6F73"/>
<path d="M230.66 45.8399L234.4 38.3199H236.91L240.65 45.8399H238.69L237.92 44.2199H233.33L232.48 45.8399H230.65H230.66ZM233.81 42.9499H237.47L235.73 39.4599H235.6L233.81 42.9499Z" fill="#6A6F73"/>
<path d="M242.69 45.8399V39.3399L242.56 38.3199H244.39L248.73 42.8699L249.24 43.5499H249.37V38.3199H251.07V45.8399H249.45L244.99 41.2099L244.48 40.6099H244.35V45.8399H242.69Z" fill="#6A6F73"/>
<path d="M253.96 45.8399V38.3199H261.91V39.5499H255.66V41.3399H260.46V42.6199H255.66V44.6599H261.99L262.5 45.7699C262.5 45.7699 262.37 45.8599 262.16 45.8599C261.95 45.8999 261.52 45.8999 260.97 45.8999H253.96V45.8599V45.8399Z" fill="#6A6F73"/>
<path d="M264.63 45.8399L264.76 44.8199V38.3199H266.46V44.6099H271.77L272.28 45.7199C272.28 45.7199 272.15 45.8099 271.94 45.8099C271.73 45.8099 271.3 45.8499 270.75 45.8499H264.63V45.8399Z" fill="#6A6F73"/>
<path d="M275.72 45.84C275.12 45.84 274.7 45.8 274.44 45.75C274.18 45.7 274.01 45.62 274.01 45.58L274.52 44.47C274.73 44.51 275.2 44.56 275.97 44.56C276.74 44.6 277.84 44.6 279.2 44.6H279.46C279.84 44.6 280.1 44.51 280.23 44.39C280.4 44.26 280.44 44.05 280.44 43.71V43.45C280.44 43.15 280.4 42.94 280.27 42.81C280.14 42.68 279.89 42.6 279.46 42.6H276.48C275.63 42.6 274.99 42.43 274.61 42.13C274.23 41.79 274.01 41.28 274.01 40.56V40.35C274.01 39.97 274.1 39.63 274.22 39.33C274.34 39.03 274.6 38.78 274.94 38.56C275.28 38.34 275.75 38.26 276.34 38.26H279.83C280.43 38.26 280.89 38.3 281.23 38.35C281.57 38.4 281.78 38.48 281.78 38.56L281.52 39.62C281.31 39.58 280.8 39.58 279.99 39.53C279.22 39.49 278.16 39.49 276.84 39.49H276.71C276.33 39.49 276.07 39.58 275.9 39.75C275.77 39.92 275.69 40.09 275.69 40.35V40.56C275.69 40.86 275.78 41.07 275.95 41.2C276.12 41.33 276.38 41.41 276.76 41.41H279.61C280.16 41.41 280.63 41.45 281.01 41.58C281.39 41.71 281.69 41.88 281.9 42.18C282.11 42.48 282.2 42.9 282.2 43.5V43.71C282.2 44.35 282.03 44.86 281.69 45.24C281.35 45.62 280.8 45.84 279.99 45.84H275.7H275.72Z" fill="#6A6F73"/>
<path d="M31.5797 19.23L23.7197 14.85L32.3497 17.36C33.3297 17.66 34.3897 17.27 34.9897 16.42C34.9897 16.38 35.0297 16.38 35.0297 16.33C35.6697 15.44 35.6697 14.29 34.9897 13.44L33.3697 11.4L35.3697 13.02C36.2197 13.7 37.4097 13.74 38.2997 13.15L38.3897 13.06C39.2397 12.46 39.6197 11.44 39.3697 10.42L36.9897 1.79004L41.3297 9.65004C41.8397 10.54 42.8597 11.05 43.8797 10.84H44.0097C45.0697 10.67 45.8797 9.78004 46.0097 8.71004L46.3097 6.16004L46.6097 8.75004C46.7397 9.81004 47.5497 10.66 48.6097 10.88H48.6997C49.7197 11.05 50.7397 10.58 51.2497 9.69004L55.6697 1.87004L53.1597 10.5C52.8597 11.48 53.2497 12.54 54.0997 13.14C54.1397 13.14 54.1397 13.18 54.1897 13.18C55.0797 13.82 56.2697 13.78 57.0797 13.14L59.1197 11.52L57.4997 13.52C56.8197 14.37 56.7797 15.56 57.3697 16.41C57.3697 16.45 57.4097 16.5 57.4097 16.5C58.0097 17.35 59.0697 17.73 60.0497 17.48L68.7197 15.06L60.8097 19.4C59.9197 19.91 59.4097 20.93 59.6197 21.91V22.04C59.7897 23.1 60.6797 23.91 61.7497 24.04L64.2997 24.34L61.7097 24.64C60.9897 24.73 60.3897 25.11 60.0097 25.66C54.6997 24.72 49.3797 24.26 43.8997 24.34C43.1797 24.38 42.7897 24.38 42.0297 24.43C38.7997 24.69 35.6097 25.11 32.4597 25.66C32.0797 24.98 31.3997 24.55 30.6297 24.43L28.0797 24.13L30.6697 23.83C31.7297 23.7 32.5797 22.89 32.7997 21.83V21.74C32.9697 20.76 32.4997 19.74 31.6097 19.23" fill="#EFEFEF"/>
<path d="M63.5498 28.0301C62.0198 28.1201 60.9598 28.1601 59.8098 28.2901C59.1298 28.3801 58.3598 28.4601 57.4698 28.5901C57.0898 28.6301 56.4098 28.5501 55.9398 28.4201C53.0498 27.4401 50.0698 26.6801 47.0998 26.0801C46.9298 26.0401 46.7998 25.9901 46.7598 25.9501C51.0998 26.0801 55.2998 26.5001 59.5598 27.2701C60.8798 27.4401 62.1998 27.7401 63.5598 28.0401" fill="#6A6F73"/>
<path d="M42.46 26.24C39.78 27.13 37.23 28.07 34.64 29.13C34.21 29.3 33.58 29.47 33.15 29.43C32.43 29.39 31.7 29.39 30.94 29.39C29.07 29.39 27.2 29.48 25.33 29.6C24.95 29.64 24.95 29.47 25.37 29.26C25.88 28.96 26.14 28.83 26.6 28.58C28.64 28.07 30.68 27.6 32.72 27.22C35.99 26.62 39.27 26.2 42.67 25.99C42.76 26.08 42.71 26.16 42.46 26.25" fill="#6A6F73"/>
<path d="M54.4496 28.6201C51.5596 27.6801 48.5796 26.9601 45.6096 26.4501C45.1796 26.3601 44.4996 26.4101 44.1196 26.4901C41.4396 27.3001 38.8496 28.1501 36.2996 29.2101C35.8696 29.3801 35.9196 29.5501 36.3396 29.5901C39.3596 29.9301 42.2096 30.3101 45.1796 30.9101C45.6496 31.0001 46.3696 31.0001 46.7996 30.8701C49.3496 30.0601 52.0296 29.4201 54.6596 29.0001C54.9996 28.9101 54.9196 28.7401 54.4496 28.6201Z" fill="#6A6F73"/>
<path d="M43.6497 31.94C41.3497 32.79 39.0997 33.73 36.9297 34.83C36.3297 35.13 35.7397 35.43 35.1897 35.77C34.9797 35.86 34.7197 35.98 34.4697 36.03C34.2997 36.07 34.1297 36.12 33.9597 36.12H33.5297C30.6397 35.91 27.8297 35.82 24.9397 35.91C24.5097 35.91 24.5097 35.7 24.9397 35.4C27.4097 33.74 29.9997 32.25 32.6297 30.94C32.7997 30.85 33.0097 30.77 33.1797 30.68C33.6097 30.47 34.2897 30.34 34.7097 30.38C37.7297 30.64 40.5797 31.02 43.5097 31.53C44.0197 31.62 44.0597 31.79 43.6397 31.96" fill="#6A6F73"/>
<path d="M77.2397 35.17C74.5197 34.87 73.1597 34.79 70.5197 34.79C70.1797 34.79 69.4597 34.53 68.9897 34.24C68.3897 33.86 67.7597 33.52 67.1197 33.22C64.6497 31.86 62.0597 30.71 59.4697 29.61C58.9997 29.44 58.9197 29.23 59.2997 29.18C59.7297 29.14 60.1497 29.09 60.4897 29.05C62.5297 28.84 63.8897 28.75 66.3097 28.75C66.6497 28.75 67.2897 28.92 67.7597 29.18C70.9497 30.84 73.9697 32.62 76.9897 34.62C77.4597 34.96 77.5897 35.22 77.2497 35.17" fill="#6A6F73"/>
<path d="M89.6897 46.05C86.9297 42.86 83.8197 39.93 80.5497 37.29C80.0797 36.91 79.4397 36.57 79.0997 36.52C76.3797 36.18 75.0597 36.09 72.4297 36.01C72.0897 36.01 72.1697 36.27 72.6897 36.61C76.1297 38.99 79.4097 41.63 82.3397 44.6C82.8097 45.07 83.4897 45.54 83.8297 45.58C86.2497 45.96 87.4897 46.18 89.9897 46.86C90.2897 46.95 90.1597 46.6 89.6897 46.05Z" fill="#6A6F73"/>
<path d="M67.7998 34.87C65.2498 34.96 62.6598 35.25 60.1498 35.68C59.7198 35.77 58.9998 35.59 58.4898 35.38C58.0198 35.17 57.5998 34.95 57.1298 34.78C54.4098 33.59 51.5998 32.61 48.7598 31.8C48.2898 31.67 48.2098 31.46 48.6298 31.33C51.1798 30.56 53.8598 29.97 56.4498 29.59C56.8298 29.55 57.5098 29.63 58.0198 29.8C59.8898 30.52 61.6798 31.29 63.4598 32.14C64.8598 32.82 66.2198 33.54 67.5398 34.31C68.0498 34.61 68.1398 34.86 67.7998 34.86" fill="#6A6F73"/>
<path d="M71.2897 36.61C70.7797 36.27 70.0997 36.01 69.7197 36.06C67.2097 36.1 64.5797 36.32 62.1097 36.7C61.6797 36.74 61.7697 37.04 62.2797 37.3C65.8497 39.3 69.2497 41.59 72.3597 44.23C72.8697 44.66 73.5897 45.04 73.9797 45C76.3597 44.91 78.8697 45 81.2497 45.26C81.5897 45.3 81.4597 44.92 80.9897 44.45C78.0597 41.56 74.7797 38.97 71.2997 36.63" fill="#6A6F73"/>
<path d="M31.58 30.5801C30.77 30.9601 30.01 31.3901 29.2 31.8101C27.2 32.9201 25.25 34.1501 23.33 35.4701C22.9 35.7701 22.22 36.0201 21.84 36.0701C19.37 36.2801 16.82 36.6701 14.4 37.2201C14.06 37.3101 14.06 37.0901 14.49 36.7501C17 34.6701 19.59 32.7501 22.35 31.0501C22.73 30.7901 23.37 30.5801 23.75 30.5401C25.62 30.3301 27.53 30.2401 29.45 30.2001H31.53C31.96 30.2001 31.96 30.3701 31.57 30.5801" fill="#6A6F73"/>
<path d="M57.0001 36.3201C55.5501 36.7001 54.1901 37.0901 52.7901 37.5101C52.0201 37.7201 51.2601 37.9801 50.4901 38.2801C49.8101 38.4901 49.1301 38.7501 48.4501 39.0001C48.0201 39.1701 47.2201 39.1701 46.7101 39.0001C46.6701 39.0001 46.6201 38.9601 46.5801 38.9601C46.1101 38.7901 45.6401 38.6601 45.1801 38.4901C44.2901 38.1901 43.3501 37.9401 42.4601 37.7201C41.4001 37.4601 40.3301 37.2101 39.2701 37.0001C38.5001 36.8701 37.7801 36.7001 37.0201 36.6201C36.5501 36.5301 36.5101 36.2801 36.9801 36.0701C37.4101 35.8601 37.8301 35.6001 38.3001 35.3901C40.6401 34.2401 43.0201 33.2601 45.4801 32.4101C45.9101 32.2801 46.6301 32.2401 47.1001 32.3701C49.8201 33.0901 52.4601 33.9401 55.0501 35.0101C55.6501 35.2701 56.2401 35.5201 56.8401 35.7801C57.3901 35.9501 57.4401 36.2101 57.0101 36.3301" fill="#6A6F73"/>
<path d="M70.9897 45.2001C68.0997 45.5401 65.4597 46.0101 62.6197 46.6501C62.1897 46.7801 61.3897 46.5601 60.8797 46.1801C58.6297 44.6501 56.3697 43.3301 54.0397 42.1001C53.4897 41.8001 52.8897 41.5001 52.3397 41.2501C51.7897 41.0001 51.2297 40.7001 50.6397 40.4401C50.1297 40.2301 50.0397 39.8901 50.5097 39.7201C50.8097 39.6301 51.0597 39.5501 51.3597 39.4201C51.9597 39.2101 52.5497 39.0401 53.1497 38.8201C55.0597 38.2201 57.0197 37.7101 59.0197 37.2001C59.4497 37.1101 60.2097 37.2401 60.7197 37.5401C64.2897 39.4501 67.7297 41.7101 70.8397 44.3401C71.3497 44.7701 71.4397 45.1501 71.0097 45.1901" fill="#6A6F73"/>
<path d="M20.1899 37.8501C20.6199 37.5101 20.6199 37.3001 20.2299 37.3401C17.7599 37.6001 15.2999 38.0201 12.8799 38.6201C12.5399 38.7101 11.8999 39.0901 11.5199 39.4301C8.79987 42.1501 6.28987 44.9101 3.94987 47.9301C3.56987 48.4401 3.51987 48.7401 3.85987 48.6101C6.61987 47.5901 7.97987 47.1601 10.6599 46.5301C11.0399 46.4401 11.6399 46.0201 12.0599 45.5501C14.6499 42.7401 17.2899 40.2401 20.1799 37.8601" fill="#6A6F73"/>
<path d="M31.8301 37.12C28.9401 36.95 26.1801 36.95 23.2901 37.03C22.8601 37.07 22.1801 37.33 21.7601 37.67C18.8301 40.01 16.1501 42.47 13.5601 45.19C13.1301 45.66 13.1301 45.96 13.5201 45.87C16.2401 45.44 18.9201 45.06 21.6401 45.02C22.0701 45.02 22.7901 44.68 23.2101 44.25C25.9701 41.83 28.7801 39.66 31.8401 37.66C32.3101 37.4 32.3101 37.15 31.8401 37.11" fill="#6A6F73"/>
<path d="M45.1 40.44C42.55 41.76 40.08 43.12 37.75 44.73C37.54 44.86 37.32 45.03 37.11 45.2C36.81 45.41 36.47 45.67 36.17 45.88C35.7 46.22 34.94 46.39 34.43 46.31C31.33 45.63 28.18 45.2 24.99 45.12C24.52 45.12 24.52 44.78 24.95 44.4C27.63 41.98 30.56 39.94 33.62 37.98C34.05 37.72 34.81 37.55 35.28 37.6C36.56 37.77 37.87 37.98 39.11 38.28C39.79 38.41 40.47 38.58 41.15 38.75C42.43 39.05 43.7 39.43 44.93 39.81C45.53 39.9 45.57 40.24 45.1 40.45" fill="#6A6F73"/>
<path d="M59.2999 47.67C56.1099 48.78 53.0899 50.22 50.2499 51.96C49.7799 52.26 49.0199 52.22 48.4599 51.92C45.1399 50.01 41.8699 48.56 38.2599 47.29C37.7499 47.12 37.7099 46.74 38.1299 46.4C40.5999 44.61 43.1899 43.04 45.9499 41.68C45.9899 41.64 46.0399 41.64 46.1199 41.59C46.4599 41.42 46.7599 41.25 47.0999 41.12C47.5699 40.91 48.3299 40.91 48.8899 41.12C50.5099 41.84 52.0399 42.57 53.5199 43.37C53.8599 43.54 54.2399 43.75 54.5799 43.92C56.1499 44.77 57.6399 45.71 59.1699 46.68C59.6799 47.11 59.7199 47.53 59.2999 47.66" fill="#6A6F73"/>
<path d="M291.51 11.3L289.99 8.65995H289.16V11.3H288.08V4.69995H290.36C290.87 4.69995 291.3 4.78995 291.65 4.96995C292 5.14995 292.26 5.37995 292.44 5.67995C292.61 5.97995 292.7 6.30995 292.7 6.67995C292.7 7.10995 292.57 7.49995 292.32 7.84995C292.07 8.19995 291.69 8.43995 291.17 8.56995L292.8 11.3H291.51ZM289.17 7.79995H290.37C290.78 7.79995 291.08 7.69995 291.29 7.49995C291.5 7.29995 291.6 7.01995 291.6 6.67995C291.6 6.33995 291.5 6.06995 291.3 5.87995C291.1 5.68995 290.79 5.58995 290.38 5.58995H289.18V7.79995H289.17Z" fill="#EFEFEF"/>
<path d="M290.1 15.37C286.09 15.37 282.83 12.11 282.83 8.09996C282.83 4.08996 286.09 0.829956 290.1 0.829956C294.11 0.829956 297.37 4.08996 297.37 8.09996C297.37 12.11 294.11 15.37 290.1 15.37ZM290.1 2.00996C286.74 2.00996 284.01 4.73996 284.01 8.10996C284.01 11.48 286.74 14.2 290.1 14.2C293.46 14.2 296.19 11.47 296.19 8.10996C296.19 4.74996 293.46 2.00996 290.1 2.00996Z" fill="#EFEFEF"/>
</svg>
