<svg width="146" height="56" viewBox="0 0 146 56" fill="none" xmlns="http://www.w3.org/2000/svg">
<g clip-path="url(#clip0_656_2372)">
<path d="M3.84784 55.9983C3.36352 55.9983 2.89698 55.9709 2.44378 55.9201C1.99057 55.8693 1.55957 55.799 1.15524 55.7091C0.750905 55.6231 0.364345 55.5215 0 55.4081V53.8722L1.12858 53.7628C1.63511 53.9699 2.11498 54.1067 2.56819 54.1732C3.02139 54.2396 3.48793 54.2748 3.97225 54.2748C4.40768 54.2748 4.77647 54.2122 5.08305 54.0872C5.38964 53.9621 5.62513 53.7784 5.79841 53.5361C5.9717 53.2938 6.05612 53.0046 6.05612 52.6763C6.05612 52.3676 5.9717 52.1136 5.79841 51.9221C5.62957 51.7306 5.39852 51.5742 5.10971 51.4492C4.8209 51.3241 4.50543 51.2186 4.16775 51.1326C3.82562 51.0466 3.4746 50.9489 3.11026 50.8473C2.60373 50.691 2.12386 50.4995 1.67065 50.265C1.21744 50.0305 0.857543 49.7179 0.586506 49.3271C0.315469 48.9323 0.182172 48.4204 0.182172 47.7911C0.182172 47.1619 0.359901 46.6265 0.710916 46.1302C1.06193 45.6338 1.55513 45.2391 2.18607 44.9499C2.81701 44.6607 3.55458 44.5161 4.3988 44.5161C4.99863 44.5161 5.62513 44.5943 6.27828 44.7506C6.93144 44.9069 7.50906 45.1219 8.01558 45.4033V46.6461L6.74482 46.6304C6.38048 46.5171 6.00724 46.4233 5.62513 46.3529C5.24301 46.2787 4.83867 46.2435 4.41657 46.2435C3.79452 46.2435 3.3102 46.3686 2.96808 46.6226C2.62595 46.8766 2.4571 47.2088 2.4571 47.6231C2.4571 47.9866 2.60817 48.2679 2.90587 48.4751C3.20801 48.6822 3.58124 48.8503 4.03445 48.9792C4.48766 49.1082 4.94087 49.245 5.40296 49.3896C5.94504 49.5537 6.43824 49.753 6.88256 49.9875C7.32688 50.222 7.68234 50.5269 7.94005 50.902C8.19776 51.2811 8.32661 51.7736 8.32661 52.3832C8.32661 53.075 8.14888 53.6964 7.78898 54.2435C7.42908 54.7907 6.91366 55.2206 6.24718 55.5332C5.57625 55.842 4.77647 55.9983 3.84784 55.9983ZM1.71064 54.2318L0 53.8722V52.5083H0.915305C1.06637 52.5083 1.19078 52.5474 1.27521 52.6255C1.36407 52.7037 1.41739 52.8131 1.44405 52.9577L1.71064 54.2318ZM6.3005 46.2865L8.01114 46.6421V48.0061H7.09583C6.94477 48.0061 6.8248 47.967 6.74482 47.8889C6.6604 47.8107 6.60264 47.7013 6.56709 47.5567L6.3005 46.2826V46.2865Z" fill="#1F2937"/>
<path d="M11.2052 44.6416L10.9741 46.2088L9.96996 46.0212C9.80556 45.9899 9.6767 45.9391 9.59228 45.8649C9.50342 45.7945 9.45898 45.6851 9.45898 45.5405V44.6416H11.2052ZM16.0883 55.9987C15.0041 55.9987 14.0666 55.8033 13.2757 55.4086C12.4804 55.0139 11.8672 54.4706 11.4318 53.7711C10.9963 53.0715 10.7786 52.2742 10.7786 51.3754V44.6416H13.2135V51.3597C13.2135 51.9186 13.3246 52.411 13.5468 52.8331C13.7689 53.2591 14.0977 53.5874 14.5243 53.8258C14.9553 54.0642 15.4751 54.1814 16.0838 54.1814C16.6926 54.1814 17.2302 54.0642 17.6523 53.8336C18.0744 53.603 18.3988 53.2747 18.6209 52.8566C18.8431 52.4384 18.9542 51.942 18.9542 51.3754V44.6416H21.389V51.3754C21.389 52.2977 21.1669 53.1067 20.7181 53.8023C20.2694 54.5019 19.6517 55.0412 18.8564 55.4242C18.0611 55.8072 17.1369 55.9987 16.0794 55.9987H16.0883ZM14.5376 44.6416V45.5405C14.5376 45.6851 14.4887 45.7945 14.3954 45.8649C14.3021 45.9391 14.1777 45.9899 14.0266 46.0212L13.0047 46.2088L12.7914 44.6416H14.5376ZM19.3896 44.6416L19.1585 46.2088L18.1544 46.0212C17.99 45.9899 17.8611 45.9391 17.7767 45.8649C17.6878 45.7945 17.6434 45.6851 17.6434 45.5405V44.6416H19.3896ZM22.722 44.6416V45.5405C22.722 45.6851 22.6776 45.7945 22.5887 45.8649C22.4998 45.9391 22.3754 45.9899 22.211 46.0212L21.2069 46.2088L20.9758 44.6416H22.722Z" fill="#1F2937"/>
<path d="M25.2989 44.6416L25.0679 46.2088L24.0637 46.0212C23.8993 45.9899 23.7749 45.9391 23.686 45.8649C23.5972 45.7945 23.5527 45.6851 23.5527 45.5405V44.6416H25.2989ZM23.5527 55.8776V54.9787C23.5527 54.8341 23.5972 54.7247 23.686 54.6543C23.7749 54.584 23.8993 54.5292 24.0637 54.498L25.0679 54.3104L25.2989 55.8776H23.5527ZM24.859 55.8776V44.6416H26.1476C26.3475 44.6416 26.503 44.6611 26.6141 44.7041C26.7252 44.7471 26.8407 44.837 26.9562 44.9816L33.59 52.4618C33.5678 52.286 33.55 52.1101 33.5367 51.9342C33.5233 51.7584 33.5189 51.5981 33.5189 51.4535V44.6416H35.6694V55.8776H34.4164C34.2298 55.8776 34.0699 55.8502 33.941 55.7994C33.8121 55.7486 33.6833 55.6509 33.5544 55.5063L26.9562 48.073C26.9785 48.2488 26.9962 48.3973 27.0007 48.5224C27.0051 48.6475 27.0096 48.8077 27.0096 49.0031V55.8776H24.859ZM26.6586 55.8776L26.8896 54.3104L27.9115 54.498C28.0626 54.5292 28.187 54.58 28.2803 54.6543C28.3736 54.7286 28.4225 54.8341 28.4225 54.9787V55.8776H26.6586ZM33.8744 44.6416L33.6433 46.2088L32.6391 46.0212C32.4747 45.9899 32.3503 45.9391 32.2615 45.8649C32.1726 45.7945 32.1282 45.6851 32.1282 45.5405V44.6416H33.8744ZM36.9979 44.6416V45.5405C36.9979 45.6851 36.9535 45.7945 36.8646 45.8649C36.7758 45.9391 36.6514 45.9899 36.487 46.0212L35.4828 46.2088L35.2518 44.6416H36.9979Z" fill="#1F2937"/>
<path d="M39.7481 44.6416L39.5171 46.2088L38.5129 46.0212C38.3485 45.9899 38.2241 45.9391 38.1353 45.8649C38.0464 45.7945 38.002 45.6851 38.002 45.5405V44.6416H39.7481ZM38.002 55.8776V54.9787C38.002 54.8341 38.0464 54.7247 38.1353 54.6543C38.2241 54.584 38.3485 54.5292 38.5129 54.498L39.5171 54.3104L39.7481 55.8776H38.002ZM39.3083 55.8776V44.6416H40.5968C40.7967 44.6416 40.9523 44.6611 41.0633 44.7041C41.1744 44.7471 41.2899 44.837 41.4055 44.9816L48.0392 52.4618C48.017 52.286 47.9992 52.1101 47.9859 51.9342C47.9726 51.7584 47.9681 51.5981 47.9681 51.4535V44.6416H50.1186V55.8776H48.8656C48.679 55.8776 48.5191 55.8502 48.3902 55.7994C48.2614 55.7486 48.1325 55.6509 48.0037 55.5063L41.4055 48.073C41.4277 48.2488 41.4455 48.3973 41.4499 48.5224C41.4543 48.6475 41.4588 48.8077 41.4588 49.0031V55.8776H39.3083ZM41.1078 55.8776L41.3388 54.3104L42.3608 54.498C42.5118 54.5292 42.6362 54.58 42.7295 54.6543C42.8229 54.7286 42.8717 54.8341 42.8717 54.9787V55.8776H41.1078ZM48.3236 44.6416L48.0925 46.2088L47.0884 46.0212C46.924 45.9899 46.7995 45.9391 46.7107 45.8649C46.6218 45.7945 46.5774 45.6851 46.5774 45.5405V44.6416H48.3236ZM51.4427 44.6416V45.5405C51.4427 45.6851 51.3983 45.7945 51.3094 45.8649C51.2206 45.9391 51.0961 45.9899 50.9317 46.0212L49.9276 46.2088L49.6965 44.6416H51.4427Z" fill="#1F2937"/>
<path d="M53.9142 44.6416L53.7009 46.2088L52.6789 46.0212C52.5279 45.9899 52.4035 45.9391 52.3102 45.8649C52.2168 45.7945 52.168 45.6851 52.168 45.5405V44.6416H53.9142ZM57.0377 55.8776V51.5317L52.3812 44.6416H54.5318C54.745 44.6416 54.9139 44.6885 55.0427 44.7823C55.1716 44.8761 55.2738 44.9894 55.3404 45.1223L57.6154 48.8624C57.7575 49.0891 57.882 49.3001 57.9842 49.4916C58.0908 49.6831 58.1841 49.8785 58.2685 50.0739C58.3263 49.9098 58.4063 49.7261 58.5084 49.5229C58.6062 49.3197 58.7351 49.1008 58.8861 48.8624L61.1433 45.1223C61.2277 45.009 61.3343 44.8995 61.4676 44.7979C61.6009 44.6963 61.7565 44.6416 61.9342 44.6416H64.1025L59.446 51.5317V55.8776H57.0289H57.0377ZM54.3718 45.5561V44.6416H55.6959V45.5561H54.3718ZM57.0022 44.6416V45.5405C57.0022 45.6851 56.9533 45.7945 56.86 45.8649C56.7667 45.9391 56.6423 45.9899 56.4912 46.0212L55.4693 46.2088L55.256 44.6416H57.0022ZM55.7137 55.8776V54.9787C55.7137 54.8341 55.7581 54.7247 55.847 54.6543C55.9358 54.584 56.0602 54.5292 56.2246 54.498L57.2288 54.3104L57.4599 55.8776H55.7137ZM59.0328 55.8776L59.2638 54.3104L60.268 54.498C60.4324 54.5292 60.5568 54.58 60.6456 54.6543C60.7345 54.7286 60.7789 54.8341 60.7789 54.9787V55.8776H59.0328ZM61.2366 44.6416L61.0055 46.2088L60.0014 46.0212C59.837 45.9899 59.7081 45.9391 59.6237 45.8649C59.5348 45.7945 59.4904 45.6851 59.4904 45.5405V44.6416H61.2366ZM60.6901 45.5561V44.6416H62.2052V45.5561H60.6901ZM64.3246 44.6416V45.5405C64.3246 45.6851 64.2758 45.7945 64.1825 45.8649C64.0891 45.9391 63.9603 45.9899 63.7959 46.0212L62.7917 46.2088L62.5607 44.6416H64.3246Z" fill="#1F2937"/>
<path d="M70.4112 55.9988C69.4337 55.9988 68.5629 55.8542 67.7897 55.565C67.0211 55.2758 66.3679 54.8771 65.8392 54.3691C65.2971 53.8532 64.8839 53.2435 64.5951 52.5361C64.3062 51.8327 64.1641 51.0862 64.1641 50.3007C64.1641 49.4409 64.324 48.6593 64.6484 47.948C64.9727 47.2406 65.4215 46.6309 65.9991 46.1229C66.5856 45.6148 67.2876 45.2201 68.0963 44.9348C68.9094 44.6495 69.7847 44.5088 70.7267 44.5088C71.2555 44.5088 71.762 44.5518 72.2463 44.6339C72.7262 44.7159 73.1794 44.8254 73.6059 44.9582C74.028 45.0911 74.4235 45.2318 74.7878 45.3764V46.756L73.5881 46.8185C73.246 46.6544 72.8239 46.5254 72.3174 46.4394C71.8109 46.3534 71.3221 46.3065 70.8511 46.3065C69.9803 46.3065 69.2293 46.4707 68.6028 46.8029C67.9719 47.1351 67.492 47.5923 67.1632 48.1825C66.8344 48.7726 66.67 49.4643 66.67 50.2616C66.67 51.0159 66.8211 51.692 67.1277 52.286C67.4343 52.8801 67.8875 53.349 68.4873 53.6891C69.0872 54.0291 69.8158 54.201 70.6734 54.201C71.1533 54.201 71.6109 54.1346 72.0419 54.0056C72.4729 53.8766 72.8817 53.6578 73.2682 53.3451C73.326 53.3021 73.3926 53.2709 73.4637 53.2435C73.5348 53.2162 73.6059 53.2044 73.677 53.2044C73.8059 53.2044 73.917 53.2474 74.0103 53.3295L74.9789 54.2284C74.4857 54.7755 73.8547 55.2054 73.0905 55.5181C72.3263 55.8268 71.4332 55.9831 70.4068 55.9831L70.4112 55.9988ZM73.0727 46.4121L74.7834 46.7677V48.1317H73.8681C73.717 48.1317 73.597 48.0926 73.5171 48.0144C73.4326 47.9362 73.3749 47.8268 73.3393 47.6822L73.0727 46.4082V46.4121Z" fill="#1F2937"/>
<path d="M75.7578 55.8776V54.9787C75.7578 54.8341 75.8067 54.7247 75.9 54.6543C75.9933 54.584 76.1177 54.5292 76.2688 54.498L77.2907 54.3104L77.504 55.8776H75.7578ZM76.2866 55.8776L81.2985 44.6416H83.7867L88.7987 55.8776H86.9103C86.697 55.8776 86.5238 55.8307 86.3816 55.7369C86.2394 55.6431 86.1461 55.5297 86.0972 55.3969L83.0269 47.9323C82.9558 47.7369 82.8759 47.5297 82.787 47.3109C82.6981 47.092 82.6182 46.8497 82.5471 46.58C82.4538 46.8497 82.3649 47.0881 82.2805 47.3031C82.196 47.5141 82.1205 47.729 82.0494 47.9479L78.9792 55.3969C78.9303 55.5219 78.837 55.6313 78.6948 55.729C78.5526 55.8268 78.3793 55.8776 78.166 55.8776H76.2777H76.2866ZM77.855 55.8776V54.838H79.4768V55.8776H77.855ZM78.7214 55.8776L78.9525 54.3104L79.9567 54.498C80.1211 54.5292 80.2455 54.58 80.3343 54.6543C80.4232 54.7286 80.4676 54.8341 80.4676 54.9787V55.8776H78.7214ZM79.4279 52.7901L79.7256 51.3011H85.2485L85.5462 52.7901H79.4235H79.4279ZM84.5954 55.8776V54.9787C84.5954 54.8341 84.6443 54.7247 84.7376 54.6543C84.8309 54.584 84.9553 54.5292 85.1064 54.498L86.1283 54.3104L86.3416 55.8776H84.5954ZM85.4263 55.8776V54.838H87.1547V55.8776H85.4263ZM87.559 55.8776L87.7901 54.3104L88.7942 54.498C88.9586 54.5292 89.0875 54.58 89.1719 54.6543C89.2608 54.7286 89.3052 54.8341 89.3052 54.9787V55.8776H87.559Z" fill="#1F2937"/>
<path d="M91.6856 44.6416L91.4546 46.2088L90.4504 46.0212C90.286 45.9899 90.1616 45.9391 90.0728 45.8649C89.9839 45.7945 89.9395 45.6851 89.9395 45.5405V44.6416H91.6856ZM89.9395 55.8776V54.9787C89.9395 54.8341 89.9839 54.7247 90.0728 54.6543C90.1616 54.584 90.286 54.5292 90.4504 54.498L91.4546 54.3104L91.6856 55.8776H89.9395ZM91.2458 55.8776V44.6416H93.6984V54.1384H99.0436V55.8776H91.2458ZM95.0358 44.6416V45.5405C95.0358 45.6851 94.987 45.7945 94.8937 45.8649C94.8003 45.9391 94.6759 45.9899 94.5249 46.0212L93.5029 46.2088L93.2897 44.6416H95.0358ZM97.333 54.4941L97.5996 53.22C97.6351 53.0754 97.6929 52.966 97.7773 52.8878C97.8617 52.8097 97.9817 52.7706 98.1461 52.7706H99.0436V54.1345L97.333 54.4902V54.4941Z" fill="#1F2937"/>
<path d="M101.669 55.9831C101.305 55.9831 100.99 55.8736 100.727 55.6509C100.461 55.4281 100.332 55.1467 100.332 54.8067C100.332 54.4863 100.465 54.2127 100.727 53.986C100.994 53.7593 101.305 53.646 101.669 53.646C102.056 53.646 102.385 53.7593 102.647 53.986C102.909 54.2127 103.042 54.4863 103.042 54.8067C103.042 55.1467 102.909 55.4281 102.647 55.6509C102.38 55.8736 102.056 55.9831 101.669 55.9831Z" fill="#1F2937"/>
<path d="M109.788 55.9988C108.811 55.9988 107.94 55.8542 107.167 55.565C106.398 55.2758 105.745 54.8771 105.216 54.3691C104.674 53.8532 104.261 53.2435 103.972 52.5361C103.683 51.8327 103.541 51.0862 103.541 50.3007C103.541 49.4409 103.701 48.6593 104.025 47.948C104.35 47.2406 104.798 46.6309 105.376 46.1229C105.963 45.6148 106.665 45.2201 107.473 44.9348C108.286 44.6495 109.162 44.5088 110.104 44.5088C110.632 44.5088 111.139 44.5518 111.623 44.6339C112.103 44.7159 112.556 44.8254 112.983 44.9582C113.405 45.0911 113.8 45.2318 114.165 45.3764V46.756L112.965 46.8185C112.623 46.6544 112.201 46.5254 111.694 46.4394C111.188 46.3534 110.699 46.3065 110.228 46.3065C109.357 46.3065 108.606 46.4707 107.98 46.8029C107.349 47.1351 106.869 47.5923 106.54 48.1825C106.211 48.7726 106.047 49.4643 106.047 50.2616C106.047 51.0159 106.198 51.692 106.505 52.286C106.811 52.8801 107.264 53.349 107.864 53.6891C108.464 54.0291 109.193 54.201 110.05 54.201C110.53 54.201 110.988 54.1346 111.419 54.0056C111.85 53.8766 112.259 53.6578 112.645 53.3451C112.703 53.3021 112.77 53.2709 112.841 53.2435C112.912 53.2162 112.983 53.2044 113.054 53.2044C113.183 53.2044 113.294 53.2474 113.387 53.3295L114.356 54.2284C113.863 54.7755 113.232 55.2054 112.467 55.5181C111.703 55.8268 110.81 55.9831 109.784 55.9831L109.788 55.9988ZM112.45 46.4121L114.16 46.7677V48.1317H113.245C113.094 48.1317 112.974 48.0926 112.894 48.0144C112.81 47.9362 112.752 47.8268 112.716 47.6822L112.45 46.4082V46.4121Z" fill="#1F2937"/>
<path d="M121.82 55.9988C120.856 55.9988 119.976 55.8542 119.181 55.565C118.386 55.2758 117.701 54.8732 117.124 54.3534C116.573 53.8454 116.133 53.2435 115.809 52.5361C115.484 51.8327 115.324 51.0706 115.324 50.2538C115.324 49.437 115.484 48.6632 115.809 47.9636C116.133 47.264 116.568 46.6583 117.124 46.1385C117.701 45.6304 118.386 45.2318 119.181 44.9426C119.976 44.6534 120.856 44.5088 121.82 44.5088C122.784 44.5088 123.686 44.6534 124.495 44.9426C125.299 45.2318 125.979 45.6343 126.534 46.1541C127.112 46.6622 127.552 47.2679 127.859 47.9714C128.165 48.6749 128.316 49.437 128.316 50.2538C128.316 51.0706 128.165 51.8327 127.859 52.5361C127.552 53.2396 127.112 53.8454 126.534 54.3534C125.984 54.8693 125.299 55.2758 124.486 55.565C123.673 55.8542 122.784 55.9988 121.82 55.9988ZM121.82 54.201C122.669 54.201 123.389 54.0408 123.98 53.7203C124.575 53.3999 125.028 52.9465 125.339 52.3564C125.65 51.7662 125.806 51.0667 125.806 50.2616C125.806 49.4565 125.65 48.7726 125.339 48.1825C125.028 47.5923 124.575 47.1351 123.98 46.8107C123.384 46.4863 122.664 46.3222 121.82 46.3222C120.976 46.3222 120.287 46.4863 119.687 46.8107C119.088 47.1351 118.63 47.5923 118.31 48.1825C117.99 48.7726 117.835 49.4643 117.835 50.2616C117.835 51.0589 117.995 51.7545 118.31 52.3486C118.626 52.9426 119.088 53.3999 119.687 53.7203C120.287 54.0408 120.998 54.201 121.82 54.201Z" fill="#1F2937"/>
<path d="M130.889 44.6416L130.658 46.2088L129.654 46.0212C129.49 45.9899 129.365 45.9391 129.276 45.8649C129.188 45.7945 129.143 45.6851 129.143 45.5405V44.6416H130.889ZM129.139 55.8776V54.9787C129.139 54.8341 129.183 54.7247 129.272 54.6543C129.361 54.584 129.485 54.5292 129.65 54.498L130.654 54.3104L130.885 55.8776H129.139ZM130.445 55.8776V44.6416H132.298C132.52 44.6416 132.684 44.6572 132.791 44.6885C132.898 44.7198 133.004 44.8175 133.106 44.9816L136.883 51.2034C136.99 51.3675 137.083 51.5395 137.168 51.7154C137.252 51.8912 137.332 52.071 137.416 52.2586C137.496 52.1023 137.585 51.9264 137.683 51.731C137.776 51.5356 137.87 51.348 137.967 51.1721L141.691 44.9816C141.797 44.8175 141.904 44.7198 142.015 44.6885C142.126 44.6572 142.295 44.6416 142.517 44.6416H144.352V55.8776H142.22V48.6631C142.22 48.5185 142.22 48.37 142.228 48.2215C142.233 48.073 142.242 47.9205 142.255 47.7642L138.443 54.0642C138.265 54.3729 137.985 54.5292 137.594 54.5292H137.261C136.874 54.5292 136.586 54.3729 136.394 54.0642L132.529 47.7486C132.551 47.9127 132.569 48.073 132.582 48.2293C132.596 48.3856 132.6 48.5302 132.6 48.6631V55.8776H130.449H130.445ZM132.244 55.8776L132.476 54.3104L133.497 54.498C133.649 54.5292 133.773 54.58 133.866 54.6543C133.96 54.7286 134.008 54.8341 134.008 54.9787V55.8776H132.244ZM140.802 55.8776V54.9787C140.802 54.8341 140.847 54.7247 140.935 54.6543C141.024 54.584 141.149 54.5292 141.313 54.498L142.317 54.3104L142.548 55.8776H140.802ZM145.672 44.6416V45.5405C145.672 45.6851 145.623 45.7945 145.53 45.8649C145.436 45.9391 145.312 45.9899 145.161 46.0212L144.139 46.2088L143.926 44.6416H145.672ZM143.926 55.8776L144.139 54.3104L145.161 54.498C145.312 54.5292 145.436 54.58 145.53 54.6543C145.623 54.7286 145.672 54.8341 145.672 54.9787V55.8776H143.926Z" fill="#1F2937"/>
<path d="M45.1787 20.3688H44.3478C48.5067 20.3297 51.8613 17.3634 51.8613 13.6975V12.1577H38.5317C38.5583 12.3219 38.5672 12.486 38.5672 12.6541C38.5672 14.9169 36.4878 16.7459 33.9151 16.7459H13.2941V12.1577H0V20.3727H0.00888645V40.3355H43.237C48.0046 40.3355 51.8658 36.9354 51.8658 32.742V26.2505C51.8658 23.0029 48.871 20.3688 45.1787 20.3688ZM38.5761 28.5681C38.5761 30.5612 36.741 32.1753 34.475 32.1753H13.303V23.9916H34.475C36.741 23.9916 38.5761 25.6096 38.5761 27.5989V28.5681Z" fill="#1F2937"/>
<path d="M139.309 20.3691C143.001 20.3691 146 23.0032 146 26.2509V32.7424C146 36.9358 142.135 40.3359 137.367 40.3359H104.479C106.362 38.7648 107.535 36.5411 107.535 34.0829V32.1757H128.605C130.871 32.1757 132.706 30.5616 132.706 28.5684V27.5992C132.706 25.61 130.871 23.992 128.605 23.992H107.535V16.7424H128.605C130.871 16.7424 132.706 15.1283 132.706 13.1351V12.1659C132.706 10.1727 130.871 8.55867 128.605 8.55867H107.535V6.65149C107.535 4.19717 106.367 1.97733 104.487 0.402344H137.367C142.135 0.402344 146 3.79853 146 7.99199V14.4834C146 17.7311 143.001 20.3691 139.309 20.3691Z" fill="#1F2937"/>
<path d="M105.263 6.6512V34.0826C105.263 36.9551 103.188 39.4055 100.292 40.3356C99.4828 40.5936 98.6164 40.7342 97.7055 40.7342H55.3349V12.1578L68.6646 16.4841V30.8036H89.4145C90.8052 30.8036 91.9338 29.8109 91.9338 28.5877V12.1461C91.9338 10.9228 90.8052 9.93014 89.4145 9.93014H0.0078125V-0.000488281H97.7055C98.6208 -0.000488281 99.4962 0.140205 100.305 0.402052C103.197 1.3361 105.263 3.78261 105.263 6.6512Z" fill="#06A2FF"/>
</g>
<defs>
<clipPath id="clip0_656_2372">
<rect width="146" height="56" fill="white"/>
</clipPath>
</defs>
</svg>
