<?xml version="1.0" encoding="UTF-8"?>
<svg id="Layer_1" xmlns="http://www.w3.org/2000/svg" version="1.1" viewBox="0 0 384.21 134.11">
  <!-- Generator: Adobe Illustrator 30.1.0, SVG Export Plug-In . SVG Version: 2.1.1 Build 136)  -->
  <defs>
    <style>
      .st0, .st1 {
        fill: #797979;
      }

      .st1 {
        font-family: Montserrat-Bold, Montserrat;
        font-size: 23px;
        font-weight: 700;
      }

      .st2 {
        fill: #81d3ef;
      }

      .st3 {
        fill: #35b9e6;
      }

      .st4 {
        fill: #03a8e0;
      }
    </style>
  </defs>
  <path class="st0" d="M89.49,130.2c-2.49,0-4.58-.55-6.3-1.64-1.71-1.09-2.93-2.6-3.65-4.52l4.27-2.45c.99,2.54,2.93,3.81,5.83,3.81,1.35,0,2.36-.24,3.04-.71.67-.48,1.02-1.11,1.02-1.92,0-.88-.4-1.55-1.2-2.03-.8-.5-2.22-1.03-4.27-1.6-2.22-.66-3.97-1.44-5.25-2.31-1.6-1.16-2.39-2.87-2.39-5.12s.81-4.07,2.42-5.37c1.62-1.35,3.58-2.03,5.9-2.03,2.03,0,3.82.48,5.4,1.46,1.57.98,2.78,2.35,3.65,4.13l-4.2,2.38c-1.02-2.14-2.63-3.21-4.85-3.21-1.02,0-1.82.23-2.42.69-.6.46-.91,1.06-.91,1.8,0,.78.33,1.42.98,1.92.73.5,2,1.02,3.84,1.57l1.74.57c.31.09.86.3,1.63.61.73.26,1.25.51,1.6.75,1.18.71,1.98,1.45,2.39,2.21.63,1,.94,2.17.94,3.52,0,2.3-.86,4.13-2.57,5.48-1.71,1.35-3.92,2.03-6.62,2.03Z"/>
  <path class="st0" d="M99.89,104.79h18.65v4.7h-6.84v20.21h-5v-20.21h-6.8v-4.7h0Z"/>
  <path class="st0" d="M141.91,129.7h-5.43l-1.52-4.48h-10.1l-1.52,4.48h-5.4l8.87-24.91h6.19l8.9,24.91ZM129.93,110.44l-3.47,10.18h6.95l-3.48-10.18Z"/>
  <path class="st0" d="M141.36,104.79h18.65v4.7h-6.84v20.21h-5v-20.21h-6.8v-4.7h0Z"/>
  <path class="st0" d="M172.96,130.2c-2.82,0-5.14-.78-6.95-2.35-1.81-1.57-2.71-3.67-2.71-6.3v-16.76h4.96v16.37c0,1.33.39,2.37,1.17,3.11.78.75,1.96,1.12,3.53,1.12s2.75-.38,3.53-1.12c.78-.75,1.17-1.78,1.17-3.11v-16.37h5.01v16.76c0,2.64-.91,4.74-2.71,6.3-1.81,1.56-4.14,2.35-6.98,2.35Z"/>
  <path class="st0" d="M196.53,130.2c-2.49,0-4.58-.55-6.3-1.64-1.71-1.09-2.93-2.6-3.65-4.52l4.27-2.45c.99,2.54,2.93,3.81,5.83,3.81,1.35,0,2.36-.24,3.04-.71.67-.48,1.02-1.11,1.02-1.92,0-.88-.4-1.55-1.2-2.03-.8-.5-2.22-1.03-4.27-1.6-2.22-.66-3.97-1.44-5.25-2.31-1.6-1.16-2.39-2.87-2.39-5.12s.81-4.07,2.42-5.37c1.62-1.35,3.58-2.03,5.9-2.03,2.03,0,3.82.48,5.4,1.46,1.57.98,2.78,2.35,3.65,4.13l-4.2,2.38c-1.02-2.14-2.63-3.21-4.85-3.21-1.01,0-1.82.23-2.42.69-.6.46-.91,1.06-.91,1.8,0,.78.32,1.42.98,1.92.73.5,2,1.02,3.84,1.57l1.74.57c.31.09.85.3,1.63.61.73.26,1.25.51,1.6.75,1.18.71,1.98,1.45,2.39,2.21.63,1,.94,2.17.94,3.52,0,2.3-.86,4.13-2.57,5.48-1.71,1.35-3.93,2.03-6.62,2.03Z"/>
  <path class="st4" d="M79.33,96.64v-33.96h7.9v33.97h-7.9Z"/>
  <path class="st4" d="M113.39,81.12v-18.44h7.9v33.97h-5.92l-13.33-18.44v18.44h-7.9v-33.97h5.92l13.33,18.44Z"/>
  <path class="st4" d="M146.56,96.64h-10.07l-11.25-33.97h8.63l7.65,24.99,7.65-24.99h8.63l-11.25,33.97Z"/>
  <path class="st4" d="M169.66,83.16v6.02h13.82v7.47h-21.72v-33.97h21.47v7.47h-13.58v5.63h12.34v7.37h-12.33Z"/>
  <path class="st4" d="M208.16,81.12v-18.44h7.9v33.97h-5.92l-13.33-18.44v18.44h-7.9v-33.97h5.92l13.33,18.44Z"/>
  <path class="st4" d="M220.5,62.68h25.67v7.47h-8.88v26.5h-7.9v-26.5h-8.88v-7.47h0Z"/>
  <path class="st4" d="M277.85,92.23c-3.49,3.4-7.73,5.1-12.73,5.1s-9.24-1.7-12.73-5.1c-3.49-3.4-5.23-7.59-5.23-12.57s1.74-9.17,5.23-12.57c3.49-3.4,7.73-5.1,12.73-5.1s9.24,1.7,12.73,5.1c3.49,3.4,5.23,7.59,5.23,12.57s-1.74,9.17-5.23,12.57ZM255.05,79.67c0,2.98.95,5.41,2.86,7.28,1.91,1.88,4.31,2.81,7.2,2.81s5.25-.94,7.16-2.81c1.94-1.91,2.91-4.34,2.91-7.28s-.97-5.37-2.91-7.28c-1.91-1.88-4.29-2.81-7.16-2.81s-5.29.94-7.2,2.81c-1.91,1.88-2.86,4.31-2.86,7.28Z"/>
  <path class="st4" d="M315.16,96.64h-8.49l-6.51-11.16h-3.75v11.16h-7.9v-33.96h13.82c3.3,0,6.09,1.13,8.39,3.4,2.3,2.27,3.46,5.01,3.46,8.25,0,2.04-.59,3.94-1.75,5.73-1.17,1.78-2.71,3.15-4.61,4.12l7.36,12.46ZM302.34,69.96h-5.92v8.73h5.92c1.09,0,2.02-.42,2.79-1.26.77-.84,1.16-1.88,1.16-3.11s-.39-2.26-1.16-3.11c-.78-.84-1.71-1.26-2.79-1.26Z"/>
  <path class="st4" d="M338.02,62.68h8.99l-11.6,20.91v13.06h-7.9v-13.06l-11.6-20.91h8.99l6.56,13.1,6.56-13.1Z"/>
  <path class="st3" d="M90.69,43.86l-44.42-25.04L2,44.12l44.58,25.76,44.11-26.03Z"/>
  <path class="st2" d="M2,44.12l.16,50.34,44.42,25.04v-49.62L2,44.12Z"/>
  <path class="st4" d="M46.58,49.96l44.11-26.03v19.94l-44.11,26.03v-19.93Z"/>
  <path class="st4" d="M29.34,80.08l17.28-10.2v49.62l-17.28,10.2v-49.62Z"/>
  <text class="st1" transform="translate(348.12 19.55)"><tspan x="0" y="0">TM</tspan></text>
</svg>