<?xml version="1.0" encoding="UTF-8"?>
<svg id="Layer_1" xmlns="http://www.w3.org/2000/svg" version="1.1" viewBox="0 0 697.5 127.7">
  <!-- Generator: Adobe Illustrator 29.5.1, SVG Export Plug-In . SVG Version: 2.1.0 Build 141)  -->
  <defs>
    <style>
      .st0 {
        fill: #0091c6;
      }

      .st1 {
        fill: #00479d;
      }

      .st2 {
        fill: #fbaf3f;
      }
    </style>
  </defs>
  <g>
    <path class="st1" d="M235.7,78.85c-3.8,0-6.5-.2-8.3-.5s-2.7-.7-2.7-1.2l3.3-7.2c1.3.2,4.4.4,9.5.6s12,.3,20.9.3h1.6c2.4,0,4.1-.4,5.1-1.3s1.5-2.3,1.5-4.4v-1.7c0-1.9-.4-3.3-1.2-4.1-.8-.8-2.6-1.2-5.4-1.2h-19.2c-5.6,0-9.7-1-12.2-3.1s-3.8-5.5-3.8-10.2v-1.3c0-2.4.5-4.7,1.4-6.7s2.5-3.7,4.7-4.9c2.2-1.2,5.3-1.9,9.1-1.9h22.6c3.8,0,6.8.2,9.1.6,2.3.4,3.5.8,3.5,1.2l-1.7,7c-1.4-.2-4.7-.3-9.8-.5-5.1-.2-11.9-.3-20.5-.3l-.9-.1c-2.5,0-4.3.5-5.1,1.5-.9,1-1.4,2.3-1.4,3.9v1.4c0,1.8.5,3.2,1.5,4.1,1,.9,2.7,1.4,5.1,1.4h18.4c3.5,0,6.6.4,9,1.1,2.5.7,4.4,2,5.7,3.9,1.3,1.9,2,4.7,2,8.4v1.3c0,4.1-1.1,7.5-3.2,10s-5.8,3.8-11.1,3.8h-27.5v.1Z"/>
    <path class="st1" d="M297.6,78.85c-3.7,0-6.5-.7-8.3-2.2s-2.7-3.9-2.7-7.3v-17c0-.8.1-1.8.2-3s.5-2.4,1.2-3.5c.6-1.2,1.7-2.1,3.2-2.9,1.5-.8,3.6-1.2,6.3-1.2h22.9c2.8,0,4.9.4,6.4,1.2s2.6,1.7,3.2,2.9,1,2.3,1.2,3.5c.1,1.2.2,2.2.2,3v15.9c0,1-.1,2.1-.2,3.3-.1,1.2-.5,2.4-1.2,3.5s-1.7,2-3.2,2.7-3.6,1.1-6.3,1.1h-22.9ZM300.8,71.75h16.6c2.7,0,4.1-1.1,4.1-3.3v-16.3c0-2.2-1.4-3.3-4.1-3.3h-16.6c-2.7,0-4,1.1-4,3.3v16.3c0,2.2,1.3,3.3,4,3.3Z"/>
    <path class="st1" d="M341.5,78.85v-46l-.8-6.6h11v52.6h-10.2Z"/>
    <path class="st1" d="M372.2,78.85c-4.2,0-7.2-1-9.1-2.9-1.9-2-2.8-4.7-2.8-8.1,0-3.6,1-6.4,2.9-8.3,2-1.9,5-2.9,9-2.9h4.2c4.1,0,7.9.1,11.2.3,3.3.2,6.1.4,8.2.7v-5.5c0-.5-.1-1-.2-1.5s-.4-1-1-1.3-1.5-.5-2.8-.5h-4c-6,0-11.1.1-15.1.3s-6.8.4-8.2.5l-.9-6.3c0-.8,2.1-1.2,6.3-1.4s11.2-.2,21.1-.2h4.2c2.8,0,4.9.4,6.4,1.2s2.6,1.7,3.2,2.9,1,2.3,1.2,3.5c.1,1.2.2,2.2.2,3v26.6h-6.8l-3.2-1.7c-2.3.4-5.1.8-8.4,1.1-3.3.4-7,.5-11.2.5h-4.4ZM374.4,71.75h19c1.2,0,1.9-.1,2.2-.3.2-.2.3-.9.3-2.1v-6.4h-21.5c-1.5,0-2.5.4-3.1,1.1s-.9,1.9-.9,3.4.3,2.7,1,3.3c.7.7,1.7,1,3,1Z"/>
    <path class="st1" d="M415.6,78.85v-37.1h6.8l3.2,1.7c1.4-.8,3-1.4,4.6-1.8,1.7-.4,3.8-.7,6.3-.7,4,0,7.3.4,9.8,1.3,2.5.9,4.2,1.5,5,2l-2.9,7.2c-.7-.3-1.8-.8-3.3-1.3s-3.3-1-5.4-1.5c-2-.4-4.3-.7-6.7-.7h-.9c-2.7,0-4.4.5-5.2,1.6-.8,1.1-1.2,2.8-1.3,5.2v24.1h-10Z"/>
    <path class="st0" d="M459.6,78.85v-42.1l-.8-6.6h12l28.2,29.5,3.2,4.5h.9V30.15h11v48.8h-10.5l-28.9-30-3.2-3.9h-.8v33.9h-11.1v-.1Z"/>
    <path class="st0" d="M535.8,78.85c-2.8,0-4.9-.4-6.4-1.1s-2.6-1.6-3.2-2.7c-.6-1.1-1-2.3-1.2-3.5-.1-1.2-.2-2.3-.2-3.3v-15.9c0-.8.1-1.8.2-3,.1-1.2.5-2.4,1.2-3.5.6-1.2,1.7-2.1,3.2-2.9,1.5-.8,3.6-1.2,6.3-1.2h17.8c3.7,0,6.5.3,8.6,1s3.5,1.8,4.4,3.4c.9,1.5,1.3,3.6,1.3,6.2v12.3h-14.5c-5,0-9-.1-12.2-.3-3.1-.2-5.2-.4-6.3-.4v4.5c-.1,2.2,1.3,3.3,4,3.3h4.2c3,0,5.9,0,8.8-.1,2.8-.1,5.5-.2,7.8-.3,2.4-.1,4.3-.3,5.7-.4l3.3,5.4c0,1.7-5.5,2.6-16.4,2.6h-16.4v-.1ZM535,57.45h22.8v-5.3c0-1.1-.1-1.9-.4-2.3-.2-.4-1-.7-2.2-.8s-3.3-.2-6.2-.2h-10c-2.7,0-4,1.1-4,3.3v5.3h0Z"/>
    <path class="st0" d="M591.6,78.85c-4.2,0-7.1-.9-8.6-2.7-1.5-1.8-2.3-4.4-2.3-8v-19.3h-6.8v-7.1h3.5c1.1,0,1.8-.2,2.3-.5s.8-1,1-2l1.7-8.9h8.5v11.4h17.3v7.1h-17.4v19.5c0,1.4.3,2.3,1,2.7.7.4,1.7.7,3,.7h11.7l.8,6.3c-1.2.2-2.9.3-5.3.5-2.4.2-5,.3-7.8.3h-2.6Z"/>
    <path class="st0" d="M624.1,78.85c-3.7,0-6.3-.2-7.9-.6-1.5-.4-2.3-.8-2.3-1.2l2.5-6.2c1.6.2,4.6.3,8.8.5,4.3.2,9.6.3,15.9.3h4.2c1.4,0,2.3-.4,2.6-1.1.4-.7.5-1.8.5-3,0-1.3-.2-2.3-.6-3.1-.4-.8-1.3-1.2-2.5-1.2h-20.5c-3.9,0-6.7-.7-8.4-2.2s-2.6-3.7-2.6-6.6v-3.3c0-.8.1-1.7.2-2.7.2-1.1.6-2.1,1.2-3.2.7-1.1,1.7-1.9,3.2-2.6,1.5-.7,3.6-1,6.2-1h22.9c3.3,0,5.7.2,7.1.6,1.4.4,2.1.8,2.1,1.2l-.8,6.2c-1.6-.2-4.6-.3-8.9-.5-4.3-.2-9.6-.3-15.9-.3h-4.2c-1.4,0-2.3.4-2.6,1.1-.4.7-.5,1.6-.5,2.6,0,1.1.2,1.9.5,2.6.4.7,1.2,1,2.6,1h20.4c3.8,0,6.5.8,8.3,2.3s2.7,3.5,2.7,5.9v4.9c0,1-.1,2-.2,3.2-.1,1.1-.5,2.1-1.2,3.1s-1.7,1.8-3.2,2.4-3.6.9-6.3.9c0,0-23.3,0-23.3,0Z"/>
  </g>
  <g>
    <path class="st0" d="M225.2,108.65v-15.3l-.3-2.4h13.3c1.3,0,2.3.2,3,.5s1.3.8,1.6,1.3c.4.6.6,1.1.7,1.8.1.6.2,1.2.2,1.8v1.8c0,.5-.1,1-.2,1.6-.1.6-.4,1.1-.8,1.7-.4.5-.9,1-1.7,1.3-.7.4-1.7.5-2.8.5h-3.1c-1.3,0-2.4,0-3.5-.1s-1.9-.1-2.5-.2v5.7h-3.9ZM229.2,100.25h8.2c.9,0,1.5-.2,1.9-.7.3-.4.5-1,.5-1.6v-1.9c0-.6-.2-1.2-.5-1.6s-1-.7-1.8-.7h-8.2v6.5h-.1Z"/>
    <path class="st0" d="M269.2,108.95c-.8,0-1.6-.1-2.4-.4s-1.7-.9-2.6-1.9l-2.2-2.2c-.9-.9-1.9-1.6-2.9-2-1.1-.4-2.4-.6-4-.6h-.9v6.7h-4v-15.2l-.3-2.4h13.3c1.3,0,2.3.2,3,.5s1.3.8,1.6,1.3c.4.6.6,1.1.7,1.8.1.6.2,1.2.2,1.8v.6c0,.4-.1.9-.2,1.5s-.4,1.1-.7,1.6c-.3.5-.8,1-1.5,1.3-.6.4-1.5.6-2.5.6.3.1.6.4,1,.6.4.3.8.6,1.2.9.4.3.8.7,1.2.9s.6.5.8.6c.7.4,1.4.7,1.9.9.6.2,1,.3,1.4.3h.6l-.6,2.4c-.2.1-.5.1-.9.2-.1.2-.6.2-1.2.2ZM258.8,99.25h2c.6,0,1.1-.1,1.6-.1.9-.1,1.5-.3,1.9-.7.4-.4.5-.9.5-1.5v-.7c0-.6-.2-1.2-.5-1.6s-1-.7-1.8-.7h-8.2v5.2c.9.1,1.7.1,2.4.1.7-.1,1.4,0,2.1,0Z"/>
    <path class="st0" d="M282.1,108.65c-1.4,0-2.5-.2-3.3-.6s-1.4-1-1.7-1.8c-.3-.8-.5-1.8-.5-3v-7c0-1.2.2-2.1.5-2.9s.9-1.4,1.7-1.8c.8-.4,1.9-.6,3.3-.6h8.8c1.4,0,2.5.2,3.3.6s1.4,1,1.7,1.8.5,1.8.5,2.9v7c0,1.8-.4,3.1-1.2,4-.8.9-2.2,1.4-4.3,1.4h-8.8ZM283,105.75h7.1c.7,0,1.3-.2,1.7-.6.4-.4.6-.9.6-1.6v-7.7c0-.6-.2-1.1-.6-1.5s-1-.6-1.7-.6h-7.1c-.7,0-1.3.2-1.7.6-.4.4-.7.9-.7,1.5v7.7c0,.7.2,1.2.6,1.6.5.4,1.1.6,1.8.6Z"/>
    <path class="st0" d="M309,108.65v-14.8h-7.8v-2.9h19.6v2.9h-7.9v14.8h-3.9Z"/>
    <path class="st0" d="M325.8,108.65v-17.7h18.7v2.9h-14.7v4.2h11.3v3h-11.3v4.8h14.9l1.2,2.6c0,.1-.3.2-.8.2-.5.1-1.5.1-2.8.1h-16.5v-.1Z"/>
    <path class="st0" d="M356.1,108.65c-1.4,0-2.5-.2-3.3-.6s-1.4-1-1.7-1.8c-.3-.8-.5-1.8-.5-3v-6.7c0-1.9.4-3.3,1.3-4.3.9-.9,2.3-1.4,4.2-1.4h9.1c1.4,0,2.4.1,3.2.2s1.1.3,1.1.5l-.6,2.5c-.3-.1-1.3-.1-3-.2s-4.1-.1-7.3-.1h-1.5c-1.6,0-2.4.7-2.4,2.1v7.7c0,.7.2,1.2.5,1.6.4.4,1,.6,1.9.6h1.2c3.3,0,5.9,0,7.8-.1,1.8-.1,3-.1,3.4-.2l1.2,2c0,.1-.2.3-.5.5s-.9.4-1.8.5c-.9.2-2.2.2-3.8.2,0,0-8.5,0-8.5,0Z"/>
    <path class="st0" d="M381.7,108.65v-14.8h-7.9v-2.9h19.7v2.9h-7.9v14.8h-3.9Z"/>
    <path class="st0" d="M413.8,108.65v-7.3l-8.8-10.4h4.8l4.5,5.6,1.4,1.9h.3l1.4-1.9,4.5-5.6h4.8l-1.2,1.8-7.7,8.7v7.2h-4Z"/>
    <path class="st0" d="M435.7,108.65c-1.4,0-2.5-.2-3.3-.6s-1.4-1-1.7-1.8c-.3-.8-.5-1.8-.5-3v-7c0-1.2.2-2.1.5-2.9s.9-1.4,1.7-1.8c.8-.4,1.9-.6,3.3-.6h8.8c1.4,0,2.5.2,3.3.6s1.4,1,1.7,1.8.5,1.8.5,2.9v7c0,1.8-.4,3.1-1.2,4-.8.9-2.2,1.4-4.3,1.4h-8.8ZM436.6,105.75h7.1c.7,0,1.3-.2,1.7-.6.4-.4.6-.9.6-1.6v-7.7c0-.6-.2-1.1-.6-1.5s-1-.6-1.7-.6h-7.1c-.7,0-1.3.2-1.7.6-.4.4-.7.9-.7,1.5v7.7c0,.7.2,1.2.6,1.6.5.4,1.1.6,1.8.6Z"/>
    <path class="st0" d="M461,108.95c-1.8,0-3.1-.5-3.8-1.5s-1.1-2.3-1.1-3.9v-12.6h4v12.7c0,.9.2,1.6.7,1.9s1,.5,1.7.5h6.4c.6,0,1.2-.2,1.7-.5s.7-1,.7-1.9v-12.7h4v12.6c0,1.1-.2,2-.5,2.8s-.8,1.4-1.5,1.9-1.7.7-2.9.7h-9.4Z"/>
    <path class="st0" d="M500.8,108.95c-.8,0-1.6-.1-2.4-.4s-1.7-.9-2.6-1.9l-2.2-2.2c-.9-.9-1.9-1.6-2.9-2-1.1-.4-2.4-.6-4-.6h-.9v6.7h-4v-15.2l-.3-2.4h13.3c1.3,0,2.3.2,3,.5s1.3.8,1.6,1.3c.4.6.6,1.1.7,1.8.1.6.2,1.2.2,1.8v.6c0,.4-.1.9-.2,1.5s-.4,1.1-.7,1.6c-.3.5-.8,1-1.5,1.3-.6.4-1.5.6-2.5.6.3.1.6.4,1,.6.4.3.8.6,1.2.9.4.3.8.7,1.2.9s.6.5.8.6c.7.4,1.4.7,1.9.9.6.2,1,.3,1.4.3h.6l-.6,2.4c-.2.1-.5.1-.9.2-.1.2-.6.2-1.2.2ZM490.4,99.25h2c.6,0,1.1-.1,1.6-.1.9-.1,1.5-.3,1.9-.7.4-.4.5-.9.5-1.5v-.7c0-.6-.2-1.2-.5-1.6s-1-.7-1.8-.7h-8.2v5.2c.9.1,1.7.1,2.4.1.8-.1,1.4,0,2.1,0Z"/>
    <path class="st0" d="M517.5,108.65v-15.3l-.3-2.4h13.3c1.3,0,2.3.2,3,.5s1.3.8,1.6,1.3c.4.6.6,1.1.7,1.8.1.6.2,1.2.2,1.8v1.8c0,.5-.1,1-.2,1.6-.1.6-.4,1.1-.8,1.7-.4.5-.9,1-1.7,1.3-.7.4-1.7.5-2.8.5h-3.1c-1.3,0-2.4,0-3.5-.1s-1.9-.1-2.5-.2v5.7h-3.9ZM521.4,100.25h8.2c.9,0,1.5-.2,1.9-.7.3-.4.5-1,.5-1.6v-1.9c0-.6-.2-1.2-.5-1.6s-1-.7-1.8-.7h-8.2v6.5h-.1Z"/>
    <path class="st0" d="M538,108.65l8.8-17.7h5.9l8.8,17.7h-4.6l-1.8-3.8h-10.8l-2,3.8h-4.3ZM545.4,101.85h8.6l-4.1-8.2h-.3l-4.2,8.2Z"/>
    <path class="st0" d="M566.3,108.65v-15.3l-.3-2.4h4.3l10.2,10.7,1.2,1.6h.3v-12.3h4v17.7h-3.8l-10.5-10.9-1.2-1.4h-.3v12.3h-3.9Z"/>
    <path class="st0" d="M592.8,108.65v-17.7h18.7v2.9h-14.7v4.2h11.3v3h-11.3v4.8h14.9l1.2,2.6c0,.1-.3.2-.8.2-.5.1-1.5.1-2.8.1h-16.5v-.1Z"/>
    <path class="st0" d="M617.9,108.65l.3-2.4v-15.3h4v14.8h12.5l1.2,2.6c0,.1-.3.2-.8.2s-1.5.1-2.8.1h-14.4Z"/>
    <path class="st0" d="M644,108.65c-1.4,0-2.4-.1-3-.2s-1-.3-1-.4l1.2-2.6c.5.1,1.6.2,3.4.2,1.8.1,4.4.1,7.6.1h.6c.9,0,1.5-.2,1.8-.5.4-.3.5-.8.5-1.6v-.6c0-.7-.1-1.2-.4-1.5-.3-.3-.9-.5-1.9-.5h-7c-2,0-3.5-.4-4.4-1.1-.9-.8-1.4-2-1.4-3.7v-.5c0-.9.2-1.7.5-2.4s.9-1.3,1.7-1.8,1.9-.7,3.3-.7h8.2c1.4,0,2.5.1,3.3.2s1.3.3,1.3.5l-.6,2.5c-.5-.1-1.7-.1-3.6-.2-1.8-.1-4.3-.1-7.4-.1h-.3c-.9,0-1.5.2-1.9.6-.3.4-.5.8-.5,1.4v.5c0,.7.2,1.2.6,1.5s1,.5,1.9.5h6.7c1.3,0,2.4.1,3.3.4s1.6.7,2.1,1.4c.5.7.7,1.7.7,3.1v.5c0,1.5-.4,2.7-1.2,3.6s-2.1,1.4-4,1.4c0,0-10.1,0-10.1,0Z"/>
  </g>
  <g>
    <path class="st2" d="M69.7,46.05l-18.5-10.3,20.3,5.9c2.3.7,4.8-.2,6.2-2.2,0-.1.1-.1.1-.2,1.5-2.1,1.5-4.8-.1-6.8l-3.8-4.8,4.7,3.8c2,1.6,4.8,1.7,6.9.3l.2-.2c2-1.4,2.9-3.8,2.3-6.2l-5.6-20.3,10.2,18.5c1.2,2.1,3.6,3.3,6,2.8h.3c2.5-.4,4.4-2.5,4.7-5l.7-6,.7,6.1c.3,2.5,2.2,4.5,4.7,5h.2c2.4.4,4.8-.7,6-2.8l10.4-18.4-5.9,20.3c-.7,2.3.2,4.8,2.2,6.2.1,0,.1.1.2.1,2.1,1.5,4.9,1.4,6.8-.1l4.8-3.8-3.8,4.7c-1.6,2-1.7,4.8-.3,6.8,0,.1.1.2.1.2,1.4,2,3.9,2.9,6.2,2.3l20.4-5.7-18.6,10.2c-2.1,1.2-3.3,3.6-2.8,5.9v.3c.4,2.5,2.5,4.4,5,4.7l6,.7-6.1.7c-1.7.2-3.1,1.1-4,2.4-12.5-2.2-25-3.3-37.9-3.1-1.7.1-2.6.1-4.4.2-7.6.6-15.1,1.6-22.5,2.9-.9-1.6-2.5-2.6-4.3-2.9l-6-.7,6.1-.7c2.5-.3,4.5-2.2,5-4.7v-.2c.4-2.3-.7-4.7-2.8-5.9"/>
    <path class="st0" d="M144.9,66.75c-3.6.2-6.1.3-8.8.6-1.6.2-3.4.4-5.5.7-.9.1-2.5-.1-3.6-.4-6.8-2.3-13.8-4.1-20.8-5.5-.4-.1-.7-.2-.8-.3,10.2.3,20.1,1.3,30.1,3.1,3.1.4,6.2,1.1,9.4,1.8"/>
    <path class="st0" d="M95.3,62.55c-6.3,2.1-12.3,4.3-18.4,6.8-1,.4-2.5.8-3.5.7-1.7-.1-3.4-.1-5.2-.1-4.4,0-8.8.2-13.2.5-.9.1-.9-.3.1-.8,1.2-.7,1.8-1,2.9-1.6,4.8-1.2,9.6-2.3,14.4-3.2,7.7-1.4,15.4-2.4,23.4-2.9.2.2.1.4-.5.6"/>
    <path class="st0" d="M123.5,68.15c-6.8-2.2-13.8-3.9-20.8-5.1-1-.2-2.6-.1-3.5.1-6.3,1.9-12.4,3.9-18.4,6.4-1,.4-.9.8.1.9,7.1.8,13.8,1.7,20.8,3.1,1.1.2,2.8.2,3.8-.1,6-1.9,12.3-3.4,18.5-4.4.8-.2.6-.6-.5-.9"/>
    <path class="st0" d="M98.1,75.95c-5.4,2-10.7,4.2-15.8,6.8-1.4.7-2.8,1.4-4.1,2.2-.5.2-1.1.5-1.7.6-.4.1-.8.2-1.2.2h-1c-6.8-.5-13.4-.7-20.2-.5-1,0-1-.5,0-1.2,5.8-3.9,11.9-7.4,18.1-10.5.4-.2.9-.4,1.3-.6,1-.5,2.6-.8,3.6-.7,7.1.6,13.8,1.5,20.7,2.7,1.2.2,1.3.6.3,1"/>
    <path class="st1" d="M177.1,83.55c-6.4-.7-9.6-.9-15.8-.9-.8,0-2.5-.6-3.6-1.3-1.4-.9-2.9-1.7-4.4-2.4-5.8-3.2-11.9-5.9-18-8.5-1.1-.4-1.3-.9-.4-1,1-.1,2-.2,2.8-.3,4.8-.5,8-.7,13.7-.7.8,0,2.3.4,3.4,1,7.5,3.9,14.6,8.1,21.7,12.8,1.1.8,1.4,1.4.6,1.3"/>
    <path class="st1" d="M206.4,109.15c-6.5-7.5-13.8-14.4-21.5-20.6-1.1-.9-2.6-1.7-3.4-1.8-6.4-.8-9.5-1-15.7-1.2-.8,0-.6.6.6,1.4,8.1,5.6,15.8,11.8,22.7,18.8,1.1,1.1,2.7,2.2,3.5,2.3,5.7.9,8.6,1.4,14.5,3,.7.2.4-.6-.7-1.9"/>
    <path class="st1" d="M154.9,82.85c-6,.2-12.1.9-18,1.9-1,.2-2.7-.2-3.9-.7-1.1-.5-2.1-1-3.2-1.4-6.4-2.8-13-5.1-19.7-7-1.1-.3-1.3-.8-.3-1.1,6-1.8,12.3-3.2,18.4-4.1.9-.1,2.5.1,3.7.5,4.4,1.7,8.6,3.5,12.8,5.5h0c3.3,1.6,6.5,3.3,9.6,5.1,1.2.7,1.4,1.3.6,1.3"/>
    <path class="st1" d="M163.1,86.95c-1.2-.8-2.8-1.4-3.7-1.3-5.9.1-12.1.6-17.9,1.5-1,.1-.8.8.4,1.4,8.4,4.7,16.4,10.1,23.7,16.3,1.2,1,2.9,1.9,3.8,1.8,5.6-.2,11.5,0,17.1.6.8.1.5-.8-.6-1.9-6.9-6.8-14.6-12.9-22.8-18.4"/>
    <path class="st1" d="M69.7,72.75c-1.9.9-3.7,1.9-5.6,2.9-4.7,2.6-9.3,5.5-13.8,8.6-1,.7-2.6,1.3-3.5,1.4-5.8.5-11.8,1.4-17.5,2.7-.8.2-.8-.3.2-1.1,5.9-4.9,12-9.4,18.5-13.4.9-.6,2.4-1.1,3.3-1.2,4.4-.5,8.9-.7,13.4-.8h4.9c1,0,1,.4.1.9"/>
    <path class="st1" d="M129.5,86.25c-3.4.9-6.6,1.8-9.9,2.8-1.8.5-3.6,1.1-5.4,1.8-1.6.5-3.2,1.1-4.8,1.7-1,.4-2.9.4-4.1,0-.1,0-.2-.1-.3-.1-1.1-.4-2.2-.7-3.3-1.1-2.1-.7-4.3-1.3-6.4-1.8-2.5-.6-5-1.2-7.5-1.7-1.8-.3-3.5-.7-5.3-.9-1.1-.2-1.2-.8-.1-1.3,1-.5,2-1.1,3.1-1.6,5.5-2.7,11.1-5,16.9-7,1-.3,2.7-.4,3.8-.1,6.4,1.7,12.6,3.7,18.7,6.2,1.4.6,2.8,1.2,4.2,1.8,1.3.4,1.4,1,.4,1.3"/>
    <path class="st1" d="M162.4,107.15c-6.8.8-13,1.9-19.7,3.4-1,.3-2.9-.2-4.1-1.1-5.3-3.6-10.6-6.7-16.1-9.6-1.3-.7-2.7-1.4-4-2s-2.6-1.3-4-1.9c-1.2-.5-1.4-1.3-.3-1.7.7-.2,1.3-.4,2-.7,1.4-.5,2.8-.9,4.2-1.4,4.5-1.4,9.1-2.6,13.8-3.8,1-.2,2.8.1,4,.8,8.4,4.5,16.5,9.8,23.8,16,1.2,1,1.4,1.9.4,2"/>
    <path class="st1" d="M42.9,89.85c1-.8,1-1.3.1-1.2-5.8.6-11.6,1.6-17.3,3-.8.2-2.3,1.1-3.2,1.9-6.4,6.4-12.3,12.9-17.8,20-.9,1.2-1,1.9-.2,1.6,6.5-2.4,9.7-3.4,16-4.9.9-.2,2.3-1.2,3.3-2.3,6.1-6.6,12.3-12.5,19.1-18.1"/>
    <path class="st1" d="M70.3,88.15c-6.8-.4-13.3-.4-20.1-.2-1,.1-2.6.7-3.6,1.5-6.9,5.5-13.2,11.3-19.3,17.7-1,1.1-1,1.8-.1,1.6,6.4-1,12.7-1.9,19.1-2,1,0,2.7-.8,3.7-1.8,6.5-5.7,13.1-10.8,20.3-15.5,1.1-.6,1.1-1.2,0-1.3"/>
    <path class="st1" d="M101.5,95.95c-6,3.1-11.8,6.3-17.3,10.1-.5.3-1,.7-1.5,1.1-.7.5-1.5,1.1-2.2,1.6-1.1.8-2.9,1.2-4.1,1-7.3-1.6-14.7-2.6-22.2-2.8-1.1,0-1.1-.8-.1-1.7,6.3-5.7,13.2-10.5,20.4-15.1,1-.6,2.8-1,3.9-.9,3,.4,6.1.9,9,1.6,1.6.3,3.2.7,4.8,1.1,3,.7,6,1.6,8.9,2.5,1.4.2,1.5,1,.4,1.5"/>
    <path class="st1" d="M134.9,112.95c-7.5,2.6-14.6,6-21.3,10.1-1.1.7-2.9.6-4.2-.1-7.8-4.5-15.5-7.9-24-10.9-1.2-.4-1.3-1.3-.3-2.1,5.8-4.2,11.9-7.9,18.4-11.1.1-.1.2-.1.4-.2.8-.4,1.5-.8,2.3-1.1,1.1-.5,2.9-.5,4.2,0,3.8,1.7,7.4,3.4,10.9,5.3.8.4,1.7.9,2.5,1.3,3.7,2,7.2,4.2,10.8,6.5,1.2,1,1.3,2,.3,2.3"/>
  </g>
  <g>
    <path class="st1" d="M681.14,27.42l-3.58-6.21h-1.94v6.21h-2.55v-15.53h5.36c1.19,0,2.2.21,3.03.63.83.42,1.44.98,1.85,1.68.41.7.61,1.48.61,2.35,0,1.01-.29,1.93-.88,2.76-.59.83-1.49,1.39-2.71,1.69l3.84,6.43h-3.04ZM675.63,19.17h2.81c.95,0,1.67-.24,2.16-.72.48-.48.73-1.12.73-1.92s-.24-1.43-.72-1.89c-.48-.45-1.2-.68-2.17-.68h-2.81v5.21Z"/>
    <path class="st1" d="M677.82,36.9c-9.38,0-17.02-7.63-17.02-17.02s7.63-17.02,17.02-17.02,17.02,7.63,17.02,17.02-7.63,17.02-17.02,17.02ZM677.82,5.47c-7.95,0-14.42,6.47-14.42,14.42s6.47,14.42,14.42,14.42,14.42-6.47,14.42-14.42-6.47-14.42-14.42-14.42Z"/>
  </g>
</svg>