<?xml version="1.0" encoding="utf-8"?>
<!-- Generator: Adobe Illustrator 26.0.1, SVG Export Plug-In . SVG Version: 6.00 Build 0)  -->
<svg version="1.1" id="Layer_1" xmlns="http://www.w3.org/2000/svg" xmlns:xlink="http://www.w3.org/1999/xlink" x="0px" y="0px"
	 viewBox="0 0 502.7 109" style="enable-background:new 0 0 502.7 109;" xml:space="preserve">
<style type="text/css">
	.st0{fill:#060E22;}
	.st1{fill:none;stroke:#000000;stroke-miterlimit:10;}
	.st2{fill:#8EC239;}
	.st3{fill:#154A8C;}
	.st4{fill:#D7272E;}
	.st5{fill:#FFFFFF;}
	.st6{fill:url(#SVGID_1_);}
	.st7{fill:#53E2FF;}
	.st8{fill:url(#SVGID_00000016059373913465141810000000132850558248323237_);}
	.st9{fill:url(#SVGID_00000124151057237055379710000010435137713308692392_);}
	.st10{fill:url(#SVGID_00000023990813353671225890000002003911776311571624_);}
	.st11{fill:url(#SVGID_00000091721475082268903620000016679560973042481330_);}
	.st12{fill:#13DEEC;}
	.st13{fill:#F8FC0E;}
	.st14{fill:#31363E;}
	.st15{fill:#03E3B7;}
	.st16{fill:#805CEA;}
</style>
<g>
	<g>
		<g>
			<path class="st3" d="M126.4,35.4h-13.1V28h38.9v7.4h-16.7v41.9h-9.1V35.4z"/>
			<path class="st3" d="M184.7,28v7.4h-5c-2.3,0-4.1,0.1-5.5,0.4c-1.4,0.3-2.6,0.7-3.7,1.4c-1.8,1-3,2.4-3.8,4.2s-1.3,4.3-1.5,7.6
				h28.7v7.4h-28.7c0,3.5,0.9,6.4,2.5,8.9c2.1,3.2,6.1,4.7,12.1,4.7h14.1v7.4h-15.1c-3.7,0-7-0.4-9.9-1.1c-5.4-1.3-9.3-5-11.7-10.9
				c-1.4-3.4-2.1-7.5-2.1-12.3c0-9.1,2.7-16,8.1-20.7c2.1-1.8,4.7-3,7.8-3.6c2-0.4,4.5-0.6,7.4-0.6H184.7z"/>
			<path class="st3" d="M197.4,77.4L217.8,28H229l20,49.3h-10.2l-4.9-12.2h-21.3l-5,12.2H197.4z M223.3,36.6L215,57.7h16.5
				L223.3,36.6z"/>
			<path class="st3" d="M267.6,28l14.5,39.5l14-39.5h13.3v49.3h-8.7V37.6l-14.2,39.7h-9.2L263,37.6v39.7h-8.7V28H267.6z"/>
			<path class="st2" d="M357,70v7.4h-16.2c-3.7,0-6.8-0.3-9.1-0.8c-5.6-1.3-9.6-4.7-12.1-10.2c-1.7-3.8-2.6-8.3-2.6-13.4
				c0-6.2,1.2-11.4,3.7-15.7c1.9-3.2,4.2-5.5,6.9-6.9c3.2-1.6,7.5-2.4,13.1-2.4H357v7.4h-15.4c-5.4,0-9.1,1.2-11.2,3.7
				c-2.3,2.7-3.5,7.3-3.5,13.5c0,6.6,1.4,11.4,4.2,14.1c1.4,1.4,3.3,2.3,5.6,2.8c1.3,0.3,3.1,0.4,5.4,0.4H357z"/>
			<path class="st2" d="M384.1,27.5c7.9,0,13.8,2.1,17.7,6.3c3.9,4.2,5.9,10.6,5.9,19c0,9-2.3,15.6-7,19.7c-4.1,3.6-9.8,5.4-17,5.4
				c-5.3,0-9.8-1-13.5-2.9c-4.2-2.1-7.2-5.6-8.9-10.6c-1.2-3.5-1.8-7.3-1.8-11.6c0-4.1,0.5-7.8,1.6-11.1c1.1-3.3,2.6-5.9,4.6-7.9
				C369.9,29.6,376.1,27.5,384.1,27.5z M383.6,34.7c-3.4,0-6.3,0.8-8.7,2.3c-3.7,2.5-5.6,7.6-5.6,15.5c0,6,1,10.5,3.1,13.4
				c2.2,3.2,6,4.8,11.3,4.8c6,0,10.1-2.1,12.2-6.4c1.3-2.7,2-6.6,2-11.6c0-5.7-0.9-9.9-2.6-12.6C393,36.5,389.1,34.7,383.6,34.7z"/>
			<path class="st2" d="M428.5,28L443,67.5L457,28h13.3v49.3h-8.7V37.6l-14.2,39.7h-9.2l-14.2-39.7v39.7h-8.7V28H428.5z"/>
		</g>
		<g>
			<path class="st3" d="M479.9,13.4H477v-1.3h7.4v1.3h-2.9v7.4h-1.6V13.4z"/>
			<path class="st3" d="M487.7,12.1l2.5,6.9l2.5-6.9h2.3v8.7h-1.5v-7l-2.5,7h-1.6l-2.5-7v7h-1.5v-8.7H487.7z"/>
		</g>
	</g>
	<g>
		<g>
			<g>
				<path class="st2" d="M55.3,39.1L29.7,21.7l3.1-2.8c3-2.7,7.6-2.3,10,0.9L55.3,36l0,0l12.5-16.2c2.4-3.2,7-3.6,10-0.9l3.1,2.8
					L55.3,39.1L55.3,39.1z"/>
			</g>
			<circle class="st2" cx="55.3" cy="14.3" r="7.4"/>
		</g>
		<g>
			<g>
				<path class="st4" d="M55.3,69.9l25.5,17.4L77.8,90c-3,2.7-7.6,2.3-10-0.9L55.3,73l0,0L42.8,89.1c-2.4,3.2-7,3.6-10,0.9l-3.1-2.8
					L55.3,69.9L55.3,69.9z"/>
			</g>
			<circle class="st4" cx="55.3" cy="94.6" r="7.4"/>
		</g>
		<g>
			<g>
				<path class="st3" d="M39.9,54.5L22.5,80l-2.8-3.1c-2.7-3-2.3-7.6,0.9-10l16.2-12.5l0,0L20.6,42c-3.2-2.4-3.6-7-0.9-10l2.8-3.1
					L39.9,54.5L39.9,54.5z"/>
			</g>
			<circle class="st3" cx="15.1" cy="54.5" r="7.4"/>
		</g>
		<g>
			<g>
				<path class="st3" d="M70.7,54.5l17.4-25.5l2.8,3.1c2.7,3,2.3,7.6-0.9,10L73.8,54.5l0,0L90,67c3.2,2.4,3.6,7,0.9,10L88.1,80
					L70.7,54.5L70.7,54.5z"/>
			</g>
			<circle class="st3" cx="95.5" cy="54.5" r="7.4"/>
		</g>
	</g>
</g>
</svg>
