<svg width="165" height="41" viewBox="0 0 165 41" fill="none" xmlns="http://www.w3.org/2000/svg">
<path d="M21.6846 10.3821V15.316H24.4193V18.9545H21.6846V23.5486C21.6846 24.1008 21.7365 24.4665 21.8426 24.6458C22.0055 24.9219 22.291 25.0611 22.6968 25.0611C23.0626 25.0611 23.577 24.955 24.2353 24.745L24.601 28.1758C23.3717 28.4448 22.2225 28.5793 21.156 28.5793C19.9196 28.5793 19.0064 28.4212 18.4212 28.1027C17.8361 27.7865 17.4019 27.3051 17.1211 26.6586C16.8403 26.0121 16.6987 24.9644 16.6987 23.518V18.9545H14.8677V15.316H16.6987V12.9328L21.6846 10.3821Z" fill="#041320"/>
<path d="M41.1891 23.034H31.2245C31.3142 23.8316 31.5289 24.4262 31.871 24.8179C32.3524 25.3795 32.9777 25.6603 33.7516 25.6603C34.2401 25.6603 34.7049 25.5376 35.1438 25.2945C35.4128 25.1412 35.7007 24.8674 36.0098 24.4757L40.9083 24.9264C40.1579 26.2289 39.2542 27.1633 38.1971 27.7296C37.1377 28.2959 35.6204 28.5791 33.6407 28.5791C31.9229 28.5791 30.5709 28.336 29.5869 27.8523C28.603 27.3686 27.7866 26.5994 27.1377 25.5446C26.4912 24.4899 26.1655 23.2511 26.1655 21.8259C26.1655 19.799 26.8144 18.1591 28.1146 16.9038C29.4123 15.6508 31.2056 15.0232 33.4944 15.0232C35.3514 15.0232 36.8168 15.304 37.8904 15.8656C38.964 16.4272 39.7828 17.2412 40.3444 18.3078C40.9059 19.3743 41.1867 20.7617 41.1867 22.4724V23.034H41.1891ZM36.1325 20.6508C36.0357 19.6905 35.7762 19.0015 35.3562 18.5862C34.9362 18.1709 34.3864 17.9633 33.7021 17.9633C32.9116 17.9633 32.2816 18.2771 31.8097 18.9047C31.5077 19.2964 31.3165 19.8769 31.2363 20.6508H36.1325Z" fill="#041320"/>
<path d="M48.0026 19.5159L43.2527 19.0156C43.432 18.1851 43.6892 17.5314 44.029 17.0548C44.3664 16.5782 44.8525 16.1652 45.4896 15.816C45.945 15.5635 46.5727 15.3677 47.3702 15.2308C48.1677 15.0916 49.0314 15.0232 49.9587 15.0232C51.4476 15.0232 52.6463 15.1058 53.55 15.2733C54.4537 15.4408 55.2064 15.7877 55.8105 16.3186C56.2328 16.6844 56.5679 17.2035 56.811 17.8759C57.0563 18.5484 57.1767 19.1879 57.1767 19.799V25.5258C57.1767 26.1369 57.2144 26.6159 57.2923 26.9604C57.3702 27.3049 57.5377 27.7485 57.7996 28.2865H53.1347C52.9483 27.9538 52.8256 27.699 52.769 27.5243C52.7123 27.3497 52.6557 27.0737 52.5991 26.7008C51.9478 27.3285 51.3013 27.7745 50.6571 28.0435C49.777 28.4021 48.7553 28.5814 47.592 28.5814C46.0441 28.5814 44.8714 28.2228 44.0691 27.5078C43.2669 26.7929 42.8657 25.908 42.8657 24.858C42.8657 23.874 43.1536 23.0623 43.7317 22.4276C44.3098 21.7929 45.3763 21.321 46.9313 21.0119C48.7954 20.6367 50.0059 20.3748 50.558 20.2237C51.1125 20.0727 51.6977 19.8745 52.3159 19.6315C52.3159 19.0204 52.1885 18.5933 51.936 18.3502C51.6835 18.1072 51.2399 17.9845 50.6052 17.9845C49.7911 17.9845 49.18 18.1143 48.7742 18.3762C48.4533 18.572 48.1984 18.9543 48.0026 19.5159ZM52.3136 22.1303C51.6293 22.3757 50.9167 22.5904 50.1758 22.7768C49.1658 23.0458 48.5264 23.3101 48.2598 23.572C47.9837 23.841 47.8445 24.1454 47.8445 24.4875C47.8445 24.8792 47.9813 25.1978 48.2527 25.4455C48.524 25.6933 48.9275 25.8184 49.4561 25.8184C50.0106 25.8184 50.525 25.6839 51.0016 25.4149C51.4783 25.1459 51.8157 24.8179 52.0139 24.4309C52.2121 24.0439 52.3136 23.5413 52.3136 22.9231V22.1303Z" fill="#041320"/>
<path d="M60.1904 15.3158H64.8318V17.2082C65.4995 16.4177 66.1744 15.8561 66.8563 15.5234C67.5382 15.1907 68.3594 15.0232 69.3221 15.0232C70.3579 15.0232 71.1767 15.2072 71.7808 15.573C72.3848 15.9387 72.878 16.4861 73.2602 17.2105C74.0413 16.3634 74.7515 15.7877 75.3957 15.4833C76.0375 15.1789 76.8303 15.0256 77.7742 15.0256C79.164 15.0256 80.2494 15.4385 81.0304 16.2643C81.8114 17.0902 82.2008 18.3833 82.2008 20.1412V28.2865H77.2173V20.8962C77.2173 20.3111 77.104 19.8745 76.8775 19.589C76.5448 19.1407 76.1319 18.9165 75.6364 18.9165C75.0512 18.9165 74.5816 19.1289 74.2253 19.5513C73.869 19.9736 73.6897 20.6556 73.6897 21.59V28.2818H68.7062V21.1393C68.7062 20.5682 68.6732 20.1836 68.6071 19.9783C68.5009 19.6527 68.3169 19.3908 68.055 19.1902C67.7931 18.9897 67.4863 18.8906 67.1371 18.8906C66.5661 18.8906 66.0941 19.1077 65.7284 19.5371C65.3603 19.9689 65.1763 20.6768 65.1763 21.6631V28.2818H60.1928V15.3158H60.1904Z" fill="#041320"/>
<path d="M16.5101 32.1164L14.4927 39.6388C6.26709 37.2107 0.228881 29.7048 0 20.7478H7.78903C8.01084 26.1041 11.6069 30.5803 16.5101 32.1164Z" fill="#4052B6"/>
<path d="M34.1673 34.9031C30.5358 38.3528 25.6326 40.4646 20.2315 40.4646C18.6034 40.4646 17.0201 40.2735 15.5005 39.9054L17.5132 32.383H17.5179C18.3886 32.5812 19.2971 32.685 20.2315 32.685C23.4806 32.685 26.4372 31.4392 28.6576 29.3958L34.1673 34.9031Z" fill="#FB9D00"/>
<path d="M37.4913 9.66019L30.7405 13.563C28.6239 10.2218 24.9547 7.95892 20.7476 7.78903V0C27.8311 0.181689 34.0156 3.99952 37.4913 9.66019Z" fill="#FD5621"/>
<path d="M19.7116 0V7.78903C17.824 7.8669 16.0425 8.36478 14.4615 9.20008L10.5635 2.44454C13.2935 0.960357 16.4058 0.0825859 19.7116 0Z" fill="#02A8F4"/>
<path d="M13.563 9.71932C10.2218 11.8359 7.95892 15.5027 7.78903 19.7122H0C0.181689 12.6311 3.99952 6.44419 9.66019 2.96851L13.563 9.71932Z" fill="#FFEB3C"/>
<path d="M94.8394 23.2043L99.5656 23.7423C99.3061 24.7286 98.8766 25.5804 98.2844 26.3001C97.6898 27.0198 96.93 27.5814 96.0074 27.9802C95.0824 28.3789 93.9097 28.5795 92.4845 28.5795C91.1088 28.5795 89.9621 28.4521 89.0465 28.1949C88.131 27.9377 87.3429 27.5248 86.6846 26.949C86.0263 26.3756 85.5071 25.7031 85.1343 24.9292C84.7615 24.1552 84.5728 23.1312 84.5728 21.8546C84.5728 20.5215 84.8016 19.4101 85.257 18.5229C85.5897 17.8716 86.0475 17.2888 86.6256 16.7721C87.2037 16.2553 87.7983 15.8707 88.4095 15.6182C89.3793 15.2194 90.6204 15.0212 92.1353 15.0212C94.2518 15.0212 95.8658 15.3988 96.9772 16.1562C98.0885 16.9136 98.8672 18.0203 99.3155 19.4785L94.6388 20.1015C94.4925 19.547 94.2259 19.1293 93.8389 18.8509C93.4519 18.5701 92.9328 18.4285 92.2816 18.4285C91.4581 18.4285 90.7927 18.7234 90.2853 19.3133C89.778 19.9032 89.5232 20.7952 89.5232 21.9891C89.5232 23.0533 89.7757 23.8627 90.2806 24.4148C90.7856 24.9669 91.4297 25.243 92.2108 25.243C92.862 25.243 93.4094 25.0755 93.8531 24.7428C94.2967 24.4101 94.6199 23.898 94.8394 23.2043Z" fill="#041320"/>
<path d="M101.372 10.3821H106.356V28.2867H101.372V10.3821Z" fill="#041320"/>
<path d="M108.921 21.8358C108.921 19.8584 109.589 18.2279 110.924 16.9443C112.26 15.6607 114.062 15.0212 116.335 15.0212C118.933 15.0212 120.893 15.774 122.222 17.2817C123.288 18.4946 123.822 19.9882 123.822 21.765C123.822 23.7588 123.161 25.394 121.837 26.6682C120.514 27.9424 118.685 28.5795 116.347 28.5795C114.263 28.5795 112.576 28.0509 111.29 26.9915C109.709 25.6795 108.921 23.9618 108.921 21.8358ZM113.902 21.824C113.902 22.9802 114.136 23.8343 114.605 24.3888C115.072 24.9434 115.662 25.2194 116.37 25.2194C117.087 25.2194 117.675 24.9481 118.135 24.4006C118.595 23.8556 118.824 22.9802 118.824 21.7744C118.824 20.6512 118.593 19.8136 118.128 19.2638C117.663 18.714 117.09 18.4403 116.406 18.4403C115.681 18.4403 115.082 18.7187 114.61 19.2756C114.138 19.8372 113.902 20.6843 113.902 21.824Z" fill="#041320"/>
<path d="M135.887 23.2043L140.613 23.7423C140.351 24.7286 139.924 25.5804 139.329 26.3001C138.735 27.0198 137.975 27.5814 137.052 27.9802C136.127 28.3789 134.955 28.5795 133.529 28.5795C132.154 28.5795 131.007 28.4521 130.091 28.1949C129.176 27.9377 128.388 27.5248 127.727 26.949C127.069 26.3756 126.55 25.7031 126.177 24.9292C125.802 24.1552 125.615 23.1312 125.615 21.8546C125.615 20.5215 125.842 19.4101 126.3 18.5229C126.632 17.8716 127.09 17.2888 127.668 16.7721C128.246 16.2553 128.841 15.8707 129.452 15.6182C130.422 15.2194 131.663 15.0212 133.178 15.0212C135.294 15.0212 136.908 15.3988 138.02 16.1562C139.131 16.9136 139.91 18.0203 140.358 19.4785L135.681 20.1015C135.535 19.547 135.268 19.1293 134.881 18.8509C134.494 18.5701 133.975 18.4285 133.324 18.4285C132.503 18.4285 131.835 18.7234 131.328 19.3133C130.818 19.9032 130.563 20.7952 130.563 21.9891C130.563 23.0533 130.816 23.8627 131.321 24.4148C131.826 24.9669 132.47 25.243 133.251 25.243C133.902 25.243 134.45 25.0755 134.893 24.7428C135.334 24.4101 135.667 23.898 135.887 23.2043Z" fill="#041320"/>
<path d="M142.47 10.3821H147.55V19.6246L151.262 15.316H157.38L152.727 19.8582L157.649 28.2844H152.05L149.423 23.0838L147.55 24.9125V28.2844H142.47V10.3821Z" fill="#041320"/>
<path d="M158.751 10.3821V7.29342H157.649V6.66577H160.601V7.29342H159.502V10.3821H158.751Z" fill="#2C3A58"/>
<path d="M161.18 10.3821V6.66577H162.303L162.978 9.19998L163.645 6.66577H164.771V10.3821H164.075V7.45624L163.334 10.3821H162.612L161.876 7.45624V10.3821H161.18Z" fill="#2C3A58"/>
</svg>
