<svg width="24" height="24" viewBox="0 0 24 24" fill="none" xmlns="http://www.w3.org/2000/svg">
<path d="M18.8983 3H5C3.89543 3 3 3.89543 3 5V15.8454C3 16.95 3.89543 17.8454 5 17.8454H18.8983C20.0029 17.8454 20.8983 16.95 20.8983 15.8454V5C20.8983 3.89543 20.0029 3 18.8983 3Z" stroke="black" stroke-width="1.5"/>
<path d="M6.91602 20.9999C9.15331 20.8143 9.46404 18.8968 9.33975 18.0308H14.7465C14.4482 19.2184 15.1194 20.8143 16.9838 20.9999H6.91602Z" stroke="black" stroke-width="1.5" stroke-linejoin="round"/>
<path d="M7.25248 14.2541L10.0447 11.4618C10.1563 11.3502 10.2881 11.2951 10.4399 11.2966C10.5918 11.298 10.7236 11.3569 10.8352 11.4733C10.9389 11.5865 10.9908 11.7187 10.9908 11.8698C10.9908 12.0208 10.9389 12.1521 10.8352 12.2636L7.74579 15.3646C7.61016 15.5001 7.45198 15.5679 7.27123 15.5679C7.09048 15.5679 6.93229 15.5001 6.79666 15.3646L5.26348 13.8314C5.15973 13.7276 5.10904 13.597 5.11141 13.4398C5.11379 13.2826 5.16691 13.1521 5.27079 13.0483C5.37466 12.9444 5.5056 12.8924 5.6636 12.8924C5.8216 12.8924 5.95173 12.9444 6.05398 13.0483L7.25248 14.2541ZM7.25248 8.54243L10.0447 5.75018C10.1563 5.63868 10.2881 5.58362 10.4399 5.58499C10.5918 5.58649 10.7236 5.64543 10.8352 5.76181C10.9389 5.87506 10.9908 6.00718 10.9908 6.15818C10.9908 6.30931 10.9389 6.44062 10.8352 6.55212L7.74579 9.65299C7.61016 9.78862 7.45198 9.85643 7.27123 9.85643C7.09048 9.85643 6.93229 9.78862 6.79666 9.65299L5.26348 8.11981C5.15973 8.01606 5.10904 7.88556 5.11141 7.72831C5.11379 7.57106 5.16691 7.44056 5.27079 7.33681C5.37466 7.23293 5.5056 7.18099 5.6636 7.18099C5.8216 7.18099 5.95173 7.23293 6.05398 7.33681L7.25248 8.54243ZM13.3201 14.4185C13.1607 14.4185 13.0272 14.3646 12.9194 14.2567C12.8116 14.1488 12.7576 14.0151 12.7576 13.8556C12.7576 13.6963 12.8116 13.5627 12.9194 13.4549C13.0272 13.3473 13.1607 13.2935 13.3201 13.2935H18.5701C18.7295 13.2935 18.8631 13.3474 18.971 13.4553C19.0787 13.5632 19.1326 13.6968 19.1326 13.8562C19.1326 14.0157 19.0787 14.1493 18.971 14.2569C18.8631 14.3646 18.7295 14.4185 18.5701 14.4185H13.3201ZM13.3201 8.70687C13.1607 8.70687 13.0272 8.65293 12.9194 8.54506C12.8116 8.43718 12.7576 8.30356 12.7576 8.14418C12.7576 7.98468 12.8116 7.85112 12.9194 7.74349C13.0272 7.63574 13.1607 7.58187 13.3201 7.58187H18.5701C18.7295 7.58187 18.8631 7.63581 18.971 7.74368C19.0787 7.85156 19.1326 7.98524 19.1326 8.14474C19.1326 8.30412 19.0787 8.43768 18.971 8.54543C18.8631 8.65306 18.7295 8.70687 18.5701 8.70687H13.3201Z" fill="black"/>
</svg>
