<svg width="24" height="24" viewBox="0 0 24 24" fill="none" xmlns="http://www.w3.org/2000/svg">
<g clip-path="url(#clip0_7381_90)">
<mask id="mask0_7381_90" style="mask-type:luminance" maskUnits="userSpaceOnUse" x="0" y="0" width="24" height="24">
<path d="M24 0H0V24H24V0Z" fill="white"/>
</mask>
<g mask="url(#mask0_7381_90)">
<path d="M12.1641 13.459C12.6098 13.459 12.8862 13.4509 13.0723 13.4004C13.1692 13.3741 13.2461 13.3349 13.3115 13.2783C13.3434 13.2507 13.3718 13.2201 13.3975 13.1865L13.4688 13.0771L13.4697 13.0762L13.5049 13.0059C13.5155 12.9798 13.5253 12.9502 13.5332 12.9131C13.548 12.8433 13.5573 12.7479 13.5635 12.6016C13.5759 12.3082 13.5762 11.7852 13.5762 10.791C13.5762 9.78933 13.5753 9.26581 13.5635 8.98535C13.5576 8.84725 13.5494 8.75923 13.5342 8.7002C13.5262 8.66926 13.5151 8.64137 13.499 8.61719C13.4824 8.5923 13.4636 8.57567 13.4492 8.56445L13.4453 8.56152C13.3602 8.50163 13.2642 8.47712 13.1348 8.48242C13.0724 8.48501 13.0003 8.4955 12.916 8.51172L12.6221 8.58008C12.2904 8.6658 12.0014 8.67171 11.7383 8.60059C11.4751 8.52935 11.2296 8.37804 10.9883 8.13672C10.7942 7.94262 10.6719 7.77741 10.5967 7.59961C10.5216 7.42204 10.4896 7.22416 10.4873 6.95996C10.4873 6.79705 10.4926 6.7009 10.5107 6.61426C10.5287 6.52834 10.5606 6.44636 10.623 6.31445L10.7021 6.16113C10.8948 5.81956 11.1479 5.58372 11.4531 5.4502C11.7592 5.31638 12.1267 5.28144 12.5537 5.35547L12.7412 5.39453C12.9445 5.44479 13.0691 5.47411 13.1553 5.47949C13.202 5.4824 13.2437 5.47947 13.2842 5.46582C13.3231 5.45265 13.3551 5.43204 13.3838 5.41211C13.4401 5.3744 13.4864 5.32675 13.5195 5.23926C13.5498 5.1593 13.5679 5.04825 13.5791 4.88574C13.5904 4.72208 13.5954 4.49563 13.5967 4.17871L13.5908 2.92871C13.5838 1.91902 13.5787 1.40033 13.5352 1.1123C13.513 0.966006 13.4794 0.864617 13.4199 0.786133C13.3619 0.709556 13.285 0.665035 13.21 0.619141L13.2109 0.618164C13.1276 0.566426 13.0519 0.539458 12.9023 0.525391C12.7595 0.511961 12.5396 0.509766 12.1641 0.509766C11.8267 0.509766 11.6053 0.514319 11.4521 0.526367C11.299 0.538423 11.2048 0.558272 11.1279 0.59375L11.125 0.594727C11.0518 0.631952 10.9846 0.671736 10.9297 0.726562C10.8726 0.783537 10.8336 0.851968 10.8066 0.941406C10.7811 1.02599 10.7655 1.13414 10.7539 1.27637L10.7285 1.81543L10.7061 2.56348L10.376 2.70703L10.0479 2.84863L9.54883 2.35254C9.34178 2.149 9.17219 1.99094 9.02441 1.88281C8.87654 1.77462 8.73881 1.70727 8.59277 1.70215C8.44543 1.69698 8.30845 1.75483 8.16504 1.85449C8.0938 1.904 8.01852 1.96605 7.93652 2.03906L7.66895 2.29102C7.35817 2.59478 7.16413 2.79757 7.04785 2.95508C6.92787 3.11762 6.88477 3.24112 6.88477 3.38477C6.88478 3.45623 6.8893 3.52357 6.90918 3.59277C6.92924 3.66246 6.96343 3.72895 7.01367 3.80176C7.11145 3.94341 7.28149 4.12073 7.56543 4.40234L8.0293 4.86328L7.9541 5.0127C7.89188 5.13267 7.81382 5.31197 7.7832 5.41895L7.75 5.51758L7.03809 5.53418C6.70015 5.54117 6.49495 5.54862 6.35645 5.56445C6.21279 5.58091 6.13297 5.60759 6.04883 5.65527L6.04688 5.65625C5.97061 5.70177 5.90266 5.74976 5.84766 5.81348C5.79166 5.87838 5.75321 5.9547 5.72656 6.05078C5.67535 6.23579 5.66602 6.50996 5.66602 6.95117C5.66602 7.37433 5.67235 7.63551 5.70996 7.81641C5.72933 7.90939 5.7575 7.98514 5.79883 8.05273C5.8399 8.11978 5.89166 8.17492 5.95117 8.22949L5.95215 8.23145L6.00293 8.27344C6.02088 8.28707 6.04095 8.30013 6.06348 8.31152C6.10941 8.33468 6.16137 8.3481 6.22852 8.35742C6.35854 8.37544 6.57371 8.38074 6.97266 8.3877L7.73535 8.40527L7.86621 8.74121L8.00098 9.08398L7.55566 9.53418C7.25645 9.83803 7.08664 10.0144 6.99512 10.1514C6.94752 10.2227 6.9185 10.2871 6.90234 10.3564C6.88662 10.424 6.88477 10.4919 6.88477 10.5654V10.8418L7.56055 11.5176C7.84923 11.8109 8.01984 11.9796 8.14062 12.0771C8.20205 12.1267 8.25472 12.1611 8.30664 12.1846C8.35971 12.2085 8.40782 12.2189 8.45703 12.2256L8.64844 12.2344L8.81348 12.2197L8.81934 12.2188L8.88184 12.1904C8.90067 12.1792 8.92183 12.1647 8.94434 12.1484C8.9896 12.1157 9.04455 12.0709 9.10645 12.0186C9.23042 11.9137 9.38472 11.773 9.54297 11.6172L10.0498 11.123L10.3887 11.2539L10.7285 11.3887V12.0986C10.7285 12.4612 10.7293 12.6656 10.7441 12.7969C10.7518 12.8643 10.7631 12.9174 10.7822 12.9658C10.8014 13.0142 10.8264 13.0534 10.8535 13.0928C10.9022 13.1668 10.9529 13.2314 11.0176 13.2842C11.084 13.3383 11.1603 13.3758 11.2568 13.4014C11.4431 13.4505 11.718 13.459 12.1641 13.459ZM12.1436 12.5L11.6758 12.4893L11.6641 11.7637C11.6617 11.5157 11.6598 11.3248 11.6504 11.1777C11.6411 11.032 11.6239 10.9178 11.5859 10.8281C11.5452 10.7321 11.4827 10.669 11.3975 10.6221C11.3186 10.5786 11.217 10.5471 11.1006 10.5117L11.0996 10.5127C11.0118 10.4856 10.8892 10.4383 10.7617 10.3857L10.3936 10.2227C10.2698 10.1631 10.1595 10.1163 10.0713 10.0869C10.0276 10.0724 9.98702 10.0608 9.95117 10.0547C9.91918 10.0493 9.87842 10.0468 9.84082 10.0576V10.0566L9.83887 10.0576L9.83789 10.0586C9.81404 10.0659 9.79146 10.0795 9.7793 10.0879C9.76232 10.0996 9.74231 10.1154 9.7207 10.1328C9.67731 10.1678 9.6216 10.2159 9.55859 10.2725C9.43195 10.3861 9.2703 10.5381 9.10352 10.7002L9.10254 10.7012L8.57812 11.2266L8.24121 10.8848L8.24023 10.8838L7.89844 10.5469L8.42871 10.0176L8.6582 9.78516C8.72482 9.71665 8.78227 9.65606 8.83008 9.60156C8.92498 9.49335 8.99206 9.39856 9.02441 9.30078C9.05861 9.19735 9.05071 9.1007 9.01758 8.99707C8.98602 8.89851 8.92903 8.78498 8.86035 8.64648L8.85938 8.64551C8.78335 8.4934 8.70012 8.29554 8.64648 8.14453L8.60449 8.0127C8.5724 7.89577 8.54289 7.79317 8.5 7.71289C8.45375 7.6265 8.39048 7.56286 8.29395 7.52148C8.20351 7.48278 8.08793 7.46595 7.94141 7.45703C7.79338 7.44804 7.60196 7.44727 7.35449 7.44727H6.61523V6.47461H7.37793C7.62966 6.47461 7.82219 6.47586 7.96875 6.46875C8.1135 6.46172 8.22681 6.44674 8.31543 6.40918C8.41132 6.36854 8.4715 6.30428 8.5166 6.21777C8.55809 6.13806 8.58957 6.03332 8.62695 5.91211L8.74902 5.57715C8.79964 5.45173 8.85654 5.32242 8.90723 5.21875C8.96926 5.09463 9.01418 4.98723 9.04199 4.90137C9.05587 4.85846 9.0661 4.81806 9.07129 4.7832C9.07597 4.75158 9.07867 4.71165 9.06641 4.6748L9.06445 4.66895C9.05666 4.64959 9.04326 4.62954 9.03418 4.61719C9.02262 4.60147 9.00764 4.5826 8.99023 4.56152C8.95531 4.51924 8.90721 4.46516 8.85059 4.40234C8.73703 4.27637 8.58479 4.11449 8.41992 3.94727L8.41895 3.94629L7.89844 3.42188L8.23633 3.08496L8.57812 2.74707L9.10742 3.27246L9.33789 3.49707C9.4064 3.56255 9.46751 3.61921 9.52246 3.66699C9.6313 3.7616 9.72447 3.82933 9.81348 3.86621C9.90786 3.90521 9.99501 3.90879 10.0859 3.88379C10.1283 3.87212 10.1714 3.8539 10.2158 3.83203L10.3535 3.75684L10.3545 3.75586L10.4678 3.69727C10.6097 3.62959 10.8266 3.53997 11.0195 3.46973H11.0205C11.2034 3.40641 11.3305 3.35599 11.4189 3.30859C11.5086 3.26052 11.569 3.20969 11.6055 3.14062L11.6279 3.08008C11.634 3.05788 11.6396 3.03417 11.6436 3.00977C11.652 2.95814 11.658 2.89317 11.6631 2.81543C11.6733 2.65986 11.6777 2.44532 11.6777 2.16602V1.45898H12.6035V4.35449L12.2471 4.35742C11.8309 4.35988 11.4792 4.41624 11.1611 4.54395C10.8424 4.67191 10.5628 4.86941 10.2881 5.14648C9.67564 5.75946 9.3915 6.66528 9.5625 7.48242L9.59961 7.62793C9.64506 7.77925 9.71508 7.94509 9.7959 8.10449C9.90382 8.31735 10.0358 8.52579 10.167 8.67676L10.2764 8.79297C10.8422 9.35791 11.7039 9.67343 12.4492 9.57227H12.4502L12.6035 9.55176V12.5117L12.1436 12.5Z" fill="black" stroke="black" stroke-width="0.2"/>
<path d="M14.7949 12.8732C15.435 13.3712 16.2699 13.3895 16.9395 12.8967H16.9385C17.0791 12.7944 17.2297 12.6289 17.3545 12.4553C17.478 12.2833 17.5837 12.0927 17.6309 11.9328L17.6631 11.8332L18.0127 11.8518L18.2939 11.8547C18.934 11.8313 19.4776 11.5904 19.9902 11.1076V11.1066L20.126 10.9709C20.4286 10.6465 20.648 10.2688 20.7998 9.80489H20.7988C20.8558 9.63854 20.8904 9.51909 20.9092 9.3713C20.9277 9.22584 20.9316 9.05571 20.9316 8.78926C20.9316 8.51825 20.9284 8.3484 20.9092 8.2043C20.8897 8.05817 20.8529 7.94111 20.7939 7.77364L20.7949 7.77266C20.6601 7.38077 20.4692 7.03146 20.2256 6.72969L20.1182 6.60372L19.9707 6.44063L20.0107 6.39376L20.0137 6.39083L20.0791 6.29903C20.1455 6.19536 20.2132 6.06056 20.2734 5.91915C20.3543 5.72927 20.4257 5.51816 20.4648 5.33712L20.5166 5.03731C20.5396 4.84643 20.5396 4.66873 20.5166 4.47676L20.4648 4.17403C20.1935 2.90553 19.1616 2.03887 17.9707 2.11251L17.7148 2.13008L17.7002 2.04805C17.6494 1.77734 17.5018 1.49193 17.3086 1.24825C17.1152 1.00443 16.8683 0.794886 16.6113 0.678909L16.6123 0.677933C16.4325 0.594417 16.2104 0.544409 15.9922 0.528519C15.7744 0.512659 15.552 0.53001 15.3721 0.589066C15.0594 0.688495 14.8203 0.844062 14.5713 1.10762L14.5703 1.1086C14.4446 1.24384 14.358 1.34851 14.2881 1.46602C14.2532 1.52466 14.2231 1.58549 14.1943 1.65352L14.1084 1.88497C14.0561 2.03939 14.0332 2.14617 14.0215 2.7795C14.0097 3.41409 14.0098 4.58994 14.0098 6.89083C14.0098 9.18695 14.0097 10.3625 14.0215 10.9982C14.0332 11.6328 14.056 11.7422 14.1084 11.8967L14.2119 12.1564C14.3214 12.3936 14.4559 12.5722 14.6699 12.7678L14.7949 12.8732ZM15.8389 12.2746C15.4496 12.2745 15.1305 12.0069 15.0078 11.5295C15.0074 11.5263 15.006 11.5191 15.0049 11.5061C15.0033 11.4881 15.0026 11.463 15.001 11.4318C14.9977 11.3696 14.9943 11.2831 14.9912 11.173C14.985 10.953 14.9786 10.6402 14.9736 10.2424C14.9637 9.44668 14.9574 8.31059 14.9551 6.89083L14.9492 4.47579C14.9492 3.86053 14.9514 3.4175 14.9561 3.09395C14.9655 2.44209 14.9853 2.28592 15.0156 2.18477L15.0488 2.09395C15.1384 1.88372 15.3194 1.68755 15.5381 1.57442H15.54L15.6025 1.54903C15.6755 1.52628 15.7766 1.51234 15.8867 1.51192C16.0321 1.5114 16.1702 1.53445 16.252 1.57247C16.3507 1.6203 16.4588 1.71308 16.5537 1.83321C16.6481 1.95276 16.7242 2.09248 16.7646 2.22579C16.9012 2.69932 16.7464 3.17503 16.2451 3.69454C16.0726 3.87641 15.9595 4.00381 15.8906 4.10762C15.8182 4.217 15.791 4.30685 15.791 4.41133C15.7911 4.50533 15.8205 4.58893 15.877 4.65352C15.9328 4.71717 16.0094 4.75638 16.0928 4.77364C16.2578 4.80766 16.4607 4.76031 16.6514 4.64083L16.7754 4.55294C17.0578 4.33265 17.3027 4.00013 17.5078 3.56954H17.5088C17.5685 3.44789 17.6311 3.33452 17.6865 3.24825C17.7142 3.20522 17.7395 3.16977 17.7607 3.14376C17.7711 3.13107 17.78 3.12145 17.7871 3.11446L17.7979 3.10469L17.8027 3.10176L17.8496 3.08126C17.871 3.0747 17.8983 3.06877 17.9316 3.06465C17.9953 3.05681 18.0725 3.05654 18.1562 3.06368C18.3252 3.07813 18.5089 3.12252 18.6455 3.18868L18.7471 3.24532C18.8524 3.31174 18.9677 3.40637 19.0752 3.51387C19.2183 3.65701 19.3391 3.81382 19.4004 3.94258L19.4688 4.10469C19.7678 4.92245 19.4199 5.90523 18.624 6.38301C18.2688 6.59612 17.8796 6.69258 17.292 6.69258C17.0782 6.69491 16.9402 6.69891 16.8428 6.71505C16.7636 6.72816 16.7082 6.74969 16.6572 6.78145L16.6074 6.81661C16.4672 6.92491 16.4111 7.07861 16.4531 7.22969C16.4936 7.37509 16.6186 7.49569 16.791 7.56465L16.8916 7.59883C17.1377 7.66745 17.4628 7.66775 17.7988 7.61934C18.0895 7.57744 18.3973 7.4978 18.6826 7.38497L18.959 7.26094L19.2656 7.10567L19.3877 7.22481L19.4678 7.31075C19.6496 7.52278 19.798 7.81699 19.8916 8.13985C19.9851 8.46256 20.0213 8.806 19.9873 9.11153L19.9688 9.23946C19.8704 9.76672 19.5615 10.2358 19.1689 10.5432C18.8245 10.8128 18.4253 10.9516 18.0557 10.9074L17.8994 10.8771C17.8103 10.8531 17.7823 10.8389 17.7676 10.8254C17.7555 10.8143 17.7426 10.7944 17.7217 10.718C17.7102 10.6719 17.6989 10.6253 17.6904 10.5881C17.6862 10.5695 17.6829 10.5539 17.6807 10.5422C17.6777 10.527 17.6777 10.5262 17.6777 10.5324C17.6776 10.5019 17.6678 10.4692 17.6592 10.4445C17.6492 10.416 17.6352 10.3829 17.6191 10.3478C17.5869 10.2775 17.543 10.1924 17.4941 10.1057C17.3976 9.93445 17.2764 9.74613 17.1855 9.63985L17.1865 9.63887C17.073 9.50265 16.9286 9.38597 16.7861 9.30587C16.6474 9.22793 16.494 9.17608 16.3662 9.19161C16.2495 9.2052 16.1484 9.28013 16.084 9.36641C16.0203 9.45177 15.9761 9.57006 16.0039 9.6838L16.0225 9.73262C16.0303 9.74917 16.0391 9.76561 16.0479 9.78047C16.0675 9.81366 16.0936 9.85253 16.123 9.89376C16.1819 9.97624 16.2584 10.0738 16.3398 10.1672L16.4688 10.3205C16.5839 10.4633 16.6602 10.578 16.71 10.6906C16.775 10.8381 16.7988 10.9887 16.7988 11.2033C16.7988 11.3925 16.781 11.5203 16.7383 11.6301C16.6957 11.7394 16.6242 11.8399 16.502 11.9689L16.4277 12.0432C16.2538 12.2024 16.0628 12.2746 15.8389 12.2746Z" fill="black" stroke="black" stroke-width="0.2"/>
<path d="M3.12702 23.4614C3.38043 23.4723 3.71715 23.3808 4.21784 23.2085L4.5235 23.0991C5.09276 22.8837 5.42212 22.6886 5.61139 22.435L5.6944 22.3032L5.69538 22.3022L5.75006 22.1655C5.76262 22.1203 5.76897 22.0747 5.76862 22.0278C5.76787 21.9345 5.73808 21.846 5.68952 21.7534L5.69049 21.7524L5.6651 21.7026L5.81452 21.6294L5.81549 21.6284L5.9776 21.5522C6.35729 21.3889 6.76181 21.3249 7.40631 21.3208L7.8692 21.3257C8.28878 21.3428 8.6541 21.4043 9.63678 21.5903L10.3047 21.7095C10.9274 21.8099 11.4279 21.8545 11.9004 21.8384C12.5319 21.8168 13.1088 21.6872 13.8584 21.4468L14.4405 21.2339C15.2987 20.9078 16.9001 20.2766 18.4737 19.6489C19.5239 19.23 20.5639 18.812 21.3663 18.4848C21.7675 18.3212 22.11 18.1805 22.3643 18.0737C22.6156 17.9682 22.7875 17.8927 22.8428 17.8628L22.9981 17.7739C23.7028 17.3463 24.0862 16.7726 24.0206 16.1499L23.9991 16.0161C23.8906 15.4744 23.5827 15.055 23.1358 14.8569C22.9866 14.7919 22.8455 14.7564 22.6397 14.7387L22.4092 14.727C22.1932 14.7197 22.0027 14.73 21.4131 14.8276C21.1185 14.8764 20.7224 14.9467 20.1719 15.0483L18.0049 15.4546L14.1748 16.1762L14.1573 15.9985C14.1135 15.5459 13.9854 15.2191 13.7247 14.9282H13.7237C13.4375 14.612 13.0638 14.4271 12.4717 14.2934H12.4707C11.1832 14.0125 10.0119 13.773 9.57135 13.7114L9.57233 13.7104C9.04458 13.6315 8.28406 13.6212 7.80378 13.6782L7.61628 13.7065C7.15936 13.7993 6.78513 13.909 6.12018 14.1616L5.34381 14.4663C4.84089 14.6675 4.36385 14.8475 3.99518 14.977C3.81085 15.0418 3.65403 15.0938 3.53522 15.1294C3.47614 15.147 3.42743 15.1606 3.38971 15.1694C3.38249 15.1711 3.37539 15.173 3.3692 15.1743C3.36435 15.1616 3.35913 15.1465 3.35456 15.1294L3.35358 15.1303C3.25466 14.726 2.85208 14.478 2.38092 14.478C2.12829 14.478 1.83643 14.5488 1.39655 14.7143L0.903387 14.9126C0.487828 15.0877 0.210705 15.2449 0.0674502 15.4487C-0.0837818 15.6641 -0.0728045 15.9096 0.0166689 16.2143L0.407294 17.3501C0.628621 17.9818 0.92281 18.8155 1.23639 19.6977L1.73835 21.0913C1.88626 21.4978 2.01476 21.8456 2.12213 22.1313C2.22938 22.4167 2.31586 22.6412 2.38092 22.8012C2.41341 22.8812 2.44091 22.946 2.46295 22.9946C2.48327 23.0393 2.5033 23.0795 2.52057 23.103L2.52155 23.104L2.64655 23.2495C2.68973 23.2923 2.73498 23.33 2.78424 23.3608C2.88465 23.4237 2.996 23.4557 3.12702 23.4614ZM11.8594 20.8716C11.4985 20.8716 11.2948 20.8679 11.0684 20.8423C10.9546 20.8294 10.8344 20.8114 10.6856 20.7846L10.1299 20.6772C9.00667 20.4521 8.23738 20.3383 7.57038 20.3413C6.90052 20.3443 6.33754 20.4647 5.62604 20.6987C5.52679 20.731 5.43422 20.759 5.36628 20.7778C5.35471 20.781 5.34395 20.784 5.33405 20.7866C5.32118 20.7521 5.30519 20.7067 5.28522 20.6518C5.23664 20.5185 5.16875 20.3292 5.08795 20.103C4.92632 19.6505 4.71309 19.0493 4.50104 18.4477C4.28896 17.8461 4.07812 17.2435 3.91999 16.7886C3.84091 16.5611 3.77552 16.37 3.72956 16.2348C3.70661 16.1674 3.68796 16.1138 3.67585 16.0766C3.67471 16.0731 3.67296 16.07 3.67194 16.0669C3.69736 16.0557 3.73369 16.0408 3.78522 16.021C4.014 15.9331 4.51591 15.7551 5.61139 15.3657L6.98346 14.8794C7.32681 14.7584 7.5682 14.6744 7.74323 14.6167C8.09106 14.5019 8.16615 14.4937 8.25006 14.4917C8.25134 14.4917 8.25628 14.4916 8.26667 14.4927C8.27809 14.4939 8.29354 14.495 8.31256 14.4975C8.35082 14.5027 8.40293 14.511 8.46686 14.521C8.59461 14.541 8.7697 14.57 8.97858 14.6059C9.39622 14.6779 9.94969 14.7772 10.5372 14.8872L11.379 15.0454C11.6413 15.096 11.8821 15.1439 12.0879 15.186C12.2937 15.2281 12.4646 15.2643 12.5879 15.2925C12.6497 15.3066 12.6989 15.3183 12.7344 15.3276L12.7823 15.3413L12.7842 15.3423L12.8682 15.394C12.9505 15.4543 13.026 15.5385 13.086 15.6343C13.1661 15.7622 13.212 15.9023 13.212 16.022C13.212 16.4425 12.8374 16.8218 12.4356 16.8218C12.4201 16.8217 12.3587 16.8146 12.2491 16.7983C12.1434 16.7826 12.001 16.76 11.8331 16.7319L10.5977 16.5141C9.80061 16.3669 9.37755 16.2902 9.13971 16.2593C9.02158 16.2439 8.94052 16.2382 8.87995 16.2436C8.81266 16.2497 8.77118 16.2692 8.73249 16.2925L8.72858 16.2944C8.58152 16.3918 8.5087 16.5525 8.50788 16.7055C8.50724 16.8396 8.56246 16.9769 8.67975 17.062L8.73444 17.0952C8.74664 17.1016 8.75972 17.1063 8.76764 17.1089C8.77904 17.1126 8.79263 17.1165 8.80768 17.1206C8.83846 17.1289 8.87985 17.1386 8.92878 17.1499C9.02682 17.1724 9.16099 17.202 9.32135 17.2348C9.64254 17.3006 10.0712 17.3835 10.5284 17.4702L11.3721 17.6245C12.063 17.7454 12.3335 17.7722 12.5459 17.7573C12.9442 17.7327 13.2796 17.6044 13.5518 17.3579H13.5528L13.7081 17.2173L17.9952 16.4106L19.9893 16.0405C20.5468 15.9384 21.0011 15.8573 21.3633 15.7944C21.7258 15.7315 21.996 15.6872 22.1846 15.6596C22.279 15.6459 22.3523 15.636 22.4063 15.6303C22.4609 15.6247 22.4889 15.6248 22.4991 15.6255C23.1049 15.6861 23.3187 16.4751 22.8106 16.8511L22.8096 16.852C22.8153 16.8477 22.8177 16.8474 22.8106 16.8511C22.8058 16.8535 22.7989 16.8562 22.7891 16.8608C22.769 16.8703 22.7401 16.8838 22.7032 16.8999C22.6292 16.9321 22.5236 16.9759 22.3916 17.0307C22.1278 17.1404 21.7577 17.2912 21.3155 17.4702C20.431 17.8282 19.2588 18.2977 18.0733 18.769C16.2923 19.4771 14.4864 20.1885 13.5772 20.5366L13.001 20.7495C12.8226 20.8051 12.7128 20.8345 12.5625 20.8511C12.409 20.8679 12.2118 20.8716 11.8594 20.8716ZM3.25104 22.4917C3.23144 22.4404 3.20338 22.3666 3.16901 22.2729C3.10021 22.0854 3.00434 21.8201 2.89069 21.5034C2.66343 20.87 2.36483 20.0304 2.06842 19.1919C1.77198 18.3532 1.47791 17.5155 1.25885 16.8862C1.14932 16.5716 1.0588 16.3089 0.996161 16.1245C0.966196 16.0363 0.94184 15.9666 0.925848 15.9175C0.970119 15.8996 1.03159 15.8762 1.10456 15.8491C1.25337 15.7939 1.44923 15.7241 1.64557 15.6557C1.84187 15.5874 2.03841 15.5205 2.18952 15.4712C2.26507 15.4465 2.32881 15.4263 2.37506 15.4126C2.37792 15.4117 2.38116 15.4114 2.38385 15.4106C2.39213 15.4282 2.40385 15.449 2.4151 15.4751C2.45352 15.5639 2.50588 15.696 2.57135 15.8667C2.70217 16.2077 2.88221 16.7004 3.09772 17.3071L4.29303 20.6772L4.53815 21.3716C4.60159 21.5556 4.64768 21.6962 4.67975 21.8022C4.71164 21.9077 4.72747 21.9745 4.73346 22.0151C4.71703 22.0225 4.69609 22.0319 4.66999 22.0425C4.61655 22.064 4.54824 22.0902 4.46979 22.1186C4.31313 22.1753 4.11851 22.2411 3.9278 22.3032C3.73684 22.3654 3.55018 22.4236 3.41022 22.4634C3.34666 22.4814 3.29386 22.4954 3.25495 22.5044C3.25345 22.5005 3.25265 22.4959 3.25104 22.4917Z" fill="black"/>
<path d="M22.8106 16.8511C23.3187 16.4751 23.1049 15.6861 22.4991 15.6255C22.4889 15.6248 22.4609 15.6247 22.4063 15.6303C22.3523 15.636 22.279 15.6459 22.1846 15.6596C21.996 15.6872 21.7258 15.7315 21.3633 15.7944C21.0011 15.8573 20.5468 15.9384 19.9893 16.0405L17.9952 16.4106L13.7081 17.2173L13.5528 17.3579H13.5518C13.2796 17.6044 12.9442 17.7327 12.5459 17.7573C12.3335 17.7722 12.063 17.7454 11.3721 17.6245L10.5284 17.4702C10.0712 17.3835 9.64254 17.3006 9.32135 17.2348C9.16099 17.202 9.02682 17.1724 8.92878 17.1499C8.87985 17.1386 8.83846 17.1289 8.80768 17.1206C8.79263 17.1165 8.77904 17.1126 8.76764 17.1089C8.75972 17.1063 8.74664 17.1016 8.73444 17.0952L8.67975 17.062C8.56246 16.9769 8.50724 16.8396 8.50788 16.7055C8.5087 16.5525 8.58152 16.3918 8.72858 16.2944L8.73249 16.2925C8.77118 16.2692 8.81266 16.2497 8.87995 16.2436C8.94052 16.2382 9.02158 16.2439 9.13971 16.2593C9.37755 16.2902 9.80061 16.3669 10.5977 16.5141L11.8331 16.7319C12.001 16.76 12.1434 16.7826 12.2491 16.7983C12.3587 16.8146 12.4201 16.8217 12.4356 16.8218C12.8374 16.8218 13.212 16.4425 13.212 16.022C13.212 15.9023 13.1661 15.7622 13.086 15.6343C13.026 15.5385 12.9505 15.4543 12.8682 15.394L12.7842 15.3423L12.7823 15.3413L12.7344 15.3276C12.6989 15.3183 12.6497 15.3066 12.5879 15.2925C12.4646 15.2643 12.2937 15.2281 12.0879 15.186C11.8821 15.1439 11.6413 15.096 11.379 15.0454L10.5372 14.8872C9.94969 14.7772 9.39622 14.6779 8.97858 14.6059C8.7697 14.57 8.59461 14.541 8.46686 14.521C8.40293 14.511 8.35082 14.5027 8.31256 14.4975C8.29354 14.495 8.27809 14.4939 8.26667 14.4927C8.25628 14.4916 8.25134 14.4917 8.25006 14.4917C8.16615 14.4937 8.09106 14.5019 7.74323 14.6167C7.5682 14.6744 7.32681 14.7584 6.98346 14.8794L5.61139 15.3657C4.51591 15.7551 4.014 15.9331 3.78522 16.021C3.73369 16.0408 3.69736 16.0557 3.67194 16.0669C3.67296 16.07 3.67471 16.0731 3.67585 16.0766C3.68796 16.1138 3.70661 16.1674 3.72956 16.2348C3.77552 16.37 3.84091 16.5611 3.91999 16.7886C4.07812 17.2435 4.28896 17.8461 4.50104 18.4477C4.71309 19.0493 4.92632 19.6505 5.08795 20.103C5.16875 20.3292 5.23664 20.5185 5.28522 20.6518C5.30519 20.7067 5.32118 20.7521 5.33405 20.7866C5.34395 20.784 5.35471 20.781 5.36628 20.7778C5.43422 20.759 5.52679 20.731 5.62604 20.6987C6.33754 20.4647 6.90052 20.3443 7.57038 20.3413C8.23738 20.3383 9.00667 20.4521 10.1299 20.6772L10.6856 20.7846C10.8344 20.8114 10.9546 20.8294 11.0684 20.8423C11.2948 20.8679 11.4985 20.8716 11.8594 20.8716C12.2118 20.8716 12.409 20.8679 12.5625 20.8511C12.7128 20.8345 12.8226 20.8051 13.001 20.7495L13.5772 20.5366C14.4864 20.1885 16.2923 19.4771 18.0733 18.769C19.2588 18.2977 20.431 17.8282 21.3155 17.4702C21.7577 17.2912 22.1278 17.1404 22.3916 17.0307C22.5236 16.9759 22.6292 16.9321 22.7032 16.8999C22.7401 16.8838 22.769 16.8703 22.7891 16.8608C22.7989 16.8562 22.8058 16.8535 22.8106 16.8511ZM22.8106 16.8511L22.8096 16.852C22.8153 16.8477 22.8177 16.8474 22.8106 16.8511ZM3.12702 23.4614C3.38043 23.4723 3.71715 23.3808 4.21784 23.2085L4.5235 23.0991C5.09276 22.8837 5.42212 22.6886 5.61139 22.435L5.6944 22.3032L5.69538 22.3022L5.75006 22.1655C5.76262 22.1203 5.76897 22.0747 5.76862 22.0278C5.76787 21.9345 5.73808 21.846 5.68952 21.7534L5.69049 21.7524L5.6651 21.7026L5.81452 21.6294L5.81549 21.6284L5.9776 21.5522C6.35729 21.3889 6.76181 21.3249 7.40631 21.3208L7.8692 21.3257C8.28878 21.3428 8.6541 21.4043 9.63678 21.5903L10.3047 21.7095C10.9274 21.8099 11.4279 21.8545 11.9004 21.8384C12.5319 21.8168 13.1088 21.6872 13.8584 21.4468L14.4405 21.2339C15.2987 20.9078 16.9001 20.2766 18.4737 19.6489C19.5239 19.23 20.5639 18.812 21.3663 18.4848C21.7675 18.3212 22.11 18.1805 22.3643 18.0737C22.6156 17.9682 22.7875 17.8927 22.8428 17.8628L22.9981 17.7739C23.7028 17.3463 24.0862 16.7726 24.0206 16.1499L23.9991 16.0161C23.8906 15.4744 23.5827 15.055 23.1358 14.8569C22.9866 14.7919 22.8455 14.7564 22.6397 14.7387L22.4092 14.727C22.1932 14.7197 22.0027 14.73 21.4131 14.8276C21.1185 14.8764 20.7224 14.9467 20.1719 15.0483L18.0049 15.4546L14.1748 16.1762L14.1573 15.9985C14.1135 15.5459 13.9854 15.2191 13.7247 14.9282H13.7237C13.4375 14.612 13.0638 14.4271 12.4717 14.2934H12.4707C11.1832 14.0125 10.0119 13.773 9.57135 13.7114L9.57233 13.7104C9.04458 13.6315 8.28406 13.6212 7.80378 13.6782L7.61628 13.7065C7.15936 13.7993 6.78513 13.909 6.12018 14.1616L5.34381 14.4663C4.84089 14.6675 4.36385 14.8475 3.99518 14.977C3.81085 15.0418 3.65403 15.0938 3.53522 15.1294C3.47614 15.147 3.42743 15.1606 3.38971 15.1694C3.38249 15.1711 3.37539 15.173 3.3692 15.1743C3.36435 15.1616 3.35913 15.1465 3.35456 15.1294L3.35358 15.1303C3.25466 14.726 2.85208 14.478 2.38092 14.478C2.12829 14.478 1.83643 14.5488 1.39655 14.7143L0.903387 14.9126C0.487828 15.0877 0.210705 15.2449 0.0674502 15.4487C-0.0837818 15.6641 -0.0728045 15.9096 0.0166689 16.2143L0.407294 17.3501C0.628621 17.9818 0.92281 18.8155 1.23639 19.6977L1.73835 21.0913C1.88626 21.4978 2.01476 21.8456 2.12213 22.1313C2.22938 22.4167 2.31586 22.6412 2.38092 22.8012C2.41341 22.8812 2.44091 22.946 2.46295 22.9946C2.48327 23.0393 2.5033 23.0795 2.52057 23.103L2.52155 23.104L2.64655 23.2495C2.68973 23.2923 2.73498 23.33 2.78424 23.3608C2.88465 23.4237 2.996 23.4557 3.12702 23.4614ZM3.25104 22.4917C3.23144 22.4404 3.20338 22.3666 3.16901 22.2729C3.10021 22.0854 3.00434 21.8201 2.89069 21.5034C2.66343 20.87 2.36483 20.0304 2.06842 19.1919C1.77198 18.3532 1.47791 17.5155 1.25885 16.8862C1.14932 16.5716 1.0588 16.3089 0.996161 16.1245C0.966196 16.0363 0.94184 15.9666 0.925848 15.9175C0.970119 15.8996 1.03159 15.8762 1.10456 15.8491C1.25337 15.7939 1.44923 15.7241 1.64557 15.6557C1.84187 15.5874 2.03841 15.5205 2.18952 15.4712C2.26507 15.4465 2.32881 15.4263 2.37506 15.4126C2.37792 15.4117 2.38116 15.4114 2.38385 15.4106C2.39213 15.4282 2.40385 15.449 2.4151 15.4751C2.45352 15.5639 2.50588 15.696 2.57135 15.8667C2.70217 16.2077 2.88221 16.7004 3.09772 17.3071L4.29303 20.6772L4.53815 21.3716C4.60159 21.5556 4.64768 21.6962 4.67975 21.8022C4.71164 21.9077 4.72747 21.9745 4.73346 22.0151C4.71703 22.0225 4.69609 22.0319 4.66999 22.0425C4.61655 22.064 4.54824 22.0902 4.46979 22.1186C4.31313 22.1753 4.11851 22.2411 3.9278 22.3032C3.73684 22.3654 3.55018 22.4236 3.41022 22.4634C3.34666 22.4814 3.29386 22.4954 3.25495 22.5044C3.25345 22.5005 3.25265 22.4959 3.25104 22.4917Z" stroke="black" stroke-width="0.2"/>
</g>
</g>
<defs>
<clipPath id="clip0_7381_90">
<rect width="24" height="24" fill="white"/>
</clipPath>
</defs>
</svg>
