<?xml version="1.0" encoding="UTF-8"?>
<svg viewBox="0 0 64 64" width="64" height="64" xmlns="http://www.w3.org/2000/svg">
 
<g fill="none" stroke="#00d4ff" stroke-linecap="round" stroke-linejoin="round">
<path d="M16,34 a13,13 0 0,1 4,-25 a16,16 0 0,1 30,4 a11,11 0 0,1 -2,21z" stroke-width="2"/>
<line x1="24" y1="34" x2="24" y2="50" stroke-width="1.8"/>
<line x1="32" y1="34" x2="32" y2="50" stroke-width="1.8"/>
<line x1="40" y1="34" x2="40" y2="50" stroke-width="1.8"/>
<line x1="16" y1="50" x2="48" y2="50" stroke-width="2"/>
<circle cx="24" cy="34" r="2.5" fill="#00d4ff" stroke="none"/>
<circle cx="32" cy="34" r="2.5" fill="#00d4ff" stroke="none"/>
<circle cx="40" cy="34" r="2.5" fill="#00d4ff" stroke="none"/>
<path d="M28,18 L28,26 L32,22 L36,26 L36,18" stroke-width="1.5"/>
</g>
</svg>
