<?xml version="1.0" encoding="UTF-8"?>
<svg viewBox="0 0 64 64" width="64" height="64" xmlns="http://www.w3.org/2000/svg">
 
<g fill="none" stroke="#FFFFFF" stroke-linecap="round" stroke-linejoin="round">
<rect x="22" y="8" width="20" height="48" rx="2" stroke-width="2"/>
<rect x="8" y="22" width="14" height="34" rx="2" stroke-width="1.8"/>
<rect x="42" y="22" width="14" height="34" rx="2" stroke-width="1.8"/>
<rect x="26" y="13" width="5" height="5" rx="1" stroke-width="1.5"/>
<rect x="33" y="13" width="5" height="5" rx="1" stroke-width="1.5"/>
<rect x="26" y="22" width="5" height="5" rx="1" stroke-width="1.5"/>
<rect x="33" y="22" width="5" height="5" rx="1" stroke-width="1.5"/>
<rect x="26" y="31" width="5" height="5" rx="1" stroke-width="1.5"/>
<rect x="33" y="31" width="5" height="5" rx="1" stroke-width="1.5"/>
<rect x="12" y="28" width="5" height="5" rx="1" stroke-width="1.5"/>
<rect x="47" y="28" width="5" height="5" rx="1" stroke-width="1.5"/>
<rect x="12" y="37" width="5" height="5" rx="1" stroke-width="1.5"/>
<rect x="47" y="37" width="5" height="5" rx="1" stroke-width="1.5"/>
<rect x="27" y="44" width="10" height="12" rx="1" stroke-width="1.8"/>
</g>
</svg>
