<svg width="20" height="20" viewBox="0 0 20 20" fill="none" xmlns="http://www.w3.org/2000/svg">
<path d="M8.84489 2.91648C8.89796 2.86213 8.96139 2.81897 9.03143 2.78954C9.10146 2.76011 9.17668 2.745 9.25265 2.74512C9.32862 2.74523 9.40379 2.76057 9.47373 2.79022C9.54368 2.81986 9.60697 2.86322 9.65989 2.91773L16.1374 9.56398C16.2512 9.6807 16.3148 9.83724 16.3148 10.0002C16.3148 10.1632 16.2512 10.3198 16.1374 10.4365L9.65989 17.0827C9.60689 17.1372 9.54353 17.1804 9.47354 17.21C9.40355 17.2395 9.32835 17.2547 9.25239 17.2547C9.17642 17.2547 9.10122 17.2395 9.03123 17.21C8.96124 17.1804 8.89788 17.1372 8.84489 17.0827C8.73585 16.9711 8.6748 16.8213 8.6748 16.6652C8.6748 16.5092 8.73585 16.3593 8.84489 16.2477L14.9361 10.0002L8.84489 3.75023C8.73622 3.63867 8.67541 3.48909 8.67541 3.33336C8.67541 3.17762 8.73622 3.02804 8.84489 2.91648ZM3.84489 2.91648C3.89796 2.86213 3.96139 2.81897 4.03143 2.78954C4.10146 2.76011 4.17668 2.745 4.25265 2.74512C4.32862 2.74523 4.40379 2.76057 4.47373 2.79022C4.54368 2.81986 4.60697 2.86322 4.65989 2.91773L11.1374 9.56398C11.2512 9.6807 11.3148 9.83724 11.3148 10.0002C11.3148 10.1632 11.2512 10.3198 11.1374 10.4365L4.65989 17.0827C4.60689 17.1372 4.54353 17.1804 4.47354 17.21C4.40355 17.2395 4.32835 17.2547 4.25239 17.2547C4.17642 17.2547 4.10122 17.2395 4.03123 17.21C3.96124 17.1804 3.89788 17.1372 3.84489 17.0827C3.73585 16.9711 3.6748 16.8213 3.6748 16.6652C3.6748 16.5092 3.73585 16.3593 3.84489 16.2477L9.93614 10.0002L3.84489 3.75023C3.73622 3.63867 3.67541 3.48909 3.67541 3.33336C3.67541 3.17762 3.73622 3.02804 3.84489 2.91648Z" fill="#F5F5F5"/>
</svg>
