<svg width="698" height="128" viewBox="0 0 698 128" fill="none" xmlns="http://www.w3.org/2000/svg">
<path d="M236.2 78.85C232.4 78.85 229.7 78.65 227.9 78.35C226.1 78.05 225.2 77.6501 225.2 77.1501L228.5 69.95C229.8 70.15 232.9 70.3501 238 70.5501C243.1 70.7501 250 70.85 258.9 70.85H260.5C262.9 70.85 264.6 70.4501 265.6 69.5501C266.6 68.6501 267.1 67.2501 267.1 65.1501V63.4501C267.1 61.5501 266.7 60.15 265.9 59.35C265.1 58.55 263.3 58.1501 260.5 58.1501H241.3C235.7 58.1501 231.6 57.15 229.1 55.05C226.6 52.95 225.3 49.55 225.3 44.85V43.55C225.3 41.15 225.8 38.85 226.7 36.85C227.6 34.85 229.2 33.1501 231.4 31.9501C233.6 30.7501 236.7 30.05 240.5 30.05H263.1C266.9 30.05 269.9 30.25 272.2 30.65C274.5 31.05 275.7 31.45 275.7 31.85L274 38.85C272.6 38.65 269.3 38.55 264.2 38.35C259.1 38.15 252.3 38.05 243.7 38.05L242.8 37.9501C240.3 37.9501 238.5 38.4501 237.7 39.4501C236.8 40.4501 236.3 41.75 236.3 43.35V44.75C236.3 46.55 236.8 47.95 237.8 48.85C238.8 49.75 240.5 50.25 242.9 50.25H261.3C264.8 50.25 267.9 50.65 270.3 51.35C272.8 52.05 274.7 53.35 276 55.25C277.3 57.15 278 59.9501 278 63.6501V64.95C278 69.05 276.9 72.45 274.8 74.95C272.7 77.45 269 78.75 263.7 78.75H236.2V78.85Z" fill="#00479D"/>
<path d="M298.1 78.85C294.4 78.85 291.6 78.15 289.8 76.65C288 75.15 287.1 72.75 287.1 69.35V52.35C287.1 51.55 287.2 50.55 287.3 49.35C287.4 48.15 287.8 46.95 288.5 45.85C289.1 44.65 290.2 43.75 291.7 42.95C293.2 42.15 295.3 41.75 298 41.75H320.9C323.7 41.75 325.8 42.15 327.3 42.95C328.8 43.75 329.9 44.65 330.5 45.85C331.1 47.05 331.5 48.15 331.7 49.35C331.8 50.55 331.9 51.55 331.9 52.35V68.25C331.9 69.25 331.8 70.35 331.7 71.55C331.6 72.75 331.2 73.95 330.5 75.05C329.8 76.15 328.8 77.05 327.3 77.75C325.8 78.45 323.7 78.85 321 78.85H298.1ZM301.3 71.75H317.9C320.6 71.75 322 70.65 322 68.45V52.15C322 49.95 320.6 48.85 317.9 48.85H301.3C298.6 48.85 297.3 49.95 297.3 52.15V68.45C297.3 70.65 298.6 71.75 301.3 71.75Z" fill="#00479D"/>
<path d="M342 78.85V32.85L341.2 26.25H352.2V78.85H342Z" fill="#00479D"/>
<path d="M372.7 78.85C368.5 78.85 365.5 77.85 363.6 75.95C361.7 73.95 360.8 71.25 360.8 67.85C360.8 64.25 361.8 61.45 363.7 59.55C365.7 57.65 368.7 56.65 372.7 56.65H376.9C381 56.65 384.8 56.75 388.1 56.95C391.4 57.15 394.2 57.35 396.3 57.65V52.15C396.3 51.65 396.2 51.15 396.1 50.65C396 50.15 395.7 49.65 395.1 49.35C394.5 49.05 393.6 48.85 392.3 48.85H388.3C382.3 48.85 377.2 48.95 373.2 49.15C369.2 49.35 366.4 49.55 365 49.65L364.1 43.35C364.1 42.55 366.2 42.15 370.4 41.95C374.6 41.75 381.6 41.75 391.5 41.75H395.7C398.5 41.75 400.6 42.15 402.1 42.95C403.6 43.75 404.7 44.65 405.3 45.85C405.9 47.05 406.3 48.15 406.5 49.35C406.6 50.55 406.7 51.55 406.7 52.35V78.95H399.9L396.7 77.25C394.4 77.65 391.6 78.05 388.3 78.35C385 78.75 381.3 78.85 377.1 78.85H372.7ZM374.9 71.75H393.9C395.1 71.75 395.8 71.65 396.1 71.45C396.3 71.25 396.4 70.55 396.4 69.35V62.95H374.9C373.4 62.95 372.4 63.35 371.8 64.05C371.2 64.75 370.9 65.95 370.9 67.45C370.9 68.95 371.2 70.15 371.9 70.75C372.6 71.45 373.6 71.75 374.9 71.75Z" fill="#00479D"/>
<path d="M416.1 78.8499V41.75H422.9L426.1 43.45C427.5 42.65 429.1 42.05 430.7 41.65C432.4 41.25 434.5 40.95 437 40.95C441 40.95 444.3 41.35 446.8 42.25C449.3 43.15 451 43.75 451.8 44.25L448.9 51.45C448.2 51.15 447.1 50.65 445.6 50.15C444.1 49.65 442.3 49.15 440.2 48.65C438.2 48.25 435.9 47.95 433.5 47.95H432.6C429.9 47.95 428.2 48.4499 427.4 49.5499C426.6 50.6499 426.2 52.35 426.1 54.75V78.8499H416.1Z" fill="#00479D"/>
<path d="M460.1 78.85V36.75L459.3 30.15H471.3L499.5 59.65L502.7 64.15H503.6V30.15H514.6V78.95H504.1L475.2 48.95L472 45.05H471.2V78.95H460.1V78.85Z" fill="#0091C6"/>
<path d="M536.3 78.85C533.5 78.85 531.4 78.45 529.9 77.75C528.4 77.05 527.3 76.15 526.7 75.05C526.1 73.95 525.7 72.75 525.5 71.55C525.4 70.35 525.3 69.25 525.3 68.25V52.35C525.3 51.55 525.4 50.55 525.5 49.35C525.6 48.15 526 46.95 526.7 45.85C527.3 44.65 528.4 43.75 529.9 42.95C531.4 42.15 533.5 41.75 536.2 41.75H554C557.7 41.75 560.5 42.05 562.6 42.75C564.7 43.45 566.1 44.55 567 46.15C567.9 47.65 568.3 49.75 568.3 52.35V64.65H553.8C548.8 64.65 544.8 64.55 541.6 64.35C538.5 64.15 536.4 63.95 535.3 63.95V68.45C535.2 70.65 536.6 71.75 539.3 71.75H543.5C546.5 71.75 549.4 71.75 552.3 71.65C555.1 71.55 557.8 71.45 560.1 71.35C562.5 71.25 564.4 71.05 565.8 70.95L569.1 76.35C569.1 78.05 563.6 78.95 552.7 78.95H536.3V78.85ZM535.5 57.45H558.3V52.15C558.3 51.05 558.2 50.25 557.9 49.85C557.7 49.45 556.9 49.15 555.7 49.05C554.5 48.95 552.4 48.85 549.5 48.85H539.5C536.8 48.85 535.5 49.95 535.5 52.15V57.45Z" fill="#0091C6"/>
<path d="M592.1 78.85C587.9 78.85 585 77.95 583.5 76.15C582 74.35 581.2 71.75 581.2 68.15V48.85H574.4V41.75H577.9C579 41.75 579.7 41.55 580.2 41.25C580.7 40.95 581 40.25 581.2 39.25L582.9 30.35H591.4V41.75H608.7V48.85H591.3V68.35C591.3 69.75 591.6 70.65 592.3 71.05C593 71.45 594 71.75 595.3 71.75H607L607.8 78.05C606.6 78.25 604.9 78.35 602.5 78.55C600.1 78.75 597.5 78.85 594.7 78.85H592.1Z" fill="#0091C6"/>
<path d="M624.6 78.85C620.9 78.85 618.3 78.65 616.7 78.25C615.2 77.85 614.4 77.45 614.4 77.05L616.9 70.85C618.5 71.05 621.5 71.15 625.7 71.35C630 71.55 635.3 71.65 641.6 71.65H645.8C647.2 71.65 648.1 71.25 648.4 70.55C648.8 69.85 648.9 68.75 648.9 67.55C648.9 66.25 648.7 65.25 648.3 64.45C647.9 63.65 647 63.25 645.8 63.25H625.3C621.4 63.25 618.6 62.55 616.9 61.05C615.2 59.55 614.3 57.35 614.3 54.45V51.15C614.3 50.35 614.4 49.45 614.5 48.45C614.7 47.35 615.1 46.35 615.7 45.25C616.4 44.15 617.4 43.35 618.9 42.65C620.4 41.95 622.5 41.65 625.1 41.65H648C651.3 41.65 653.7 41.85 655.1 42.25C656.5 42.65 657.2 43.05 657.2 43.45L656.4 49.65C654.8 49.45 651.8 49.35 647.5 49.15C643.2 48.95 637.9 48.85 631.6 48.85H627.4C626 48.85 625.1 49.25 624.8 49.95C624.4 50.65 624.3 51.55 624.3 52.55C624.3 53.65 624.5 54.45 624.8 55.15C625.2 55.85 626 56.15 627.4 56.15H647.8C651.6 56.15 654.3 56.95 656.1 58.45C657.9 59.95 658.8 61.95 658.8 64.35V69.25C658.8 70.25 658.7 71.25 658.6 72.45C658.5 73.55 658.1 74.55 657.4 75.55C656.7 76.55 655.7 77.35 654.2 77.95C652.7 78.55 650.6 78.85 647.9 78.85H624.6Z" fill="#0091C6"/>
<path d="M225.7 108.65V93.35L225.4 90.95H238.7C240 90.95 241 91.15 241.7 91.45C242.4 91.75 243 92.25 243.3 92.75C243.7 93.35 243.9 93.85 244 94.55C244.1 95.15 244.2 95.75 244.2 96.35V98.15C244.2 98.65 244.1 99.15 244 99.75C243.9 100.35 243.6 100.85 243.2 101.45C242.8 101.95 242.3 102.45 241.5 102.75C240.8 103.15 239.8 103.25 238.7 103.25H235.6C234.3 103.25 233.2 103.25 232.1 103.15C231 103.05 230.2 103.05 229.6 102.95V108.65H225.7ZM229.7 100.25H237.9C238.8 100.25 239.4 100.05 239.8 99.55C240.1 99.15 240.3 98.55 240.3 97.95V96.05C240.3 95.45 240.1 94.85 239.8 94.45C239.5 94.05 238.8 93.75 238 93.75H229.8V100.25H229.7Z" fill="#0091C6"/>
<path d="M269.7 108.95C268.9 108.95 268.1 108.85 267.3 108.55C266.5 108.25 265.6 107.65 264.7 106.65L262.5 104.45C261.6 103.55 260.6 102.85 259.6 102.45C258.5 102.05 257.2 101.85 255.6 101.85H254.7V108.55H250.7V93.35L250.4 90.95H263.7C265 90.95 266 91.15 266.7 91.45C267.4 91.75 268 92.25 268.3 92.75C268.7 93.35 268.9 93.85 269 94.55C269.1 95.15 269.2 95.75 269.2 96.35V96.95C269.2 97.35 269.1 97.85 269 98.45C268.9 99.05 268.6 99.55 268.3 100.05C268 100.55 267.5 101.05 266.8 101.35C266.2 101.75 265.3 101.95 264.3 101.95C264.6 102.05 264.9 102.35 265.3 102.55C265.7 102.85 266.1 103.15 266.5 103.45C266.9 103.75 267.3 104.15 267.7 104.35C268.1 104.55 268.3 104.85 268.5 104.95C269.2 105.35 269.9 105.65 270.4 105.85C271 106.05 271.4 106.15 271.8 106.15H272.4L271.8 108.55C271.6 108.65 271.3 108.65 270.9 108.75C270.8 108.95 270.3 108.95 269.7 108.95ZM259.3 99.25H261.3C261.9 99.25 262.4 99.15 262.9 99.15C263.8 99.05 264.4 98.85 264.8 98.45C265.2 98.05 265.3 97.55 265.3 96.95V96.25C265.3 95.65 265.1 95.05 264.8 94.65C264.5 94.25 263.8 93.95 263 93.95H254.8V99.15C255.7 99.25 256.5 99.25 257.2 99.25C257.9 99.15 258.6 99.25 259.3 99.25Z" fill="#0091C6"/>
<path d="M282.6 108.65C281.2 108.65 280.1 108.45 279.3 108.05C278.5 107.65 277.9 107.05 277.6 106.25C277.3 105.45 277.1 104.45 277.1 103.25V96.25C277.1 95.05 277.3 94.15 277.6 93.35C277.9 92.55 278.5 91.95 279.3 91.55C280.1 91.15 281.2 90.95 282.6 90.95H291.4C292.8 90.95 293.9 91.15 294.7 91.55C295.5 91.95 296.1 92.55 296.4 93.35C296.7 94.15 296.9 95.15 296.9 96.25V103.25C296.9 105.05 296.5 106.35 295.7 107.25C294.9 108.15 293.5 108.65 291.4 108.65H282.6ZM283.5 105.75H290.6C291.3 105.75 291.9 105.55 292.3 105.15C292.7 104.75 292.9 104.25 292.9 103.55V95.85C292.9 95.25 292.7 94.75 292.3 94.35C291.9 93.95 291.3 93.75 290.6 93.75H283.5C282.8 93.75 282.2 93.95 281.8 94.35C281.4 94.75 281.1 95.25 281.1 95.85V103.55C281.1 104.25 281.3 104.75 281.7 105.15C282.2 105.55 282.8 105.75 283.5 105.75Z" fill="#0091C6"/>
<path d="M309.5 108.65V93.85H301.7V90.95H321.3V93.85H313.4V108.65H309.5Z" fill="#0091C6"/>
<path d="M326.3 108.65V90.95H345V93.85H330.3V98.05H341.6V101.05H330.3V105.85H345.2L346.4 108.45C346.4 108.55 346.1 108.65 345.6 108.65C345.1 108.75 344.1 108.75 342.8 108.75H326.3V108.65Z" fill="#0091C6"/>
<path d="M356.6 108.65C355.2 108.65 354.1 108.45 353.3 108.05C352.5 107.65 351.9 107.05 351.6 106.25C351.3 105.45 351.1 104.45 351.1 103.25V96.55C351.1 94.65 351.5 93.25 352.4 92.25C353.3 91.35 354.7 90.85 356.6 90.85H365.7C367.1 90.85 368.1 90.95 368.9 91.05C369.7 91.15 370 91.35 370 91.55L369.4 94.05C369.1 93.95 368.1 93.95 366.4 93.85C364.7 93.75 362.3 93.75 359.1 93.75H357.6C356 93.75 355.2 94.45 355.2 95.85V103.55C355.2 104.25 355.4 104.75 355.7 105.15C356.1 105.55 356.7 105.75 357.6 105.75H358.8C362.1 105.75 364.7 105.75 366.6 105.65C368.4 105.55 369.6 105.55 370 105.45L371.2 107.45C371.2 107.55 371 107.75 370.7 107.95C370.4 108.15 369.8 108.35 368.9 108.45C368 108.65 366.7 108.65 365.1 108.65H356.6Z" fill="#0091C6"/>
<path d="M382.2 108.65V93.85H374.3V90.95H394V93.85H386.1V108.65H382.2Z" fill="#0091C6"/>
<path d="M414.3 108.65V101.35L405.5 90.95H410.3L414.8 96.55L416.2 98.45H416.5L417.9 96.55L422.4 90.95H427.2L426 92.75L418.3 101.45V108.65H414.3Z" fill="#0091C6"/>
<path d="M436.2 108.65C434.8 108.65 433.7 108.45 432.9 108.05C432.1 107.65 431.5 107.05 431.2 106.25C430.9 105.45 430.7 104.45 430.7 103.25V96.25C430.7 95.05 430.9 94.15 431.2 93.35C431.5 92.55 432.1 91.95 432.9 91.55C433.7 91.15 434.8 90.95 436.2 90.95H445C446.4 90.95 447.5 91.15 448.3 91.55C449.1 91.95 449.7 92.55 450 93.35C450.3 94.15 450.5 95.15 450.5 96.25V103.25C450.5 105.05 450.1 106.35 449.3 107.25C448.5 108.15 447.1 108.65 445 108.65H436.2ZM437.1 105.75H444.2C444.9 105.75 445.5 105.55 445.9 105.15C446.3 104.75 446.5 104.25 446.5 103.55V95.85C446.5 95.25 446.3 94.75 445.9 94.35C445.5 93.95 444.9 93.75 444.2 93.75H437.1C436.4 93.75 435.8 93.95 435.4 94.35C435 94.75 434.7 95.25 434.7 95.85V103.55C434.7 104.25 434.9 104.75 435.3 105.15C435.8 105.55 436.4 105.75 437.1 105.75Z" fill="#0091C6"/>
<path d="M461.5 108.95C459.7 108.95 458.4 108.45 457.7 107.45C457 106.45 456.6 105.15 456.6 103.55V90.95H460.6V103.65C460.6 104.55 460.8 105.25 461.3 105.55C461.8 105.85 462.3 106.05 463 106.05H469.4C470 106.05 470.6 105.85 471.1 105.55C471.6 105.25 471.8 104.55 471.8 103.65V90.95H475.8V103.55C475.8 104.65 475.6 105.55 475.3 106.35C475 107.15 474.5 107.75 473.8 108.25C473.1 108.75 472.1 108.95 470.9 108.95H461.5Z" fill="#0091C6"/>
<path d="M501.3 108.95C500.5 108.95 499.7 108.85 498.9 108.55C498.1 108.25 497.2 107.65 496.3 106.65L494.1 104.45C493.2 103.55 492.2 102.85 491.2 102.45C490.1 102.05 488.8 101.85 487.2 101.85H486.3V108.55H482.3V93.35L482 90.95H495.3C496.6 90.95 497.6 91.15 498.3 91.45C499 91.75 499.6 92.25 499.9 92.75C500.3 93.35 500.5 93.85 500.6 94.55C500.7 95.15 500.8 95.75 500.8 96.35V96.95C500.8 97.35 500.7 97.85 500.6 98.45C500.5 99.05 500.2 99.55 499.9 100.05C499.6 100.55 499.1 101.05 498.4 101.35C497.8 101.75 496.9 101.95 495.9 101.95C496.2 102.05 496.5 102.35 496.9 102.55C497.3 102.85 497.7 103.15 498.1 103.45C498.5 103.75 498.9 104.15 499.3 104.35C499.7 104.55 499.9 104.85 500.1 104.95C500.8 105.35 501.5 105.65 502 105.85C502.6 106.05 503 106.15 503.4 106.15H504L503.4 108.55C503.2 108.65 502.9 108.65 502.5 108.75C502.4 108.95 501.9 108.95 501.3 108.95ZM490.9 99.25H492.9C493.5 99.25 494 99.15 494.5 99.15C495.4 99.05 496 98.85 496.4 98.45C496.8 98.05 496.9 97.55 496.9 96.95V96.25C496.9 95.65 496.7 95.05 496.4 94.65C496.1 94.25 495.4 93.95 494.6 93.95H486.4V99.15C487.3 99.25 488.1 99.25 488.8 99.25C489.6 99.15 490.2 99.25 490.9 99.25Z" fill="#0091C6"/>
<path d="M518 108.65V93.35L517.7 90.95H531C532.3 90.95 533.3 91.15 534 91.45C534.7 91.75 535.3 92.25 535.6 92.75C536 93.35 536.2 93.85 536.3 94.55C536.4 95.15 536.5 95.75 536.5 96.35V98.15C536.5 98.65 536.4 99.15 536.3 99.75C536.2 100.35 535.9 100.85 535.5 101.45C535.1 101.95 534.6 102.45 533.8 102.75C533.1 103.15 532.1 103.25 531 103.25H527.9C526.6 103.25 525.5 103.25 524.4 103.15C523.3 103.05 522.5 103.05 521.9 102.95V108.65H518ZM521.9 100.25H530.1C531 100.25 531.6 100.05 532 99.55C532.3 99.15 532.5 98.55 532.5 97.95V96.05C532.5 95.45 532.3 94.85 532 94.45C531.7 94.05 531 93.75 530.2 93.75H522V100.25H521.9Z" fill="#0091C6"/>
<path d="M538.5 108.65L547.3 90.95H553.2L562 108.65H557.4L555.6 104.85H544.8L542.8 108.65H538.5ZM545.9 101.85H554.5L550.4 93.65H550.1L545.9 101.85Z" fill="#0091C6"/>
<path d="M566.8 108.65V93.35L566.5 90.95H570.8L581 101.65L582.2 103.25H582.5V90.95H586.5V108.65H582.7L572.2 97.75L571 96.35H570.7V108.65H566.8Z" fill="#0091C6"/>
<path d="M593.3 108.65V90.95H612V93.85H597.3V98.05H608.6V101.05H597.3V105.85H612.2L613.4 108.45C613.4 108.55 613.1 108.65 612.6 108.65C612.1 108.75 611.1 108.75 609.8 108.75H593.3V108.65Z" fill="#0091C6"/>
<path d="M618.4 108.65L618.7 106.25V90.95H622.7V105.75H635.2L636.4 108.35C636.4 108.45 636.1 108.55 635.6 108.55C635.1 108.55 634.1 108.65 632.8 108.65H618.4Z" fill="#0091C6"/>
<path d="M644.5 108.65C643.1 108.65 642.1 108.55 641.5 108.45C640.9 108.35 640.5 108.15 640.5 108.05L641.7 105.45C642.2 105.55 643.3 105.65 645.1 105.65C646.9 105.75 649.5 105.75 652.7 105.75H653.3C654.2 105.75 654.8 105.55 655.1 105.25C655.5 104.95 655.6 104.45 655.6 103.65V103.05C655.6 102.35 655.5 101.85 655.2 101.55C654.9 101.25 654.3 101.05 653.3 101.05H646.3C644.3 101.05 642.8 100.65 641.9 99.95C641 99.15 640.5 97.95 640.5 96.25V95.75C640.5 94.85 640.7 94.05 641 93.35C641.3 92.65 641.9 92.05 642.7 91.55C643.5 91.05 644.6 90.85 646 90.85H654.2C655.6 90.85 656.7 90.95 657.5 91.05C658.3 91.15 658.8 91.35 658.8 91.55L658.2 94.05C657.7 93.95 656.5 93.95 654.6 93.85C652.8 93.75 650.3 93.75 647.2 93.75H646.9C646 93.75 645.4 93.95 645 94.35C644.7 94.75 644.5 95.15 644.5 95.75V96.25C644.5 96.95 644.7 97.45 645.1 97.75C645.5 98.05 646.1 98.25 647 98.25H653.7C655 98.25 656.1 98.35 657 98.65C657.9 98.95 658.6 99.35 659.1 100.05C659.6 100.75 659.8 101.75 659.8 103.15V103.65C659.8 105.15 659.4 106.35 658.6 107.25C657.8 108.15 656.5 108.65 654.6 108.65H644.5Z" fill="#0091C6"/>
<path d="M70.2002 46.05L51.7002 35.75L72.0002 41.6501C74.3002 42.3501 76.8002 41.4501 78.2002 39.4501C78.2002 39.3501 78.3002 39.35 78.3002 39.25C79.8002 37.15 79.8002 34.4501 78.2002 32.4501L74.4002 27.65L79.1002 31.4501C81.1002 33.0501 83.9002 33.15 86.0002 31.75L86.2002 31.55C88.2002 30.15 89.1002 27.75 88.5002 25.35L82.9002 5.05005L93.1002 23.55C94.3002 25.65 96.7002 26.85 99.1002 26.35H99.4002C101.9 25.95 103.8 23.85 104.1 21.35L104.8 15.35L105.5 21.4501C105.8 23.9501 107.7 25.9501 110.2 26.4501H110.4C112.8 26.8501 115.2 25.75 116.4 23.65L126.8 5.25005L120.9 25.55C120.2 27.85 121.1 30.35 123.1 31.75C123.2 31.75 123.2 31.85 123.3 31.85C125.4 33.35 128.2 33.25 130.1 31.75L134.9 27.9501L131.1 32.6501C129.5 34.6501 129.4 37.4501 130.8 39.4501C130.8 39.5501 130.9 39.6501 130.9 39.6501C132.3 41.6501 134.8 42.5501 137.1 41.9501L157.5 36.25L138.9 46.4501C136.8 47.6501 135.6 50.05 136.1 52.35V52.6501C136.5 55.1501 138.6 57.05 141.1 57.35L147.1 58.05L141 58.75C139.3 58.95 137.9 59.8501 137 61.1501C124.5 58.9501 112 57.85 99.1002 58.05C97.4002 58.15 96.5002 58.15 94.7002 58.25C87.1002 58.85 79.6002 59.8501 72.2002 61.1501C71.3002 59.5501 69.7002 58.55 67.9002 58.25L61.9002 57.55L68.0002 56.85C70.5002 56.55 72.5002 54.6501 73.0002 52.1501V51.9501C73.4002 49.6501 72.3002 47.25 70.2002 46.05Z" fill="#FBAF3F"/>
<path d="M145.4 66.7501C141.8 66.9501 139.3 67.0501 136.6 67.3501C135 67.5501 133.2 67.7501 131.1 68.0501C130.2 68.1501 128.6 67.9501 127.5 67.6501C120.7 65.3501 113.7 63.5501 106.7 62.1501C106.3 62.0501 106 61.9501 105.9 61.8501C116.1 62.1501 126 63.1501 136 64.9501C139.1 65.3501 142.2 66.0501 145.4 66.7501Z" fill="#0091C6"/>
<path d="M95.7999 62.5501C89.4999 64.6501 83.4999 66.8501 77.3999 69.3501C76.3999 69.7501 74.8999 70.1501 73.8999 70.0501C72.1999 69.9501 70.4999 69.9501 68.6999 69.9501C64.2999 69.9501 59.8999 70.1501 55.4999 70.4501C54.5999 70.5501 54.5999 70.1501 55.5999 69.6501C56.7999 68.9501 57.3999 68.6501 58.4999 68.0501C63.2999 66.8501 68.0999 65.7501 72.8999 64.8501C80.5999 63.4501 88.2999 62.4501 96.2999 61.9501C96.4999 62.1501 96.3999 62.3501 95.7999 62.5501Z" fill="#0091C6"/>
<path d="M124 68.1501C117.2 65.9501 110.2 64.2501 103.2 63.0501C102.2 62.8501 100.6 62.9501 99.7 63.1501C93.4 65.0501 87.3 67.0501 81.3 69.5501C80.3 69.9501 80.4 70.3501 81.4 70.4501C88.5 71.2501 95.2 72.1501 102.2 73.5501C103.3 73.7501 105 73.7501 106 73.4501C112 71.5501 118.3 70.0501 124.5 69.0501C125.3 68.8501 125.1 68.4501 124 68.1501Z" fill="#0091C6"/>
<path d="M98.6001 75.95C93.2001 77.95 87.9001 80.15 82.8001 82.75C81.4001 83.45 80.0001 84.15 78.7001 84.95C78.2001 85.15 77.6001 85.45 77.0001 85.55C76.6001 85.65 76.2001 85.75 75.8001 85.75H74.8001C68.0001 85.25 61.4001 85.05 54.6001 85.25C53.6001 85.25 53.6001 84.75 54.6001 84.05C60.4001 80.15 66.5001 76.65 72.7001 73.55C73.1001 73.35 73.6001 73.15 74.0001 72.95C75.0001 72.45 76.6001 72.15 77.6001 72.25C84.7001 72.85 91.4001 73.75 98.3001 74.95C99.5001 75.15 99.6001 75.55 98.6001 75.95Z" fill="#0091C6"/>
<path d="M177.6 83.5501C171.2 82.8501 168 82.6501 161.8 82.6501C161 82.6501 159.3 82.0501 158.2 81.3501C156.8 80.4501 155.3 79.6501 153.8 78.9501C148 75.7501 141.9 73.0501 135.8 70.4501C134.7 70.0501 134.5 69.5501 135.4 69.4501C136.4 69.3501 137.4 69.2501 138.2 69.1501C143 68.6501 146.2 68.4501 151.9 68.4501C152.7 68.4501 154.2 68.8501 155.3 69.4501C162.8 73.3501 169.9 77.5501 177 82.2501C178.1 83.0501 178.4 83.6501 177.6 83.5501Z" fill="#00479D"/>
<path d="M206.9 109.15C200.4 101.65 193.1 94.75 185.4 88.55C184.3 87.65 182.8 86.85 182 86.75C175.6 85.95 172.5 85.75 166.3 85.55C165.5 85.55 165.7 86.15 166.9 86.95C175 92.55 182.7 98.75 189.6 105.75C190.7 106.85 192.3 107.95 193.1 108.05C198.8 108.95 201.7 109.45 207.6 111.05C208.3 111.25 208 110.45 206.9 109.15Z" fill="#00479D"/>
<path d="M155.4 82.85C149.4 83.05 143.3 83.75 137.4 84.75C136.4 84.95 134.7 84.55 133.5 84.05C132.4 83.55 131.4 83.05 130.3 82.65C123.9 79.85 117.3 77.55 110.6 75.65C109.5 75.35 109.3 74.8501 110.3 74.5501C116.3 72.7501 122.6 71.35 128.7 70.45C129.6 70.35 131.2 70.55 132.4 70.95C136.8 72.65 141 74.45 145.2 76.45C148.5 78.05 151.7 79.75 154.8 81.55C156 82.25 156.2 82.85 155.4 82.85Z" fill="#00479D"/>
<path d="M163.6 86.9501C162.4 86.1501 160.8 85.5501 159.9 85.6501C154 85.7501 147.8 86.2501 142 87.1501C141 87.2501 141.2 87.9501 142.4 88.5501C150.8 93.2501 158.8 98.6501 166.1 104.85C167.3 105.85 169 106.75 169.9 106.65C175.5 106.45 181.4 106.65 187 107.25C187.8 107.35 187.5 106.45 186.4 105.35C179.5 98.5501 171.8 92.4501 163.6 86.9501Z" fill="#00479D"/>
<path d="M70.1997 72.7501C68.2997 73.6501 66.4997 74.6501 64.5997 75.6501C59.8997 78.2501 55.2997 81.1501 50.7997 84.2501C49.7997 84.9501 48.1997 85.5501 47.2997 85.6501C41.4997 86.1501 35.4997 87.0501 29.7997 88.3501C28.9997 88.5501 28.9997 88.0501 29.9997 87.2501C35.8997 82.3501 41.9997 77.8501 48.4997 73.8501C49.3997 73.2501 50.8997 72.7501 51.7997 72.6501C56.1997 72.1501 60.6997 71.9501 65.1997 71.8501H70.0997C71.0997 71.8501 71.0997 72.2501 70.1997 72.7501Z" fill="#00479D"/>
<path d="M130 86.2501C126.6 87.1501 123.4 88.0501 120.1 89.0501C118.3 89.5501 116.5 90.1501 114.7 90.8501C113.1 91.3501 111.5 91.9501 109.9 92.5501C108.9 92.9501 107 92.9501 105.8 92.5501C105.7 92.5501 105.6 92.4501 105.5 92.4501C104.4 92.0501 103.3 91.7501 102.2 91.3501C100.1 90.6501 97.8998 90.0501 95.7998 89.5501C93.2998 88.9501 90.7998 88.3501 88.2998 87.8501C86.4998 87.5501 84.7997 87.1501 82.9997 86.9501C81.8997 86.7501 81.7997 86.1501 82.8997 85.6501C83.8997 85.1501 84.8997 84.5501 85.9997 84.0501C91.4997 81.3501 97.0997 79.0501 102.9 77.0501C103.9 76.7501 105.6 76.6501 106.7 76.9501C113.1 78.6501 119.3 80.6501 125.4 83.1501C126.8 83.7501 128.2 84.3501 129.6 84.9501C130.9 85.3501 131 85.9501 130 86.2501Z" fill="#00479D"/>
<path d="M162.9 107.15C156.1 107.95 149.9 109.05 143.2 110.55C142.2 110.85 140.3 110.35 139.1 109.45C133.8 105.85 128.5 102.75 123 99.85C121.7 99.15 120.3 98.45 119 97.85C117.7 97.25 116.4 96.55 115 95.95C113.8 95.45 113.6 94.65 114.7 94.25C115.4 94.05 116 93.85 116.7 93.55C118.1 93.05 119.5 92.65 120.9 92.15C125.4 90.75 130 89.55 134.7 88.35C135.7 88.15 137.5 88.45 138.7 89.15C147.1 93.65 155.2 98.95 162.5 105.15C163.7 106.15 163.9 107.05 162.9 107.15Z" fill="#00479D"/>
<path d="M43.4 89.85C44.4 89.05 44.4 88.55 43.5 88.65C37.7 89.25 31.9 90.25 26.2 91.65C25.4 91.85 23.9 92.75 23 93.55C16.6 99.95 10.7 106.45 5.19997 113.55C4.29997 114.75 4.19997 115.45 4.99997 115.15C11.5 112.75 14.7 111.75 21 110.25C21.9 110.05 23.3 109.05 24.3 107.95C30.4 101.35 36.6 95.45 43.4 89.85Z" fill="#00479D"/>
<path d="M70.8001 88.1501C64.0001 87.7501 57.5001 87.7501 50.7001 87.9501C49.7001 88.0501 48.1001 88.6501 47.1001 89.4501C40.2001 94.9501 33.9001 100.75 27.8001 107.15C26.8001 108.25 26.8001 108.95 27.7001 108.75C34.1001 107.75 40.4001 106.85 46.8001 106.75C47.8001 106.75 49.5001 105.95 50.5001 104.95C57.0001 99.2501 63.6001 94.1501 70.8001 89.4501C71.9001 88.8501 71.9001 88.2501 70.8001 88.1501Z" fill="#00479D"/>
<path d="M102 95.9501C95.9998 99.0501 90.1998 102.25 84.6998 106.05C84.1998 106.35 83.6998 106.75 83.1998 107.15C82.4998 107.65 81.6998 108.25 80.9998 108.75C79.8998 109.55 78.0998 109.95 76.8998 109.75C69.5998 108.15 62.1998 107.15 54.6998 106.95C53.5998 106.95 53.5998 106.15 54.5998 105.25C60.8998 99.5501 67.7998 94.7501 74.9998 90.1501C75.9998 89.5501 77.7998 89.1501 78.8998 89.2501C81.8998 89.6501 84.9998 90.1501 87.8998 90.8501C89.4998 91.1501 91.0998 91.5501 92.6998 91.9501C95.6998 92.6501 98.6998 93.5501 101.6 94.4501C103 94.6501 103.1 95.4501 102 95.9501Z" fill="#00479D"/>
<path d="M135.4 112.95C127.9 115.55 120.8 118.95 114.1 123.05C113 123.75 111.2 123.65 109.9 122.95C102.1 118.45 94.3998 115.05 85.8998 112.05C84.6998 111.65 84.5998 110.75 85.5998 109.95C91.3998 105.75 97.4998 102.05 104 98.85C104.1 98.75 104.2 98.75 104.4 98.65C105.2 98.25 105.9 97.85 106.7 97.55C107.8 97.05 109.6 97.05 110.9 97.55C114.7 99.25 118.3 100.95 121.8 102.85C122.6 103.25 123.5 103.75 124.3 104.15C128 106.15 131.5 108.35 135.1 110.65C136.3 111.65 136.4 112.65 135.4 112.95Z" fill="#00479D"/>
<path d="M681.64 27.4201L678.06 21.2101H676.12V27.4201H673.57V11.8901H678.93C680.12 11.8901 681.13 12.1001 681.96 12.5201C682.79 12.9401 683.4 13.5001 683.81 14.2001C684.22 14.9001 684.42 15.6801 684.42 16.5501C684.42 17.5601 684.13 18.4801 683.54 19.3101C682.95 20.1401 682.05 20.7001 680.83 21.0001L684.67 27.4301H681.63L681.64 27.4201ZM676.13 19.1701H678.94C679.89 19.1701 680.61 18.9301 681.1 18.4501C681.58 17.9701 681.83 17.3301 681.83 16.5301C681.83 15.7301 681.59 15.1001 681.11 14.6401C680.63 14.1901 679.91 13.9601 678.94 13.9601H676.13V19.1701Z" fill="#00479D"/>
<path d="M678.32 36.9001C668.94 36.9001 661.3 29.2701 661.3 19.8801C661.3 10.4901 668.93 2.86011 678.32 2.86011C687.71 2.86011 695.34 10.4901 695.34 19.8801C695.34 29.2701 687.71 36.9001 678.32 36.9001ZM678.32 5.47011C670.37 5.47011 663.9 11.9401 663.9 19.8901C663.9 27.8401 670.37 34.3101 678.32 34.3101C686.27 34.3101 692.74 27.8401 692.74 19.8901C692.74 11.9401 686.27 5.47011 678.32 5.47011Z" fill="#00479D"/>
</svg>
