<?xml version="1.0" encoding="UTF-8"?>
<svg id="Layer_1" xmlns="http://www.w3.org/2000/svg" version="1.1" viewBox="0 0 301 53">
  <!-- Generator: Adobe Illustrator 29.5.1, SVG Export Plug-In . SVG Version: 2.1.0 Build 141)  -->
  <defs>
    <style>
      .st0 {
        fill: #6a6f73;
      }

      .st1 {
        fill: #efefef;
      }
    </style>
  </defs>
  <g>
    <path class="st1" d="M102.15,33.17c-1.62,0-2.76-.09-3.53-.21s-1.15-.3-1.15-.51l1.4-3.06c.55.09,1.87.17,4.04.26s5.1.13,8.88.13h.68c1.02,0,1.74-.17,2.17-.55s.64-.98.64-1.87v-.72c0-.81-.17-1.4-.51-1.74-.34-.34-1.11-.51-2.3-.51h-8.16c-2.38,0-4.12-.43-5.19-1.32s-1.62-2.34-1.62-4.34v-.55c0-1.02.21-2,.6-2.85s1.06-1.57,2-2.08c.94-.51,2.25-.81,3.87-.81h9.61c1.62,0,2.89.09,3.87.26.98.17,1.49.34,1.49.51l-.72,2.98c-.6-.09-2-.13-4.17-.21-2.17-.09-5.06-.13-8.71-.13l-.38-.04c-1.06,0-1.83.21-2.17.64-.38.43-.6.98-.6,1.66v.6c0,.77.21,1.36.64,1.74.43.38,1.15.6,2.17.6h7.82c1.49,0,2.81.17,3.83.47,1.06.3,1.87.85,2.42,1.66.55.81.85,2,.85,3.57v.55c0,1.74-.47,3.19-1.36,4.25s-2.47,1.62-4.72,1.62h-11.69v.04Z"/>
    <path class="st1" d="M128.46,33.17c-1.57,0-2.76-.3-3.53-.94s-1.15-1.66-1.15-3.1v-7.23c0-.34.04-.77.09-1.28s.21-1.02.51-1.49c.26-.51.72-.89,1.36-1.23.64-.34,1.53-.51,2.68-.51h9.74c1.19,0,2.08.17,2.72.51s1.11.72,1.36,1.23.43.98.51,1.49c.04.51.09.94.09,1.28v6.76c0,.43-.04.89-.09,1.4-.04.51-.21,1.02-.51,1.49s-.72.85-1.36,1.15-1.53.47-2.68.47h-9.74ZM129.82,30.15h7.06c1.15,0,1.74-.47,1.74-1.4v-6.93c0-.94-.6-1.4-1.74-1.4h-7.06c-1.15,0-1.7.47-1.7,1.4v6.93c0,.94.55,1.4,1.7,1.4Z"/>
    <path class="st1" d="M147.13,33.17V13.62l-.34-2.81h4.68v22.36h-4.34Z"/>
    <path class="st1" d="M160.18,33.17c-1.79,0-3.06-.43-3.87-1.23-.81-.85-1.19-2-1.19-3.44,0-1.53.43-2.72,1.23-3.53.85-.81,2.13-1.23,3.83-1.23h1.79c1.74,0,3.36.04,4.76.13,1.4.09,2.59.17,3.49.3v-2.34c0-.21-.04-.43-.09-.64s-.17-.43-.43-.55-.64-.21-1.19-.21h-1.7c-2.55,0-4.72.04-6.42.13s-2.89.17-3.49.21l-.38-2.68c0-.34.89-.51,2.68-.6s4.76-.09,8.97-.09h1.79c1.19,0,2.08.17,2.72.51s1.11.72,1.36,1.23.43.98.51,1.49c.04.51.09.94.09,1.28v11.31h-2.89l-1.36-.72c-.98.17-2.17.34-3.57.47-1.4.17-2.98.21-4.76.21h-1.87ZM161.11,30.15h8.08c.51,0,.81-.04.94-.13.09-.09.13-.38.13-.89v-2.72h-9.14c-.64,0-1.06.17-1.32.47s-.38.81-.38,1.45.13,1.15.43,1.4c.3.3.72.43,1.28.43Z"/>
    <path class="st1" d="M178.63,33.17v-15.77h2.89l1.36.72c.6-.34,1.28-.6,1.96-.77.72-.17,1.62-.3,2.68-.3,1.7,0,3.1.17,4.17.55,1.06.38,1.79.64,2.13.85l-1.23,3.06c-.3-.13-.77-.34-1.4-.55s-1.4-.43-2.3-.64c-.85-.17-1.83-.3-2.85-.3h-.38c-1.15,0-1.87.21-2.21.68-.34.47-.51,1.19-.55,2.21v10.25h-4.25Z"/>
    <path class="st1" d="M197.33,33.17V15.27l-.34-2.81h5.1l11.99,12.54,1.36,1.91h.38v-14.45h4.68v20.75h-4.46l-12.29-12.75-1.36-1.66h-.34v14.41h-4.72v-.04Z"/>
    <path class="st1" d="M229.73,33.17c-1.19,0-2.08-.17-2.72-.47s-1.11-.68-1.36-1.15c-.26-.47-.43-.98-.51-1.49-.04-.51-.09-.98-.09-1.4v-6.76c0-.34.04-.77.09-1.28.04-.51.21-1.02.51-1.49.26-.51.72-.89,1.36-1.23.64-.34,1.53-.51,2.68-.51h7.57c1.57,0,2.76.13,3.66.43s1.49.77,1.87,1.45c.38.64.55,1.53.55,2.64v5.23h-6.16c-2.13,0-3.83-.04-5.19-.13-1.32-.09-2.21-.17-2.68-.17v1.91c-.04.94.55,1.4,1.7,1.4h1.79c1.28,0,2.51,0,3.74-.04,1.19-.04,2.34-.09,3.32-.13,1.02-.04,1.83-.13,2.42-.17l1.4,2.3c0,.72-2.34,1.11-6.97,1.11h-6.97v-.04ZM229.39,24.07h9.69v-2.25c0-.47-.04-.81-.17-.98-.09-.17-.43-.3-.94-.34s-1.4-.09-2.64-.09h-4.25c-1.15,0-1.7.47-1.7,1.4v2.25h0Z"/>
    <path class="st1" d="M253.45,33.17c-1.79,0-3.02-.38-3.66-1.15-.64-.77-.98-1.87-.98-3.4v-8.2h-2.89v-3.02h1.49c.47,0,.77-.09.98-.21s.34-.43.43-.85l.72-3.78h3.61v4.85h7.35v3.02h-7.4v8.29c0,.6.13.98.43,1.15.3.17.72.3,1.28.3h4.97l.34,2.68c-.51.09-1.23.13-2.25.21-1.02.09-2.13.13-3.32.13h-1.11Z"/>
    <path class="st1" d="M267.26,33.17c-1.57,0-2.68-.09-3.36-.26-.64-.17-.98-.34-.98-.51l1.06-2.64c.68.09,1.96.13,3.74.21,1.83.09,4.08.13,6.76.13h1.79c.6,0,.98-.17,1.11-.47.17-.3.21-.77.21-1.28,0-.55-.09-.98-.26-1.32-.17-.34-.55-.51-1.06-.51h-8.71c-1.66,0-2.85-.3-3.57-.94s-1.11-1.57-1.11-2.81v-1.4c0-.34.04-.72.09-1.15.09-.47.26-.89.51-1.36.3-.47.72-.81,1.36-1.11.64-.3,1.53-.43,2.64-.43h9.74c1.4,0,2.42.09,3.02.26.6.17.89.34.89.51l-.34,2.64c-.68-.09-1.96-.13-3.78-.21-1.83-.09-4.08-.13-6.76-.13h-1.79c-.6,0-.98.17-1.11.47-.17.3-.21.68-.21,1.11,0,.47.09.81.21,1.11.17.3.51.43,1.11.43h8.67c1.62,0,2.76.34,3.53.98s1.15,1.49,1.15,2.51v2.08c0,.43-.04.85-.09,1.36-.04.47-.21.89-.51,1.32s-.72.77-1.36,1.02-1.53.38-2.68.38c0,0-9.91,0-9.91,0Z"/>
  </g>
  <g>
    <path class="st0" d="M97.69,45.84v-6.5l-.13-1.02h5.65c.55,0,.98.09,1.28.21s.55.34.68.55c.17.26.26.47.3.77.04.26.09.51.09.77v.77c0,.21-.04.43-.09.68-.04.26-.17.47-.34.72-.17.21-.38.43-.72.55-.3.17-.72.21-1.19.21h-1.32c-.55,0-1.02,0-1.49-.04s-.81-.04-1.06-.09v2.42h-1.66ZM99.39,42.27h3.49c.38,0,.64-.09.81-.3.13-.17.21-.43.21-.68v-.81c0-.26-.09-.51-.21-.68s-.43-.3-.77-.3h-3.49v2.76h-.04Z"/>
    <path class="st0" d="M116.39,45.97c-.34,0-.68-.04-1.02-.17s-.72-.38-1.11-.81l-.94-.94c-.38-.38-.81-.68-1.23-.85-.47-.17-1.02-.26-1.7-.26h-.38v2.85h-1.7v-6.46l-.13-1.02h5.65c.55,0,.98.09,1.28.21s.55.34.68.55c.17.26.26.47.3.77.04.26.09.51.09.77v.26c0,.17-.04.38-.09.64s-.17.47-.3.68c-.13.21-.34.43-.64.55-.26.17-.64.26-1.06.26.13.04.26.17.43.26.17.13.34.26.51.38.17.13.34.3.51.38s.26.21.34.26c.3.17.6.3.81.38.26.09.43.13.6.13h.26l-.26,1.02c-.09.04-.21.04-.38.09-.04.09-.26.09-.51.09ZM111.97,41.84h.85c.26,0,.47-.04.68-.04.38-.04.64-.13.81-.3.17-.17.21-.38.21-.64v-.3c0-.26-.09-.51-.21-.68s-.43-.3-.77-.3h-3.49v2.21c.38.04.72.04,1.02.04.3-.04.6,0,.89,0Z"/>
    <path class="st0" d="M121.87,45.84c-.6,0-1.06-.09-1.4-.26s-.6-.43-.72-.77c-.13-.34-.21-.77-.21-1.28v-2.98c0-.51.09-.89.21-1.23s.38-.6.72-.77c.34-.17.81-.26,1.4-.26h3.74c.6,0,1.06.09,1.4.26s.6.43.72.77.21.77.21,1.23v2.98c0,.77-.17,1.32-.51,1.7-.34.38-.94.6-1.83.6h-3.74ZM122.26,44.61h3.02c.3,0,.55-.09.72-.26.17-.17.26-.38.26-.68v-3.27c0-.26-.09-.47-.26-.64s-.43-.26-.72-.26h-3.02c-.3,0-.55.09-.72.26-.17.17-.3.38-.3.64v3.27c0,.3.09.51.26.68.21.17.47.26.77.26Z"/>
    <path class="st0" d="M133.31,45.84v-6.29h-3.32v-1.23h8.33v1.23h-3.36v6.29h-1.66Z"/>
    <path class="st0" d="M140.45,45.84v-7.52h7.95v1.23h-6.25v1.79h4.8v1.28h-4.8v2.04h6.33l.51,1.11s-.13.09-.34.09c-.21.04-.64.04-1.19.04h-7.01v-.04Z"/>
    <path class="st0" d="M153.33,45.84c-.6,0-1.06-.09-1.4-.26s-.6-.43-.72-.77c-.13-.34-.21-.77-.21-1.28v-2.85c0-.81.17-1.4.55-1.83.38-.38.98-.6,1.79-.6h3.87c.6,0,1.02.04,1.36.09s.47.13.47.21l-.26,1.06c-.13-.04-.55-.04-1.28-.09s-1.74-.04-3.1-.04h-.64c-.68,0-1.02.3-1.02.89v3.27c0,.3.09.51.21.68.17.17.43.26.81.26h.51c1.4,0,2.51,0,3.32-.04.77-.04,1.28-.04,1.45-.09l.51.85s-.09.13-.21.21-.38.17-.77.21c-.38.09-.94.09-1.62.09,0,0-3.61,0-3.61,0Z"/>
    <path class="st0" d="M164.22,45.84v-6.29h-3.36v-1.23h8.37v1.23h-3.36v6.29h-1.66Z"/>
    <path class="st0" d="M177.86,45.84v-3.1l-3.74-4.42h2.04l1.91,2.38.6.81h.13l.6-.81,1.91-2.38h2.04l-.51.77-3.27,3.7v3.06h-1.7Z"/>
    <path class="st0" d="M187.17,45.84c-.6,0-1.06-.09-1.4-.26s-.6-.43-.72-.77c-.13-.34-.21-.77-.21-1.28v-2.98c0-.51.09-.89.21-1.23s.38-.6.72-.77c.34-.17.81-.26,1.4-.26h3.74c.6,0,1.06.09,1.4.26s.6.43.72.77.21.77.21,1.23v2.98c0,.77-.17,1.32-.51,1.7-.34.38-.94.6-1.83.6h-3.74ZM187.55,44.61h3.02c.3,0,.55-.09.72-.26.17-.17.26-.38.26-.68v-3.27c0-.26-.09-.47-.26-.64s-.43-.26-.72-.26h-3.02c-.3,0-.55.09-.72.26-.17.17-.3.38-.3.64v3.27c0,.3.09.51.26.68.21.17.47.26.77.26Z"/>
    <path class="st0" d="M197.93,45.97c-.77,0-1.32-.21-1.62-.64s-.47-.98-.47-1.66v-5.36h1.7v5.4c0,.38.09.68.3.81s.43.21.72.21h2.72c.26,0,.51-.09.72-.21s.3-.43.3-.81v-5.4h1.7v5.36c0,.47-.09.85-.21,1.19s-.34.6-.64.81-.72.3-1.23.3h-4Z"/>
    <path class="st0" d="M214.85,45.97c-.34,0-.68-.04-1.02-.17s-.72-.38-1.11-.81l-.94-.94c-.38-.38-.81-.68-1.23-.85-.47-.17-1.02-.26-1.7-.26h-.38v2.85h-1.7v-6.46l-.13-1.02h5.65c.55,0,.98.09,1.28.21s.55.34.68.55c.17.26.26.47.3.77.04.26.09.51.09.77v.26c0,.17-.04.38-.09.64s-.17.47-.3.68c-.13.21-.34.43-.64.55-.26.17-.64.26-1.06.26.13.04.26.17.43.26.17.13.34.26.51.38.17.13.34.3.51.38s.26.21.34.26c.3.17.6.3.81.38.26.09.43.13.6.13h.26l-.26,1.02c-.09.04-.21.04-.38.09-.04.09-.26.09-.51.09ZM210.43,41.84h.85c.26,0,.47-.04.68-.04.38-.04.64-.13.81-.3.17-.17.21-.38.21-.64v-.3c0-.26-.09-.51-.21-.68s-.43-.3-.77-.3h-3.49v2.21c.38.04.72.04,1.02.04.34-.04.6,0,.89,0Z"/>
    <path class="st0" d="M221.95,45.84v-6.5l-.13-1.02h5.65c.55,0,.98.09,1.28.21s.55.34.68.55c.17.26.26.47.3.77.04.26.09.51.09.77v.77c0,.21-.04.43-.09.68-.04.26-.17.47-.34.72-.17.21-.38.43-.72.55-.3.17-.72.21-1.19.21h-1.32c-.55,0-1.02,0-1.49-.04s-.81-.04-1.06-.09v2.42h-1.66ZM223.6,42.27h3.49c.38,0,.64-.09.81-.3.13-.17.21-.43.21-.68v-.81c0-.26-.09-.51-.21-.68s-.43-.3-.77-.3h-3.49v2.76h-.04Z"/>
    <path class="st0" d="M230.66,45.84l3.74-7.52h2.51l3.74,7.52h-1.96l-.77-1.62h-4.59l-.85,1.62h-1.83ZM233.81,42.95h3.66l-1.74-3.49h-.13l-1.79,3.49Z"/>
    <path class="st0" d="M242.69,45.84v-6.5l-.13-1.02h1.83l4.34,4.55.51.68h.13v-5.23h1.7v7.52h-1.62l-4.46-4.63-.51-.6h-.13v5.23h-1.66Z"/>
    <path class="st0" d="M253.96,45.84v-7.52h7.95v1.23h-6.25v1.79h4.8v1.28h-4.8v2.04h6.33l.51,1.11s-.13.09-.34.09c-.21.04-.64.04-1.19.04h-7.01v-.04Z"/>
    <path class="st0" d="M264.63,45.84l.13-1.02v-6.5h1.7v6.29h5.31l.51,1.11s-.13.09-.34.09-.64.04-1.19.04h-6.12Z"/>
    <path class="st0" d="M275.72,45.84c-.6,0-1.02-.04-1.28-.09s-.43-.13-.43-.17l.51-1.11c.21.04.68.09,1.45.09.77.04,1.87.04,3.23.04h.26c.38,0,.64-.09.77-.21.17-.13.21-.34.21-.68v-.26c0-.3-.04-.51-.17-.64-.13-.13-.38-.21-.81-.21h-2.98c-.85,0-1.49-.17-1.87-.47-.38-.34-.6-.85-.6-1.57v-.21c0-.38.09-.72.21-1.02s.38-.55.72-.77.81-.3,1.4-.3h3.49c.6,0,1.06.04,1.4.09s.55.13.55.21l-.26,1.06c-.21-.04-.72-.04-1.53-.09-.77-.04-1.83-.04-3.15-.04h-.13c-.38,0-.64.09-.81.26-.13.17-.21.34-.21.6v.21c0,.3.09.51.26.64s.43.21.81.21h2.85c.55,0,1.02.04,1.4.17s.68.3.89.6c.21.3.3.72.3,1.32v.21c0,.64-.17,1.15-.51,1.53s-.89.6-1.7.6c0,0-4.29,0-4.29,0Z"/>
  </g>
  <g>
    <path class="st1" d="M31.58,19.23l-7.86-4.38,8.63,2.51c.98.3,2.04-.09,2.64-.94,0-.04.04-.04.04-.09.64-.89.64-2.04-.04-2.89l-1.62-2.04,2,1.62c.85.68,2.04.72,2.93.13l.09-.09c.85-.6,1.23-1.62.98-2.64l-2.38-8.63,4.34,7.86c.51.89,1.53,1.4,2.55,1.19h.13c1.06-.17,1.87-1.06,2-2.13l.3-2.55.3,2.59c.13,1.06.94,1.91,2,2.13h.09c1.02.17,2.04-.3,2.55-1.19l4.42-7.82-2.51,8.63c-.3.98.09,2.04.94,2.64.04,0,.04.04.09.04.89.64,2.08.6,2.89-.04l2.04-1.62-1.62,2c-.68.85-.72,2.04-.13,2.89,0,.04.04.09.04.09.6.85,1.66,1.23,2.64.98l8.67-2.42-7.91,4.34c-.89.51-1.4,1.53-1.19,2.51v.13c.17,1.06,1.06,1.87,2.13,2l2.55.3-2.59.3c-.72.09-1.32.47-1.7,1.02-5.31-.94-10.63-1.4-16.11-1.32-.72.04-1.11.04-1.87.09-3.23.26-6.42.68-9.57,1.23-.38-.68-1.06-1.11-1.83-1.23l-2.55-.3,2.59-.3c1.06-.13,1.91-.94,2.13-2v-.09c.17-.98-.3-2-1.19-2.51"/>
    <path class="st0" d="M63.55,28.03c-1.53.09-2.59.13-3.74.26-.68.09-1.45.17-2.34.3-.38.04-1.06-.04-1.53-.17-2.89-.98-5.87-1.74-8.84-2.34-.17-.04-.3-.09-.34-.13,4.34.13,8.54.55,12.8,1.32,1.32.17,2.64.47,4,.77"/>
    <path class="st0" d="M42.46,26.24c-2.68.89-5.23,1.83-7.82,2.89-.43.17-1.06.34-1.49.3-.72-.04-1.45-.04-2.21-.04-1.87,0-3.74.09-5.61.21-.38.04-.38-.13.04-.34.51-.3.77-.43,1.23-.68,2.04-.51,4.08-.98,6.12-1.36,3.27-.6,6.55-1.02,9.95-1.23.09.09.04.17-.21.26"/>
    <path class="st0" d="M54.45,28.62c-2.89-.94-5.87-1.66-8.84-2.17-.43-.09-1.11-.04-1.49.04-2.68.81-5.27,1.66-7.82,2.72-.43.17-.38.34.04.38,3.02.34,5.87.72,8.84,1.32.47.09,1.19.09,1.62-.04,2.55-.81,5.23-1.45,7.86-1.87.34-.09.26-.26-.21-.38"/>
    <path class="st0" d="M43.65,31.94c-2.3.85-4.55,1.79-6.72,2.89-.6.3-1.19.6-1.74.94-.21.09-.47.21-.72.26-.17.04-.34.09-.51.09h-.43c-2.89-.21-5.7-.3-8.59-.21-.43,0-.43-.21,0-.51,2.47-1.66,5.06-3.15,7.69-4.46.17-.09.38-.17.55-.26.43-.21,1.11-.34,1.53-.3,3.02.26,5.87.64,8.8,1.15.51.09.55.26.13.43"/>
    <path class="st0" d="M77.24,35.17c-2.72-.3-4.08-.38-6.72-.38-.34,0-1.06-.26-1.53-.55-.6-.38-1.23-.72-1.87-1.02-2.47-1.36-5.06-2.51-7.65-3.61-.47-.17-.55-.38-.17-.43.43-.04.85-.09,1.19-.13,2.04-.21,3.4-.3,5.82-.3.34,0,.98.17,1.45.43,3.19,1.66,6.21,3.44,9.23,5.44.47.34.6.6.26.55"/>
    <path class="st0" d="M89.69,46.05c-2.76-3.19-5.87-6.12-9.14-8.76-.47-.38-1.11-.72-1.45-.77-2.72-.34-4.04-.43-6.67-.51-.34,0-.26.26.26.6,3.44,2.38,6.72,5.02,9.65,7.99.47.47,1.15.94,1.49.98,2.42.38,3.66.6,6.16,1.28.3.09.17-.26-.3-.81"/>
    <path class="st0" d="M67.8,34.87c-2.55.09-5.14.38-7.65.81-.43.09-1.15-.09-1.66-.3-.47-.21-.89-.43-1.36-.6-2.72-1.19-5.53-2.17-8.37-2.98-.47-.13-.55-.34-.13-.47,2.55-.77,5.23-1.36,7.82-1.74.38-.04,1.06.04,1.57.21,1.87.72,3.66,1.49,5.44,2.34h0c1.4.68,2.76,1.4,4.08,2.17.51.3.6.55.26.55"/>
    <path class="st0" d="M71.29,36.61c-.51-.34-1.19-.6-1.57-.55-2.51.04-5.14.26-7.61.64-.43.04-.34.34.17.6,3.57,2,6.97,4.29,10.08,6.93.51.43,1.23.81,1.62.77,2.38-.09,4.89,0,7.27.26.34.04.21-.34-.26-.81-2.93-2.89-6.21-5.48-9.69-7.82"/>
    <path class="st0" d="M31.58,30.58c-.81.38-1.57.81-2.38,1.23-2,1.11-3.95,2.34-5.87,3.66-.43.3-1.11.55-1.49.6-2.47.21-5.02.6-7.44,1.15-.34.09-.34-.13.09-.47,2.51-2.08,5.1-4,7.86-5.7.38-.26,1.02-.47,1.4-.51,1.87-.21,3.78-.3,5.7-.34h2.08c.43,0,.43.17.04.38"/>
    <path class="st0" d="M57,36.32c-1.45.38-2.81.77-4.21,1.19-.77.21-1.53.47-2.3.77-.68.21-1.36.47-2.04.72-.43.17-1.23.17-1.74,0-.04,0-.09-.04-.13-.04-.47-.17-.94-.3-1.4-.47-.89-.3-1.83-.55-2.72-.77-1.06-.26-2.13-.51-3.19-.72-.77-.13-1.49-.3-2.25-.38-.47-.09-.51-.34-.04-.55.43-.21.85-.47,1.32-.68,2.34-1.15,4.72-2.13,7.18-2.98.43-.13,1.15-.17,1.62-.04,2.72.72,5.36,1.57,7.95,2.64.6.26,1.19.51,1.79.77.55.17.6.43.17.55"/>
    <path class="st0" d="M70.99,45.2c-2.89.34-5.53.81-8.37,1.45-.43.13-1.23-.09-1.74-.47-2.25-1.53-4.51-2.85-6.84-4.08-.55-.3-1.15-.6-1.7-.85s-1.11-.55-1.7-.81c-.51-.21-.6-.55-.13-.72.3-.09.55-.17.85-.3.6-.21,1.19-.38,1.79-.6,1.91-.6,3.87-1.11,5.87-1.62.43-.09,1.19.04,1.7.34,3.57,1.91,7.01,4.17,10.12,6.8.51.43.6.81.17.85"/>
    <path class="st0" d="M20.19,37.85c.43-.34.43-.55.04-.51-2.47.26-4.93.68-7.35,1.28-.34.09-.98.47-1.36.81-2.72,2.72-5.23,5.48-7.57,8.5-.38.51-.43.81-.09.68,2.76-1.02,4.12-1.45,6.8-2.08.38-.09.98-.51,1.4-.98,2.59-2.81,5.23-5.31,8.12-7.69"/>
    <path class="st0" d="M31.83,37.12c-2.89-.17-5.65-.17-8.54-.09-.43.04-1.11.3-1.53.64-2.93,2.34-5.61,4.8-8.2,7.52-.43.47-.43.77-.04.68,2.72-.43,5.4-.81,8.12-.85.43,0,1.15-.34,1.57-.77,2.76-2.42,5.57-4.59,8.63-6.59.47-.26.47-.51,0-.55"/>
    <path class="st0" d="M45.1,40.44c-2.55,1.32-5.02,2.68-7.35,4.29-.21.13-.43.3-.64.47-.3.21-.64.47-.94.68-.47.34-1.23.51-1.74.43-3.1-.68-6.25-1.11-9.44-1.19-.47,0-.47-.34-.04-.72,2.68-2.42,5.61-4.46,8.67-6.42.43-.26,1.19-.43,1.66-.38,1.28.17,2.59.38,3.83.68.68.13,1.36.3,2.04.47,1.28.3,2.55.68,3.78,1.06.6.09.64.43.17.64"/>
    <path class="st0" d="M59.3,47.67c-3.19,1.11-6.21,2.55-9.05,4.29-.47.3-1.23.26-1.79-.04-3.32-1.91-6.59-3.36-10.2-4.63-.51-.17-.55-.55-.13-.89,2.47-1.79,5.06-3.36,7.82-4.72.04-.04.09-.04.17-.09.34-.17.64-.34.98-.47.47-.21,1.23-.21,1.79,0,1.62.72,3.15,1.45,4.63,2.25.34.17.72.38,1.06.55,1.57.85,3.06,1.79,4.59,2.76.51.43.55.85.13.98"/>
  </g>
  <g>
    <path class="st1" d="M291.51,11.3l-1.52-2.64h-.83v2.64h-1.08v-6.6h2.28c.51,0,.94.09,1.29.27.35.18.61.41.79.71.17.3.26.63.26,1,0,.43-.13.82-.38,1.17s-.63.59-1.15.72l1.63,2.73h-1.29ZM289.17,7.8h1.2c.41,0,.71-.1.92-.3.21-.2.31-.48.31-.82s-.1-.61-.3-.8c-.2-.19-.51-.29-.92-.29h-1.2v2.21Z"/>
    <path class="st1" d="M290.1,15.37c-4.01,0-7.27-3.26-7.27-7.27s3.26-7.27,7.27-7.27,7.27,3.26,7.27,7.27-3.26,7.27-7.27,7.27ZM290.1,2.01c-3.36,0-6.09,2.73-6.09,6.1s2.73,6.09,6.09,6.09,6.09-2.73,6.09-6.09-2.73-6.1-6.09-6.1Z"/>
  </g>
</svg>