<svg width="18" height="18" viewBox="0 0 18 18" fill="none" xmlns="http://www.w3.org/2000/svg">
<path d="M9.21 12.1607C9.23943 12.1413 10.6027 11.336 10.6027 11.336C10.905 11.1576 11.2799 11.1691 11.5712 11.3656C11.5712 11.3656 14.6398 13.4381 14.665 13.4594C15.0576 13.7904 15.1131 14.384 14.7892 14.7851C14.1664 15.5562 13.4584 16.1757 12.6635 16.6446C11.0665 17.5868 9.46398 16.3574 9.46398 16.3574C8.16157 15.3944 6.38608 13.068 5.32393 11.188C4.26178 9.30811 3.1779 6.57368 3.0129 4.93956C3.0129 4.93956 2.77227 2.9067 4.36926 1.96452C5.16418 1.49554 6.04317 1.17877 7.00801 1.01316C7.50995 0.92701 7.9852 1.27296 8.06952 1.78588C8.07494 1.81884 8.29706 5.57062 8.29706 5.57062C8.31797 5.92668 8.14022 6.26425 7.83792 6.4426C7.83792 6.4426 6.47379 7.24635 6.44261 7.26267C6.76795 9.13397 7.76795 10.866 9.21 12.1607Z" fill="white"/>
</svg>
