<svg width="123" height="122" viewBox="0 0 123 122" fill="none" xmlns="http://www.w3.org/2000/svg">
<rect x="0.949707" y="0.234375" width="121.172" height="121.172" fill="white"/>
<mask id="mask0_708_1399" style="mask-type:luminance" maskUnits="userSpaceOnUse" x="17" y="16" width="89" height="89">
<path d="M105.413 104.694C105.413 104.694 80.2501 98.1869 61.536 98.1869C40.4695 98.1869 17.6592 104.694 17.6592 104.694C17.6592 104.694 24.1662 79.502 24.1662 58.1948C24.1662 35.2641 17.6592 16.9436 17.6592 16.9436C17.6592 16.9436 36.5295 23.4506 58.8388 23.4506C81.1481 23.4506 105.409 16.9436 105.409 16.9436C105.409 16.9436 98.9025 38.0849 98.9025 59.6198C98.9025 82.6872 105.409 104.697 105.409 104.697L105.413 104.694Z" fill="white"/>
</mask>
<g mask="url(#mask0_708_1399)">
<path d="M17.7818 15.7849L16.6348 16.9384L164.271 163.752L165.418 162.598L17.7818 15.7849Z" fill="#00479D"/>
<path d="M10.7687 17.0104L9.62158 18.1639L157.257 164.978L158.405 163.824L10.7687 17.0104Z" fill="#00479D"/>
<path d="M3.75791 18.2363L2.61084 19.3898L150.247 166.203L151.394 165.05L3.75791 18.2363Z" fill="#00479D"/>
<path d="M-3.25723 19.4602L-4.4043 20.6136L143.232 167.427L144.379 166.274L-3.25723 19.4602Z" fill="#00479D"/>
<path d="M-10.2689 20.6862L-11.416 21.8397L136.22 168.653L137.367 167.5L-10.2689 20.6862Z" fill="#00479D"/>
<path d="M-17.2768 21.9127L-18.4238 23.0662L129.212 169.88L130.359 168.726L-17.2768 21.9127Z" fill="#00479D"/>
<path d="M-24.2948 23.1389L-25.4419 24.2924L122.194 171.106L123.341 169.952L-24.2948 23.1389Z" fill="#00479D"/>
<path d="M-31.3061 24.3618L-32.4531 25.5153L115.183 172.329L116.33 171.175L-31.3061 24.3618Z" fill="#00479D"/>
<path d="M-38.3158 25.588L-39.4629 26.7415L108.173 173.555L109.32 172.402L-38.3158 25.588Z" fill="#00479D"/>
<path d="M-45.3295 26.8118L-46.4766 27.9653L101.159 174.779L102.306 173.625L-45.3295 26.8118Z" fill="#00479D"/>
<path d="M-52.3437 28.0405L-53.4907 29.194L94.1451 176.008L95.2922 174.854L-52.3437 28.0405Z" fill="#00479D"/>
<path d="M18.3209 8.2469L17.1738 9.40039L164.81 156.214L165.957 155.061L18.3209 8.2469Z" fill="#00479D"/>
<path d="M18.8624 0.712837L17.7153 1.86633L165.351 148.68L166.498 147.526L18.8624 0.712837Z" fill="#00479D"/>
<path d="M19.4 -6.82403L18.2529 -5.67053L165.889 141.143L167.036 139.99L19.4 -6.82403Z" fill="#00479D"/>
<path d="M19.9449 -14.3609L18.7979 -13.2074L166.434 133.606L167.581 132.453L19.9449 -14.3609Z" fill="#00479D"/>
<path d="M20.4879 -21.8951L19.3408 -20.7416L166.977 126.072L168.124 124.919L20.4879 -21.8951Z" fill="#00479D"/>
<path d="M21.025 -29.4354L19.8779 -28.2819L167.514 118.532L168.661 117.378L21.025 -29.4354Z" fill="#00479D"/>
<path d="M21.568 -36.9697L20.4209 -35.8162L168.057 110.997L169.204 109.844L21.568 -36.9697Z" fill="#00479D"/>
<path d="M22.1051 -44.5065L20.958 -43.353L168.594 103.461L169.741 102.307L22.1051 -44.5065Z" fill="#00479D"/>
<path d="M22.6485 -52.0408L21.5015 -50.8873L169.137 95.9263L170.284 94.7728L22.6485 -52.0408Z" fill="#00479D"/>
<path d="M23.19 -59.5806L22.043 -58.4271L169.679 88.3865L170.826 87.233L23.19 -59.5806Z" fill="#00479D"/>
<path d="M130.02 -8.30164L18.6445 103.074L19.7948 104.224L131.17 -7.15135L130.02 -8.30164Z" fill="#00479D"/>
<path d="M131.934 -1.99512L20.5581 109.38L21.7084 110.531L133.084 -0.844829L131.934 -1.99512Z" fill="#00479D"/>
<path d="M133.846 4.31433L22.4707 115.69L23.621 116.84L134.996 5.46462L133.846 4.31433Z" fill="#00479D"/>
<path d="M135.76 10.6238L24.3843 121.999L25.5346 123.15L136.91 11.7741L135.76 10.6238Z" fill="#00479D"/>
<path d="M137.676 16.9304L26.3003 128.306L27.4506 129.456L138.826 18.0807L137.676 16.9304Z" fill="#00479D"/>
<path d="M139.586 23.2399L28.2109 134.615L29.3612 135.766L140.737 24.3902L139.586 23.2399Z" fill="#00479D"/>
<path d="M141.5 29.5493L30.124 140.925L31.2743 142.075L142.65 30.6996L141.5 29.5493Z" fill="#00479D"/>
<path d="M143.413 35.8553L32.0371 147.231L33.1874 148.381L144.563 37.0056L143.413 35.8553Z" fill="#00479D"/>
<path d="M145.325 42.1649L33.9497 153.54L35.1 154.691L146.475 43.3152L145.325 42.1649Z" fill="#00479D"/>
<path d="M147.239 48.4723L35.8638 159.848L37.0141 160.998L148.39 49.6226L147.239 48.4723Z" fill="#00479D"/>
<path d="M149.152 54.7786L37.7764 166.154L38.9267 167.304L150.302 55.9289L149.152 54.7786Z" fill="#00479D"/>
<path d="M123.332 -9.71081L11.9565 101.665L13.1068 102.815L124.482 -8.56053L123.332 -9.71081Z" fill="#00479D"/>
<path d="M116.647 -11.1252L5.27148 100.25L6.42177 101.401L117.797 -9.97494L116.647 -11.1252Z" fill="#00479D"/>
<path d="M109.963 -12.5344L-1.41211 98.8411L-0.261822 99.9914L111.114 -11.3841L109.963 -12.5344Z" fill="#00479D"/>
<path d="M103.278 -13.9456L-8.09766 97.4299L-6.94737 98.5802L104.428 -12.7953L103.278 -13.9456Z" fill="#00479D"/>
<path d="M96.5884 -15.3568L-14.7871 96.0187L-13.6368 97.169L97.7387 -14.2065L96.5884 -15.3568Z" fill="#00479D"/>
<path d="M89.9053 -16.766L-21.4702 94.6095L-20.3199 95.7598L91.0556 -15.6157L89.9053 -16.766Z" fill="#00479D"/>
<path d="M83.2192 -18.1771L-28.1562 93.1984L-27.006 94.3487L84.3695 -17.0268L83.2192 -18.1771Z" fill="#00479D"/>
<path d="M76.5337 -19.5887L-34.8418 91.7867L-33.6915 92.937L77.684 -18.4385L76.5337 -19.5887Z" fill="#00479D"/>
<path d="M69.8462 -20.9974L-41.5293 90.3781L-40.379 91.5283L70.9965 -19.8471L69.8462 -20.9974Z" fill="#00479D"/>
<path d="M63.1606 -22.4089L-48.2148 88.9666L-47.0646 90.1168L64.3109 -21.2586L63.1606 -22.4089Z" fill="#00479D"/>
</g>
<path d="M15.9958 106.363L16.7441 104.352C16.8091 104.18 23.1893 86.7247 23.1893 58.1915C23.1893 29.6583 16.8449 17.4967 16.7799 17.3665L15.6704 15.076L18.0259 16.0391C18.1821 16.1042 34.0625 22.4745 58.8379 22.4745C85.3214 22.4745 104.908 16.0814 105.103 16.0163L107.1 15.3526L106.313 17.308C106.248 17.4674 99.8776 33.6048 99.8776 59.6165C99.8776 85.6283 106.261 104.183 106.326 104.362L107.016 106.275L105.093 105.618C104.904 105.553 85.9689 99.1629 61.5318 99.1629C35.4387 99.1629 18.1724 105.543 17.9999 105.608L15.9925 106.363H15.9958ZM61.5351 97.2108C81.915 97.2108 98.5339 101.603 103.902 103.2C102.288 97.9298 97.9288 81.6493 97.9288 59.6165C97.9288 37.5838 102.178 23.4343 103.847 18.4337C98.2932 20.0246 80.926 24.4266 58.8412 24.4266C38.8907 24.4266 24.5785 20.3402 19.4087 18.6094C21.2079 23.379 25.1446 36.3117 25.1446 58.198C25.1446 81.7274 20.8402 97.8615 19.2005 103.152C24.4061 101.505 40.0359 97.214 61.5383 97.214L61.5351 97.2108Z" fill="#56CCF2"/>
<path d="M107.986 17.9198C106.027 17.9198 104.436 16.3256 104.436 14.3703C104.436 12.4149 106.03 10.8207 107.986 10.8207C109.941 10.8207 111.535 12.4149 111.535 14.3703C111.535 16.3256 109.941 17.9198 107.986 17.9198ZM107.986 12.7695C107.104 12.7695 106.388 13.4853 106.388 14.367C106.388 15.2487 107.104 15.9645 107.986 15.9645C108.867 15.9645 109.583 15.2487 109.583 14.367C109.583 13.4853 108.867 12.7695 107.986 12.7695Z" fill="#56CCF2"/>
<path d="M107.986 110.821C106.027 110.821 104.436 109.227 104.436 107.271C104.436 105.316 106.03 103.722 107.986 103.722C109.941 103.722 111.535 105.316 111.535 107.271C111.535 109.227 109.941 110.821 107.986 110.821ZM107.986 105.671C107.104 105.671 106.388 106.386 106.388 107.268C106.388 108.15 107.104 108.865 107.986 108.865C108.867 108.865 109.583 108.15 109.583 107.268C109.583 106.386 108.867 105.671 107.986 105.671Z" fill="#56CCF2"/>
<path d="M15.0857 17.9198C13.1271 17.9198 11.5361 16.3256 11.5361 14.3703C11.5361 12.4149 13.1304 10.8207 15.0857 10.8207C17.0411 10.8207 18.6353 12.4149 18.6353 14.3703C18.6353 16.3256 17.0411 17.9198 15.0857 17.9198ZM15.0857 12.7695C14.204 12.7695 13.4882 13.4853 13.4882 14.367C13.4882 15.2487 14.204 15.9645 15.0857 15.9645C15.9674 15.9645 16.6832 15.2487 16.6832 14.367C16.6832 13.4853 15.9674 12.7695 15.0857 12.7695Z" fill="#56CCF2"/>
<path d="M15.0857 110.821C13.1271 110.821 11.5361 109.227 11.5361 107.271C11.5361 105.316 13.1304 103.722 15.0857 103.722C17.0411 103.722 18.6353 105.316 18.6353 107.271C18.6353 109.227 17.0411 110.821 15.0857 110.821ZM15.0857 105.671C14.204 105.671 13.4882 106.386 13.4882 107.268C13.4882 108.15 14.204 108.865 15.0857 108.865C15.9674 108.865 16.6832 108.15 16.6832 107.268C16.6832 106.386 15.9674 105.671 15.0857 105.671Z" fill="#56CCF2"/>
</svg>
