<svg width="122" height="122" viewBox="0 0 122 122" fill="none" xmlns="http://www.w3.org/2000/svg">
<rect x="0.462402" y="0.234375" width="121.172" height="121.172" fill="white"/>
<g clip-path="url(#clip0_708_1402)">
<path d="M33.8799 81.3507V85.6537L86.1969 116.351V112.048L33.8799 81.3507ZM67.7608 104.293C67.4691 104.293 67.2385 103.874 67.2385 103.367C67.2385 102.859 67.4759 102.44 67.7608 102.44C68.0457 102.44 68.2831 102.852 68.2831 103.367C68.2831 103.881 68.0457 104.293 67.7608 104.293ZM82.9614 113.283C82.6697 113.283 82.4391 112.872 82.4391 112.357C82.4391 111.842 82.6765 111.43 82.9614 111.43C83.2463 111.43 83.4837 111.849 83.4837 112.357C83.4837 112.865 83.2463 113.283 82.9614 113.283Z" fill="#56CCF2"/>
<path d="M82.7306 118.321L30.4136 87.6233L33.8729 85.6537L86.1899 116.351L82.7306 118.321Z" fill="#BBEBFA"/>
<path d="M91.6839 5.68152L87.2885 5.80505L62.022 84.1577L66.6412 82.7302L91.6839 5.68152Z" fill="#BBEBFA"/>
<path d="M83.5375 3.32068L87.2953 5.79129L62.022 84.1508L58.271 81.9684L83.5375 3.32068Z" fill="#56CCF2"/>
<path d="M67.7537 104.3C68.0422 104.3 68.276 103.885 68.276 103.373C68.276 102.862 68.0422 102.447 67.7537 102.447C67.4653 102.447 67.2314 102.862 67.2314 103.373C67.2314 103.885 67.4653 104.3 67.7537 104.3Z" fill="white"/>
<path d="M53.8553 96.2499C54.1437 96.2499 54.3776 95.8351 54.3776 95.3234C54.3776 94.8118 54.1437 94.397 53.8553 94.397C53.5668 94.397 53.333 94.8118 53.333 95.3234C53.333 95.8351 53.5668 96.2499 53.8553 96.2499Z" fill="white"/>
<path d="M38.2274 87.2734C38.5158 87.2734 38.7497 86.8586 38.7497 86.3469C38.7497 85.8352 38.5158 85.4204 38.2274 85.4204C37.9389 85.4204 37.7051 85.8352 37.7051 86.3469C37.7051 86.8586 37.9389 87.2734 38.2274 87.2734Z" fill="white"/>
<path d="M58.8071 97.2382L38.1055 109.495L34.4224 107.21L58.8071 92.9352V97.2382Z" fill="#00479D"/>
<path d="M58.7595 101.85L38.1258 114.224L38.0986 109.488L62.4155 95.1038L58.7595 101.85Z" fill="#56CCF2"/>
<path d="M66.6412 103.593L62.022 106.167V83.9449L66.6412 82.5175V103.593Z" fill="#00479D"/>
<path d="M58.271 103.964L62.022 106.167V84.1508L58.271 81.9684V103.964Z" fill="#56CCF2"/>
<path d="M85.0853 7.75459C85.1902 7.20763 84.9622 6.70278 84.5761 6.62698C84.1899 6.55118 83.7919 6.93313 83.687 7.48009C83.5821 8.02706 83.8101 8.53191 84.1962 8.60771C84.5824 8.68351 84.9804 8.30156 85.0853 7.75459Z" fill="white"/>
</g>
<defs>
<clipPath id="clip0_708_1402">
<rect width="61.2705" height="115" fill="white" transform="translate(30.4136 3.32068)"/>
</clipPath>
</defs>
</svg>
