<svg width="123" height="122" viewBox="0 0 123 122" fill="none" xmlns="http://www.w3.org/2000/svg">
<rect x="0.949707" y="0.0439453" width="121.172" height="121.172" fill="white"/>
<g clip-path="url(#clip0_708_1400)">
<path d="M84.2526 46.296L75.6958 37.6409L39.9991 73.7479L48.5559 82.403L84.2526 46.296Z" fill="#56CCF2"/>
<path d="M100.587 34.9312C100.587 42.541 94.4793 48.7191 86.956 48.7191C79.4327 48.7191 73.312 42.541 73.312 34.9312C73.312 27.3214 79.4199 21.1304 86.956 21.1304C88.3204 21.1304 89.6338 21.3367 90.8707 21.7108L83.8319 28.8305C82.8373 29.8365 82.8373 31.4745 83.8319 32.4806L89.366 38.0783C90.3606 39.0843 91.98 39.0843 92.9747 38.0783L100.013 30.9586C100.383 32.2226 100.587 33.5511 100.587 34.9312Z" fill="#56CCF2"/>
<path d="M22.4849 86.3295C22.4849 78.7197 28.5928 72.5416 36.1161 72.5416C43.6394 72.5416 49.7601 78.7197 49.7601 86.3295C49.7601 93.9393 43.6522 100.13 36.1161 100.13C34.7517 100.13 33.4383 99.924 32.2014 99.5499L39.2402 92.4303C40.2348 91.4242 40.2348 89.7862 39.2402 88.7802L33.7061 83.1824C32.7115 82.1764 31.0921 82.1764 30.0974 83.1824L23.0587 90.3021C22.6889 89.0381 22.4849 87.7096 22.4849 86.3295Z" fill="#56CCF2"/>
<path d="M54.746 56.9481L58.2271 53.414L40.4006 35.5891L39.3805 31.0361L29.2304 25.0256L26.4634 27.9277L32.5075 37.9752L36.9195 38.6975L54.746 56.9481Z" fill="#00479D"/>
<path d="M71.705 60.3143L61.7207 70.5811L62.6898 71.8193C62.6898 71.8193 64.3602 70.5037 65.9159 72.0773C67.1273 73.3026 65.5079 75.1341 65.5079 75.1341L84.9155 94.7648C87.8738 97.7571 92.6811 97.7571 95.6522 94.7648C98.6105 91.7725 98.6105 86.9099 95.6522 83.9047L76.219 64.2482C76.219 64.2482 74.5996 65.912 73.3117 64.6094C72.0238 63.3067 72.9674 62.004 73.299 61.746L71.705 60.3143Z" fill="#56CCF2"/>
<path d="M74.5431 69.2421L74.5341 69.2513C74.1307 69.6592 74.1307 70.3207 74.5341 70.7287L90.8721 87.2546C91.2755 87.6626 91.9295 87.6626 92.3328 87.2546L92.3418 87.2455C92.7452 86.8375 92.7452 86.176 92.3418 85.768L76.0038 69.2421C75.6004 68.8341 74.9464 68.8341 74.5431 69.2421Z" fill="#00479D"/>
<path d="M70.5773 73.264L70.5682 73.2731C70.1649 73.6811 70.1649 74.3426 70.5682 74.7506L86.9063 91.2764C87.3097 91.6844 87.9636 91.6844 88.367 91.2764L88.376 91.2673C88.7794 90.8593 88.7794 90.1978 88.376 89.7898L72.0379 73.264C71.6346 72.856 70.9806 72.856 70.5773 73.264Z" fill="#00479D"/>
</g>
<defs>
<clipPath id="clip0_708_1400">
<rect width="78.1023" height="79" fill="white" transform="translate(22.4849 21.1304)"/>
</clipPath>
</defs>
</svg>
