<svg width="122" height="122" viewBox="0 0 122 122" fill="none" xmlns="http://www.w3.org/2000/svg">
<rect x="0.256836" y="0.234375" width="121.172" height="121.172" fill="white"/>
<path d="M71.7176 110.327L77.4343 107.018L84.8882 102.702L90.6049 99.3921L88.3008 95.3946L87.7318 95.724C84.8868 97.3712 81.2527 96.3984 79.611 93.5502L75.2984 86.0679L67.8445 90.3836L72.1572 97.8659C73.7989 100.714 72.8242 104.355 69.9792 106.002L69.4102 106.332L71.7143 110.329L71.7176 110.327Z" fill="#00479D"/>
<path d="M36.6118 31.5511L45.4999 28.9457C45.9909 28.8022 46.5168 29.0139 46.7718 29.4562C47.131 30.0794 46.8132 30.8757 46.1224 31.079L37.2343 33.6844C36.7433 33.8279 36.2174 33.6163 35.9624 33.174C35.6032 32.5507 35.921 31.7545 36.6118 31.5511Z" fill="#00479D"/>
<path d="M38.4311 35.4469L47.3193 32.8414C47.8102 32.698 48.3362 32.9096 48.5911 33.3519C48.9503 33.9752 48.6325 34.7714 47.9418 34.9747L39.0536 37.5802C38.5627 37.7237 38.0367 37.512 37.7818 37.0697C37.4225 36.4465 37.7403 35.6502 38.4311 35.4469Z" fill="#00479D"/>
<path d="M40.2504 39.3428L49.1386 36.7373C49.6295 36.5938 50.1555 36.8055 50.4104 37.2478C50.7697 37.871 50.4519 38.6673 49.7611 38.8706L40.8729 41.4761C40.382 41.6195 39.856 41.4079 39.6011 40.9656C39.2419 40.3423 39.5597 39.5461 40.2504 39.3428Z" fill="#00479D"/>
<path d="M42.0703 43.2386L50.9584 40.6332C51.4494 40.4897 51.9753 40.7014 52.2303 41.1437C52.5895 41.7669 52.2717 42.5632 51.5809 42.7665L42.6928 45.3719C42.2018 45.5154 41.6759 45.3038 41.4209 44.8615C41.0617 44.2382 41.3795 43.442 42.0703 43.2386Z" fill="#00479D"/>
<path d="M44.2343 46.9034L53.1225 44.298C53.6134 44.1545 54.1394 44.3661 54.3943 44.8085C54.7536 45.4317 54.4358 46.2279 53.745 46.4313L44.8568 49.0367C44.3659 49.1802 43.8399 48.9686 43.585 48.5262C43.2258 47.903 43.5435 47.1068 44.2343 46.9034Z" fill="#00479D"/>
<path d="M46.3984 50.5681L55.2865 47.9626C55.7775 47.8192 56.3035 48.0308 56.5584 48.4731C56.9176 49.0964 56.5998 49.8926 55.909 50.0959L47.0209 52.7014C46.53 52.8449 46.004 52.6332 45.749 52.1909C45.3898 51.5677 45.7076 50.7714 46.3984 50.5681Z" fill="#00479D"/>
<path d="M34.4067 27.7218L43.2948 25.1163C43.7858 24.9729 44.3118 25.1845 44.5667 25.6268C44.9259 26.2501 44.6081 27.0463 43.9173 27.2496L35.0292 29.8551C34.5383 29.9986 34.0123 29.7869 33.7573 29.3446C33.3981 28.7214 33.7159 27.9251 34.4067 27.7218Z" fill="#00479D"/>
<path d="M32.1987 23.8944L41.0868 21.2889C41.5778 21.1455 42.1037 21.3571 42.3587 21.7994C42.7179 22.4227 42.4001 23.2189 41.7093 23.4222L32.8212 26.0277C32.3302 26.1712 31.8043 25.9595 31.5493 25.5172C31.1901 24.894 31.5079 24.0977 32.1987 23.8944Z" fill="#00479D"/>
<path d="M29.9936 20.0652L38.8818 17.4597C39.3727 17.3163 39.8987 17.5279 40.1536 17.9702C40.5128 18.5934 40.195 19.3897 39.5043 19.593L30.6161 22.1985C30.1252 22.3419 29.5992 22.1303 29.3443 21.688C28.985 21.0647 29.3028 20.2685 29.9936 20.0652Z" fill="#00479D"/>
<path d="M27.7861 16.2352L36.6742 13.6298C37.1652 13.4863 37.6911 13.6979 37.9461 14.1402C38.3053 14.7635 37.9875 15.5597 37.2967 15.7631L28.4086 18.3685C27.9176 18.512 27.3917 18.3003 27.1367 17.858C26.7775 17.2348 27.0953 16.4385 27.7861 16.2352Z" fill="#00479D"/>
<path d="M57.0429 69.3784L65.9311 66.773C66.422 66.6295 66.948 66.8411 67.2029 67.2834C67.5621 67.9067 67.2444 68.7029 66.5536 68.9062L57.6654 71.5117C57.1745 71.6552 56.6485 71.4435 56.3936 71.0012C56.0343 70.378 56.3521 69.5817 57.0429 69.3784Z" fill="#00479D"/>
<path d="M58.8623 73.2742L67.7504 70.6687C68.2413 70.5252 68.7673 70.7369 69.0223 71.1792C69.3815 71.8024 69.0637 72.5987 68.3729 72.802L59.4848 75.4075C58.9938 75.5509 58.4678 75.3393 58.2129 74.897C57.8537 74.2737 58.1715 73.4775 58.8623 73.2742Z" fill="#00479D"/>
<path d="M60.6816 77.17L69.5698 74.5646C70.0607 74.4211 70.5867 74.6327 70.8416 75.0751C71.2008 75.6983 70.883 76.4945 70.1922 76.6979L61.3041 79.3033C60.8132 79.4468 60.2872 79.2352 60.0322 78.7929C59.673 78.1696 59.9908 77.3734 60.6816 77.17Z" fill="#00479D"/>
<path d="M62.5014 81.0659L71.3896 78.4605C71.8805 78.317 72.4065 78.5286 72.6614 78.9709C73.0206 79.5942 72.7029 80.3904 72.0121 80.5937L63.1239 83.1992C62.633 83.3427 62.107 83.131 61.8521 82.6887C61.4928 82.0655 61.8106 81.2692 62.5014 81.0659Z" fill="#00479D"/>
<path d="M64.6655 84.7307L73.5536 82.1252C74.0446 81.9818 74.5705 82.1934 74.8255 82.6357C75.1847 83.259 74.8669 84.0552 74.1761 84.2585L65.288 86.864C64.797 87.0075 64.2711 86.7958 64.0161 86.3535C63.6569 85.7303 63.9747 84.934 64.6655 84.7307Z" fill="#00479D"/>
<path d="M66.8295 88.3954L75.7177 85.7899C76.2086 85.6465 76.7346 85.8581 76.9895 86.3004C77.3488 86.9236 77.031 87.7199 76.3402 87.9232L67.452 90.5287C66.9611 90.6721 66.4351 90.4605 66.1802 90.0182C65.821 89.3949 66.1388 88.5987 66.8295 88.3954Z" fill="#00479D"/>
<path d="M54.8378 65.5491L63.726 62.9436C64.2169 62.8001 64.7429 63.0118 64.9978 63.4541C65.3571 64.0773 65.0393 64.8736 64.3485 65.0769L55.4603 67.6824C54.9694 67.8258 54.4434 67.6142 54.1885 67.1719C53.8293 66.5486 54.1471 65.7524 54.8378 65.5491Z" fill="#00479D"/>
<path d="M52.6298 61.7217L61.518 59.1162C62.0089 58.9727 62.5349 59.1844 62.7898 59.6267C63.1491 60.2499 62.8313 61.0462 62.1405 61.2495L53.2523 63.855C52.7614 63.9984 52.2354 63.7868 51.9805 63.3445C51.6213 62.7212 51.939 61.925 52.6298 61.7217Z" fill="#00479D"/>
<path d="M50.4248 57.8925L59.3129 55.287C59.8038 55.1435 60.3298 55.3552 60.5848 55.7975C60.944 56.4207 60.6262 57.217 59.9354 57.4203L51.0472 60.0257C50.5563 60.1692 50.0303 59.9576 49.7754 59.5153C49.4162 58.892 49.734 58.0958 50.4248 57.8925Z" fill="#00479D"/>
<path d="M48.2172 54.0625L57.1054 51.457C57.5963 51.3136 58.1223 51.5252 58.3772 51.9675C58.7365 52.5908 58.4187 53.387 57.7279 53.5903L48.8397 56.1958C48.3488 56.3393 47.8228 56.1276 47.5679 55.6853C47.2087 55.0621 47.5265 54.2658 48.2172 54.0625Z" fill="#00479D"/>
<path d="M36.3015 12.3112L27.4351 7.32446L27.2467 14.8367L36.3015 12.3112Z" fill="#00479D"/>
<path d="M89.9129 19.0407L77.4547 15.7059L68.3308 24.8469L71.6673 37.3264L84.1255 40.6612L93.2473 31.5166L89.9129 19.0407Z" fill="#56CCF2"/>
<path d="M79.4832 33.059C82.1715 33.7786 84.9354 32.1784 85.6564 29.4848C86.3775 26.7912 84.7826 24.0242 82.0943 23.3046C79.4059 22.585 76.6421 24.1852 75.921 26.8788C75.2 29.5724 76.7948 32.3394 79.4832 33.059Z" fill="white"/>
</svg>
