<svg width="80" height="80" viewBox="0 0 80 80" fill="none" xmlns="http://www.w3.org/2000/svg">
<g clip-path="url(#clip0_653_1728)">
<path d="M79.0957 53.0099H71.8442V55.3188H79.0957V53.0099Z" fill="#00479D"/>
<path d="M70.8467 35.411L65.7192 40.5385L67.3519 42.1711L72.4793 37.0437L70.8467 35.411Z" fill="#00479D"/>
<path d="M67.3558 66.1594L65.7231 67.792L70.8506 72.9194L72.4832 71.2868L67.3558 66.1594Z" fill="#00479D"/>
<path d="M7.5386 53.0099H0.287109V55.3188H7.5386V53.0099Z" fill="#00479D"/>
<path d="M8.5335 35.4097L6.90088 37.0424L12.0283 42.1698L13.6609 40.5372L8.5335 35.4097Z" fill="#00479D"/>
<path d="M12.0288 66.1609L6.90137 71.2883L8.53399 72.921L13.6614 67.7935L12.0288 66.1609Z" fill="#00479D"/>
<path d="M64.6578 59.6316V48.6973H60.5934C60.0952 46.7836 59.339 44.9584 58.3368 43.2511L61.2115 40.3764L53.48 32.6449L50.6053 35.5196C48.8979 34.5174 47.0727 33.7611 45.1591 33.2625V29.1982H40.8463V19.7481C41.7778 19.9293 42.7266 20.0216 43.6782 20.0216C47.6192 20.0216 51.3234 18.4875 54.1091 15.7022C57.8201 11.991 59.2833 6.52953 57.9276 1.44915L57.7554 0.803568L57.11 0.631373C55.8647 0.298709 54.5788 0.130371 53.2876 0.130371C49.3466 0.130371 45.6422 1.66439 42.8567 4.44976C41.0877 6.21877 39.8308 8.38587 39.1452 10.7193C38.4649 9.42136 37.5882 8.2163 36.5268 7.15489C33.7414 4.36952 30.0369 2.8355 26.0959 2.8355C24.8046 2.8355 23.5187 3.004 22.2738 3.3362L21.6284 3.50839L21.4562 4.15397C20.1004 9.23435 21.5636 14.6957 25.2747 18.407C28.0601 21.1924 31.7646 22.7264 35.7056 22.7264C36.6572 22.7264 37.606 22.6341 38.5375 22.453V29.1981H34.2247V33.2624C32.3111 33.7608 30.4859 34.5171 28.7785 35.5194L25.9038 32.6447L18.1723 40.3762L21.047 43.2509C20.0448 44.9584 19.2886 46.7836 18.7901 48.697H14.7256V59.6313H18.7899C19.2883 61.5448 20.0445 63.37 21.0468 65.0773L18.1721 67.952L25.9036 75.6835L28.7783 72.8088C30.4859 73.811 32.311 74.5674 34.2245 75.0657V79.1304H45.1586V75.066C47.0722 74.5677 48.8973 73.8115 50.6049 72.8091L53.4796 75.6838L61.2111 67.9523L58.3364 65.0776C59.3385 63.3702 60.0949 61.545 60.5933 59.6316H64.6578ZM44.4896 6.08237C46.8386 3.73305 49.9633 2.43927 53.2878 2.43927C54.1509 2.43927 55.0114 2.52845 55.8539 2.70481C56.7096 6.79893 55.4465 11.0992 52.4765 14.0692C50.1272 16.4186 47.0026 17.7123 43.6785 17.7123C43.2961 17.7123 42.9145 17.6918 42.5345 17.6571L51.944 8.24762L50.3114 6.61516L40.9016 16.025C40.5715 12.3789 41.8618 8.71005 44.4896 6.08237ZM38.4827 18.7299L30.1602 10.4076L28.5276 12.0401L36.8498 20.3621C36.4699 20.3968 36.0885 20.4173 35.7061 20.4173C35.706 20.4173 35.7058 20.4173 35.7056 20.4173C32.3813 20.4173 29.2568 19.1234 26.9076 16.7742C23.9374 13.804 22.6745 9.50391 23.5302 5.40979C24.3727 5.23343 25.2331 5.14425 26.0963 5.14425C29.4207 5.14425 32.5452 6.43818 34.8943 8.78735C37.522 11.4152 38.8123 15.0839 38.4827 18.7299ZM58.5527 58.2346C58.0636 60.5126 57.1731 62.6618 55.9057 64.622L55.3993 65.4055L57.9461 67.9522L53.4797 72.4186L50.9329 69.8719L50.1495 70.3783C48.1892 71.6456 46.0401 72.536 43.7621 73.0253L42.8499 73.2211V76.8218H36.5336V73.2211L35.6214 73.0253C33.3434 72.5362 31.1943 71.6457 29.234 70.3783L28.4506 69.8719L25.9038 72.4186L21.4373 67.9522L23.9842 65.4055L23.4778 64.622C22.2105 62.6618 21.3199 60.5126 20.8308 58.2346L20.635 57.3225H17.0343V51.0061H20.635L20.8308 50.094C21.3199 47.816 22.2104 45.6668 23.4778 43.7066L23.9842 42.9231L21.4373 40.3764L25.9038 35.91L28.4506 38.4566L29.234 37.9502C31.1942 36.6831 33.3434 35.7925 35.6215 35.3033L36.5336 35.1075V31.5068H42.8499V35.1075L43.7619 35.3033C46.0401 35.7924 48.1893 36.683 50.1495 37.9502L50.9329 38.4566L53.4797 35.91L57.9461 40.3764L55.3993 42.9231L55.9057 43.7066C57.173 45.6668 58.0636 47.816 58.5527 50.094L58.7485 51.0061H62.3492V57.3225H58.7485L58.5527 58.2346Z" fill="#00479D"/>
<path d="M39.6922 39.2504C31.4688 39.2504 24.7783 45.9405 24.7783 54.1641C24.7783 62.3876 31.4686 69.078 39.6922 69.078C47.9158 69.078 54.6061 62.3878 54.6061 54.1641C54.6059 45.9408 47.9154 39.2504 39.6922 39.2504ZM39.6922 66.7691C32.7419 66.7691 27.0872 61.1145 27.0872 54.1641C27.0872 47.2138 32.7417 41.5593 39.6922 41.5593C46.6427 41.5593 52.2972 47.2138 52.2972 54.1641C52.297 61.1147 46.6425 66.7691 39.6922 66.7691Z" fill="#00479D"/>
<path d="M39.692 43.6626C33.9016 43.6626 29.1904 48.3734 29.1904 54.164C29.1904 59.9546 33.9013 64.6656 39.692 64.6656C45.4828 64.6656 50.1936 59.9548 50.1936 54.164C50.1936 48.3733 45.4826 43.6626 39.692 43.6626ZM39.692 62.3567C35.1747 62.3567 31.4993 58.6815 31.4993 54.164C31.4993 49.6467 35.1747 45.9715 39.692 45.9715C44.2094 45.9715 47.8847 49.6467 47.8847 54.164C47.8846 58.6817 44.2092 62.3567 39.692 62.3567Z" fill="#00479D"/>
</g>
<defs>
<clipPath id="clip0_653_1728">
<rect width="79" height="79" fill="white" transform="translate(0.191406 0.130371)"/>
</clipPath>
</defs>
</svg>
