<?xml version="1.0" encoding="utf-8"?>
<!-- Generator: Adobe Illustrator 26.0.1, SVG Export Plug-In . SVG Version: 6.00 Build 0)  -->
<svg version="1.1" id="Layer_1" xmlns="http://www.w3.org/2000/svg" xmlns:xlink="http://www.w3.org/1999/xlink" x="0px" y="0px"
	 viewBox="0 0 299.8 430.1" style="enable-background:new 0 0 299.8 430.1;" xml:space="preserve">
<style type="text/css">
	.st0{fill:#FFFFFF;}
	.st1{fill:#7D7D7D;}
	.st2{fill:#A3A3A3;}
	.st3{fill:#D1D1D1;}
	.st4{fill:#BCBCBC;}
</style>
<image style="overflow:visible;" width="1365" height="486" xlink:href="4FCD3B3E.jpg"  transform="matrix(1 0 0 1 1130.6354 -96.1504)">
</image>
<rect x="1810.5" y="148.9" class="st0" width="52.7" height="96"/>
<g>
	<polygon class="st1" points="175.1,367.9 158.8,370.9 158.8,296.9 175.1,288.2 	"/>
	<polygon class="st2" points="175.1,288.2 158.7,296.9 65.5,20.2 81.8,11.6 	"/>
	<polygon class="st3" points="145.5,366.2 158.8,374.8 158.8,296.9 145.5,292.1 	"/>
	<path class="st4" d="M158.7,296.9L65.4,20.2l-10.9-0.6l91,272.6l3.3,1.2l0.4,0.1L158.7,296.9L158.7,296.9z M63.8,32.5
		c-0.9,0.2-2-0.9-2.5-2.6c-0.4-1.7-0.1-3.3,0.9-3.5c0.9-0.2,2,0.9,2.5,2.6C65.1,30.7,64.7,32.3,63.8,32.5z"/>
	<path class="st3" d="M175.1,355.9l-16.3-9.5l-13.3-7.7l-0.1,0l-1.4-0.8v15.1l1.5,0.9l13.3,7.7l12.4,7.2h0l74.1,43v-15L175.1,355.9z
		 M180,369.4c-1,0-1.9-1.5-1.9-3.2c0-1.8,0.8-3.2,1.9-3.2c1,0,1.9,1.4,1.9,3.2C181.9,368,181.1,369.4,180,369.4z M233.8,400.9
		c-1,0-1.9-1.4-1.9-3.2c0-1.8,0.8-3.2,1.9-3.2c1,0,1.9,1.5,1.9,3.2C235.7,399.4,234.8,400.9,233.8,400.9z"/>
	<polygon class="st1" points="233,418.5 131.7,359.8 144,352.9 245.3,411.6 	"/>
	<polygon class="st1" points="74.7,377.6 61.7,387 61.7,374 74.7,374 	"/>
	<polygon class="st3" points="145.4,339.8 74.7,382 61.7,374 145.4,324.8 	"/>
</g>
</svg>
