<svg xmlns="http://www.w3.org/2000/svg" xmlns:xlink="http://www.w3.org/1999/xlink" viewBox="0 0 579.8 305.8"><defs><style>.cls-1{fill:#101522;}.cls-2{fill:url(#linear-gradient);}.cls-3{fill:url(#linear-gradient-2);}.cls-4{fill:#fff;}.cls-5{fill:url(#linear-gradient-3);}.cls-6{fill:url(#linear-gradient-4);}.cls-7{fill:url(#linear-gradient-5);}.cls-8{fill:url(#linear-gradient-6);}.cls-9{fill:url(#linear-gradient-7);}.cls-10{fill:url(#linear-gradient-8);}.cls-11{fill:url(#linear-gradient-9);}.cls-12{fill:url(#linear-gradient-10);}.cls-13{fill:url(#linear-gradient-11);}.cls-14{fill:url(#linear-gradient-12);}.cls-15{fill:url(#linear-gradient-13);}.cls-16{fill:url(#linear-gradient-14);}.cls-17{fill:url(#linear-gradient-15);}.cls-18{fill:url(#linear-gradient-16);}.cls-19{fill:url(#linear-gradient-17);}</style><linearGradient id="linear-gradient" x1="380.19" y1="280.48" x2="375.86" y2="249.4" gradientTransform="translate(0 -0.11)" gradientUnits="userSpaceOnUse"><stop offset="0.01" stop-color="#0f62ac" stop-opacity="0"/><stop offset="1" stop-color="#0f62ac" stop-opacity="0.11"/></linearGradient><linearGradient id="linear-gradient-2" x1="234" y1="160.41" x2="456.7" y2="160.41" gradientTransform="translate(0 -0.11)" gradientUnits="userSpaceOnUse"><stop offset="0" stop-color="#26acd4"/><stop offset="0.47" stop-color="#c3e8fb"/><stop offset="0.77" stop-color="#03c0f2"/><stop offset="1" stop-color="#0f62ac"/></linearGradient><linearGradient id="linear-gradient-3" x1="223.8" y1="174.46" x2="459.3" y2="174.46" gradientTransform="translate(0 -0.11)" gradientUnits="userSpaceOnUse"><stop offset="0" stop-color="#2086d7"/><stop offset="0.35" stop-color="#00cdd7"/><stop offset="0.99" stop-color="#2086d7"/></linearGradient><linearGradient id="linear-gradient-4" x1="220.75" y1="274.31" x2="220.75" y2="74.41" gradientTransform="translate(0 -0.11)" gradientUnits="userSpaceOnUse"><stop offset="0" stop-color="#26acd4"/><stop offset="0.24" stop-color="#03c0f2"/><stop offset="1" stop-color="#0f62ac"/></linearGradient><linearGradient id="linear-gradient-5" x1="283.43" y1="308.14" x2="462.43" y2="129.14" gradientTransform="translate(0 -0.11)" gradientUnits="userSpaceOnUse"><stop offset="0.01" stop-color="#f2f2f2" stop-opacity="0.01"/><stop offset="1" stop-color="#f2f2f2" stop-opacity="0.11"/></linearGradient><linearGradient id="linear-gradient-6" x1="452.08" y1="112.39" x2="571.73" y2="-7.27" gradientTransform="translate(0 -0.11)" gradientUnits="userSpaceOnUse"><stop offset="0" stop-color="#2086d7"/><stop offset="0.5" stop-color="#00cdd7"/><stop offset="0.99" stop-color="#2086d7"/></linearGradient><linearGradient id="linear-gradient-7" x1="441.78" y1="102.03" x2="561.44" y2="-17.63" xlink:href="#linear-gradient-6"/><linearGradient id="linear-gradient-8" x1="462.41" y1="122.65" x2="582.07" y2="2.99" xlink:href="#linear-gradient-6"/><linearGradient id="linear-gradient-9" x1="481.13" y1="141.38" x2="600.79" y2="21.72" xlink:href="#linear-gradient-6"/><linearGradient id="linear-gradient-10" x1="440.33" y1="100.58" x2="559.99" y2="-19.08" xlink:href="#linear-gradient-6"/><linearGradient id="linear-gradient-11" x1="457.86" y1="118.1" x2="577.52" y2="-1.56" xlink:href="#linear-gradient-6"/><linearGradient id="linear-gradient-12" x1="450.16" y1="110.4" x2="569.82" y2="-9.26" xlink:href="#linear-gradient-6"/><linearGradient id="linear-gradient-13" x1="463.11" y1="123.35" x2="582.77" y2="3.69" xlink:href="#linear-gradient-6"/><linearGradient id="linear-gradient-14" x1="460.16" y1="120.4" x2="579.82" y2="0.74" xlink:href="#linear-gradient-6"/><linearGradient id="linear-gradient-15" x1="475.73" y1="135.98" x2="595.39" y2="16.32" xlink:href="#linear-gradient-6"/><linearGradient id="linear-gradient-16" x1="456.46" y1="116.7" x2="576.12" y2="-2.96" xlink:href="#linear-gradient-6"/><linearGradient id="linear-gradient-17" x1="474.28" y1="134.53" x2="593.94" y2="14.87" xlink:href="#linear-gradient-6"/></defs><g id="Layer_2" data-name="Layer 2"><g id="Layer_1-2" data-name="Layer 1"><polygon class="cls-1" points="457.1 239.1 230.1 266.1 231.1 82.1 452.3 114 452.3 114.1 452.3 116.3 455.1 116.5 456.7 214.8 457.1 239.1"/><polygon class="cls-2" points="223.8 274.2 273.6 305.8 533.7 265.9 459.2 242.1 223.8 274.2"/><polygon class="cls-3" points="456.7 116.7 456.7 237.3 450.7 237.3 450.7 117.3 235.8 92.1 234 83.3 452.3 114.1 452.3 116.3 455.1 116.5 456.7 116.7"/><polygon class="cls-4" points="302.8 148 280.5 201.8 273 201.8 250.9 148 258.8 148 276.9 192.5 295 148 302.8 148"/><path class="cls-4" d="M308.9,149.6a4.45,4.45,0,1,1,4.5,4.4A4.4,4.4,0,0,1,308.9,149.6Z"/><rect class="cls-4" x="310.1" y="162" width="6.7" height="39.8"/><path class="cls-4" d="M367.8,181.9c0-11.9-9.1-20.8-21.1-20.8s-21.1,9-21.1,20.8,9.1,20.8,21.1,20.8c9.8,0,17.5-5.5,20.4-13.6h-7.4c-2,4.5-6.9,7.5-13,7.5a13.78,13.78,0,0,1-14-11.8h35C367.7,183.9,367.8,182.7,367.8,181.9Zm-35-3.2a14.21,14.21,0,0,1,27.9,0Z"/><polygon class="cls-4" points="437.5 162 422.3 201.8 415.3 201.8 403.7 169.7 392.1 201.8 385 201.8 369.9 162 377.5 162 388.7 193.8 400.3 162 407.3 162 418.8 193.6 430 162 437.5 162"/><path class="cls-5" d="M456.4,109.5v3.1l2.9.2V110Zm-1.3,7-2.8-.2V109L223.8,74.4V274.3l235.4-32.1V116.8l-2.5-.2ZM235.8,88.3l216.4,28V235.6l-1.5.2L235.8,260.5Z"/><polygon class="cls-6" points="223.8 274.2 217.7 269.2 217.7 78.3 223.8 74.3 223.8 274.2"/><polygon class="cls-7" points="450.7 117.3 450.7 236 235.8 260.4 450.7 117.3"/><path class="cls-1" d="M103.4,141.1,80,206.7H66.8L51.7,160.8,36.5,206.7H23.3L0,141.1H14.4L30.1,189l15.7-47.9h12L73.7,189l15.5-47.9Z"/><path class="cls-1" d="M151.9,158.2v48.5H139.5v-6.4a19.73,19.73,0,0,1-15.8,7.5c-13.5,0-23.7-10.9-23.7-25.4S110.2,157,123.7,157a20,20,0,0,1,15.8,7.5v-6.4l12.4.1Zm-12.3,24.2a13.35,13.35,0,1,0-13.4,13.4A13.09,13.09,0,0,0,139.6,182.4Z"/><path class="cls-1" d="M163.7,138.2h12.4v68.4H163.7Z"/><path class="cls-1" d="M187.8,138.2h12.3v68.4H187.8Z"/><polygon class="cls-4" points="485.3 115.1 485.3 113.4 485.3 111.7 485.3 110 485.3 108.3 485.3 106.7 485.3 105 485.3 103.3 485.3 101.6 485.3 99.9 485.3 98.2 485.3 96.5 485.3 94.8 485.3 93.2 485.3 91.5 485.3 89.8 485.3 88.1 485.3 86.4 485.3 84.7 485.2 83 485.2 81.3 485.2 79.7 485.2 78 485.2 76.3 485.2 75.6 484.5 75.6 482.6 75.3 480.7 75.1 478.8 74.9 476.9 74.6 474.9 74.4 473 74.2 471.1 73.9 469.2 73.7 467.3 73.5 465.3 73.2 463.4 73 461.5 72.8 459.6 72.5 457.7 72.3 455.8 72.1 454.7 71.9 454.7 72.7 454.7 74.4 454.7 76.1 454.7 77.7 454.7 79.4 454.7 81.1 454.6 82.7 454.6 84.4 454.6 86.1 454.6 87.8 454.6 89.4 454.6 91.1 454.5 92.8 454.5 94.4 454.5 96.1 454.5 97.8 454.5 99.4 454.5 101.1 454.4 102.8 454.4 104.4 454.4 106.1 454.4 107.8 454.4 109.4 454.4 111.1 454.3 112.8 454.3 114.5 456.1 114.6 458 114.7 459.8 114.9 461.6 115 463.4 115.2 465.3 115.3 467.1 115.4 468.9 115.6 470.7 115.7 472.6 115.9 474.4 116 476.2 116.1 478.1 116.3 479.9 116.4 481.7 116.6 483.5 116.7 485.3 116.8 485.3 116.8 485.3 115.1"/><polygon class="cls-4" points="496.3 31.8 496.3 33.5 496.3 35.1 496.3 36.8 496.3 38.5 496.3 40.2 496.3 41.9 496.3 43.5 496.3 45.2 496.3 46.9 496.3 47.7 497.2 47.8 499 47.9 500.8 48 502.6 48.1 504.3 48.2 506.1 48.3 507.9 48.4 509.7 48.5 511.5 48.6 512.8 48.7 512.8 48.3 512.8 46.6 512.8 45 512.8 43.3 512.8 41.6 512.8 40 512.8 38.3 512.8 36.6 512.8 34.9 512.8 33.3 512.8 31.6 512.8 30.6 511.8 30.6 510 30.5 508.2 30.4 506.4 30.2 504.7 30.1 502.9 30 501.1 29.9 499.3 29.8 497.5 29.6 496.3 29.6 496.3 30.1 496.3 31.8"/><polygon class="cls-4" points="538 63.5 539.8 63.6 539.9 63.6 539.9 62 539.9 60.3 539.9 58.6 539.8 57 539.8 55.3 539.8 53.6 539.8 51.9 539.8 50.3 539.8 48.6 539.8 46.9 539.8 45.6 538.4 45.5 536.6 45.4 534.9 45.3 533.1 45.2 531.3 45.1 529.5 45 527.8 44.9 526 44.8 524.2 44.7 522.4 44.6 521.9 44.5 521.9 45.7 521.9 47.4 521.9 49 521.9 50.7 521.9 52.4 521.9 54.1 521.9 55.7 521.9 57.4 521.9 59.1 521.9 60.7 521.9 62.4 521.9 62.7 522.2 62.7 524 62.8 525.8 62.9 527.5 63 529.3 63.1 531 63.2 532.8 63.3 534.5 63.3 536.3 63.4 538 63.5"/><polygon class="cls-4" points="547 87.5 547 85.8 547 84.2 547 82.5 547 80.8 547 79.1 547 77.5 547 75.8 547 74.1 547 73.7 546.5 73.7 544.8 73.6 543 73.5 541.3 73.4 539.5 73.4 537.8 73.3 536 73.2 534.6 73.1 534.6 73.4 534.6 75 534.6 76.7 534.6 78.4 534.6 80.1 534.6 81.8 534.6 83.5 534.6 85.2 534.6 86.9 534.6 88.6 534.6 89.6 535.7 89.7 537.5 89.7 539.2 89.8 541 89.9 542.7 89.9 544.5 90 546.2 90.1 547 90.1 547 89.2 547 87.5"/><polygon class="cls-4" points="516.4 13.5 516.4 15.2 516.4 16.8 516.4 18.5 516.4 20.2 516.4 21.9 516.4 23.5 516.4 24.4 517.4 24.5 519.2 24.6 521 24.8 522.8 24.9 524.6 25 526.3 25.1 528.1 25.2 529 25.3 529 24.5 529 22.8 529 21.1 529 19.5 529 17.8 529 16.1 529 14.4 529 12.8 529 11.9 528 11.8 526.2 11.7 524.4 11.5 522.6 11.4 520.8 11.3 519 11.1 517.2 11 516.4 10.9 516.4 11.8 516.4 13.5"/><polygon class="cls-4" points="553 33.5 554.8 33.6 556.6 33.7 557.4 33.7 557.4 32.8 557.4 31.1 557.4 29.5 557.4 27.8 557.4 26.1 557.4 24.4 557.3 22.8 557.3 21.1 557.3 19.4 557.3 18.3 556.2 18.2 554.4 18.1 552.6 18 550.8 17.8 549 17.7 547.2 17.6 545.4 17.5 543.6 17.3 543.3 17.3 543.3 18.7 543.3 20.4 543.3 22 543.3 23.7 543.3 25.4 543.3 27.1 543.3 28.7 543.3 30.4 543.3 32.1 543.3 32.8 544.1 32.9 545.9 33 547.7 33.1 549.5 33.2 551.3 33.4 553 33.5"/><polygon class="cls-4" points="550.3 5.7 550.3 7.4 550.3 9 550.3 10.3 551.6 10.4 553.4 10.5 555.2 10.6 557 10.8 557.3 10.8 557.3 9.4 557.3 7.7 557.3 6 557.3 4.3 557.3 3.1 555.9 3 554.1 2.8 552.3 2.7 550.5 2.5 550.3 2.5 550.3 4 550.3 5.7"/><polygon class="cls-4" points="571.2 20 571.2 18.3 571.2 16.6 571.2 15 569.5 14.9 567.7 14.7 565.9 14.6 564.3 14.5 564.3 14.7 564.3 16.4 564.3 18 564.3 19.7 564.3 21.4 564.3 22.2 565.1 22.2 566.9 22.3 568.7 22.5 570.5 22.6 571.2 22.7 571.2 21.6 571.2 20"/><polygon class="cls-4" points="579.8 6.8 579.8 5.1 579.7 3.5 579.7 1.8 579.7 0.6 578.4 0.4 576.6 0.3 574.8 0.2 573 0 572.9 0 572.9 1.6 572.9 3.3 572.9 4.9 572.9 6.6 572.9 7.6 574 7.7 575.8 7.9 577.6 8 579.4 8.1 579.8 8.2 579.8 6.8"/><polygon class="cls-4" points="564.3 58.1 564.3 56.4 564.3 54.7 564.3 53 564.3 51.4 564.3 49.7 564.3 49 563.6 49 561.8 48.9 560.1 48.9 558.3 48.8 556.6 48.7 554.8 48.6 553.1 48.5 551.4 48.5 550.4 48.4 550.4 49.2 550.4 50.9 550.4 52.5 550.4 54.2 550.5 55.9 550.5 57.6 550.5 59.2 550.5 59.6 550.8 59.6 552.5 59.6 554.3 59.7 556 59.8 557.7 59.9 559.5 59.9 561.2 60 563 60.1 564.3 60.1 564.3 59.7 564.3 58.1"/><polygon class="cls-4" points="508.7 82.9 510.5 83 512.3 83.1 514.1 83.2 515.9 83.3 516.6 83.4 516.6 82.3 516.6 82.3 516.5 80.6 516.5 78.9 516.5 77.2 516.5 75.5 516.5 73.9 516.5 72.2 516.5 70.5 516.5 68.8 516.5 67.1 516.5 65.4 516.5 63.7 516.5 62 516.5 60.5 514.9 60.5 513.1 60.4 511.4 60.3 509.6 60.2 507.8 60.1 506 60 504.2 59.9 502.5 59.8 500.7 59.7 498.9 59.6 497.1 59.5 495.3 59.4 493.6 59.3 493.6 59.3 491.8 59.2 490 59.1 488.2 59 487.1 59 487.1 59 487.1 59.6 487.1 61.3 487.1 62.9 487.1 64.6 487.1 66.3 487.1 68 487.1 69.7 487.1 71.4 487.1 73.1 487.3 73.3 487.1 73.1 487.1 74.8 487.1 76.5 487.1 78.1 487.1 79.8 487.1 81.5 487.1 83.2 487.1 84.9 487.1 86.6 487.1 88.3 487.1 90 487.1 91.7 487.1 92 487.5 92.1 489.3 92.1 491 92.2 492.8 92.3 494.5 92.3 496.3 92.4 498 92.5 499.8 92.5 501.5 92.6 503.3 92.7 505.1 92.7 506.7 92.8 506.7 92.7 506.7 92.8 506.8 92.8 506.7 92.7 506.7 92.7 506.7 92.7 506.7 91 506.7 89.3 506.7 87.6 506.7 85.9 506.7 84.2 506.7 82.7 506.9 82.8 508.7 82.9"/><polygon class="cls-4" points="523.1 99 523.1 97.3 523.1 95.6 523.1 93.9 523.1 92.2 523.1 90.5 523.1 88.8 523.1 87.1 523.1 85.4 523.1 85.3 522.9 85.2 521.1 85.1 519.3 85 517.5 84.9 516.6 84.9 515.7 84.8 513.9 84.7 512.1 84.6 510.3 84.5 508.5 84.4 508.2 84.3 508.2 85.7 508.2 87.4 508.2 89.1 508.2 90.8 508.2 92.5 508.2 92.8 508.2 94.2 508.2 95.9 508.2 97.6 508.2 99.3 508.2 100.9 508.2 101.3 508.6 101.3 510.3 101.3 512 101.4 513.8 101.5 515.5 101.5 517.3 101.6 519 101.6 520.8 101.7 522.5 101.7 523.1 101.8 523.1 100.7 523.1 99"/><polygon class="cls-8" points="485.3 115.1 485.3 113.4 485.3 111.7 485.3 110 485.3 108.3 485.3 106.7 485.3 105 485.3 103.3 485.3 101.6 485.3 99.9 485.3 98.2 485.3 96.5 485.3 94.8 485.3 93.2 485.3 91.5 485.3 89.8 485.3 88.1 485.3 86.4 485.3 84.7 485.2 83 485.2 81.3 485.2 79.7 485.2 78 485.2 76.3 485.2 75.6 484.5 75.6 482.6 75.3 480.7 75.1 478.8 74.9 476.9 74.6 474.9 74.4 473 74.2 471.1 73.9 469.2 73.7 467.3 73.5 465.3 73.2 463.4 73 461.5 72.8 459.6 72.5 457.7 72.3 455.8 72.1 454.7 71.9 454.7 72.7 454.7 74.4 454.7 76.1 454.7 77.7 454.7 79.4 454.7 81.1 454.6 82.7 454.6 84.4 454.6 86.1 454.6 87.8 454.6 89.4 454.6 91.1 454.5 92.8 454.5 94.4 454.5 96.1 454.5 97.8 454.5 99.4 454.5 101.1 454.4 102.8 454.4 104.4 454.4 106.1 454.4 107.8 454.4 109.4 454.4 111.1 454.3 112.8 454.3 114.5 456.1 114.6 458 114.7 459.8 114.9 461.6 115 463.4 115.2 465.3 115.3 467.1 115.4 468.9 115.6 470.7 115.7 472.6 115.9 474.4 116 476.2 116.1 478.1 116.3 479.9 116.4 481.7 116.6 483.5 116.7 485.3 116.8 485.3 116.8 485.3 115.1"/><polygon class="cls-9" points="496.3 31.8 496.3 33.5 496.3 35.1 496.3 36.8 496.3 38.5 496.3 40.2 496.3 41.9 496.3 43.5 496.3 45.2 496.3 46.9 496.3 47.7 497.2 47.8 499 47.9 500.8 48 502.6 48.1 504.3 48.2 506.1 48.3 507.9 48.4 509.7 48.5 511.5 48.6 512.8 48.7 512.8 48.3 512.8 46.6 512.8 45 512.8 43.3 512.8 41.6 512.8 40 512.8 38.3 512.8 36.6 512.8 34.9 512.8 33.3 512.8 31.6 512.8 30.6 511.8 30.6 510 30.5 508.2 30.4 506.4 30.2 504.7 30.1 502.9 30 501.1 29.9 499.3 29.8 497.5 29.6 496.3 29.6 496.3 30.1 496.3 31.8"/><polygon class="cls-10" points="538 63.5 539.8 63.6 539.9 63.6 539.9 62 539.9 60.3 539.9 58.6 539.8 57 539.8 55.3 539.8 53.6 539.8 51.9 539.8 50.3 539.8 48.6 539.8 46.9 539.8 45.6 538.4 45.5 536.6 45.4 534.9 45.3 533.1 45.2 531.3 45.1 529.5 45 527.8 44.9 526 44.8 524.2 44.7 522.4 44.6 521.9 44.5 521.9 45.7 521.9 47.4 521.9 49 521.9 50.7 521.9 52.4 521.9 54.1 521.9 55.7 521.9 57.4 521.9 59.1 521.9 60.7 521.9 62.4 521.9 62.7 522.2 62.7 524 62.8 525.8 62.9 527.5 63 529.3 63.1 531 63.2 532.8 63.3 534.5 63.3 536.3 63.4 538 63.5"/><polygon class="cls-11" points="547 87.5 547 85.8 547 84.2 547 82.5 547 80.8 547 79.1 547 77.5 547 75.8 547 74.1 547 73.7 546.5 73.7 544.8 73.6 543 73.5 541.3 73.4 539.5 73.4 537.8 73.3 536 73.2 534.6 73.1 534.6 73.4 534.6 75 534.6 76.7 534.6 78.4 534.6 80.1 534.6 81.8 534.6 83.5 534.6 85.2 534.6 86.9 534.6 88.6 534.6 89.6 535.7 89.7 537.5 89.7 539.2 89.8 541 89.9 542.7 89.9 544.5 90 546.2 90.1 547 90.1 547 89.2 547 87.5"/><polygon class="cls-12" points="516.4 13.5 516.4 15.2 516.4 16.8 516.4 18.5 516.4 20.2 516.4 21.9 516.4 23.5 516.4 24.4 517.4 24.5 519.2 24.6 521 24.8 522.8 24.9 524.6 25 526.3 25.1 528.1 25.2 529 25.3 529 24.5 529 22.8 529 21.1 529 19.5 529 17.8 529 16.1 529 14.4 529 12.8 529 11.9 528 11.8 526.2 11.7 524.4 11.5 522.6 11.4 520.8 11.3 519 11.1 517.2 11 516.4 10.9 516.4 11.8 516.4 13.5"/><polygon class="cls-13" points="553 33.5 554.8 33.6 556.6 33.7 557.4 33.7 557.4 32.8 557.4 31.1 557.4 29.5 557.4 27.8 557.4 26.1 557.4 24.4 557.3 22.8 557.3 21.1 557.3 19.4 557.3 18.3 556.2 18.2 554.4 18.1 552.6 18 550.8 17.8 549 17.7 547.2 17.6 545.4 17.5 543.6 17.3 543.3 17.3 543.3 18.7 543.3 20.4 543.3 22 543.3 23.7 543.3 25.4 543.3 27.1 543.3 28.7 543.3 30.4 543.3 32.1 543.3 32.8 544.1 32.9 545.9 33 547.7 33.1 549.5 33.2 551.3 33.4 553 33.5"/><polygon class="cls-14" points="550.3 5.7 550.3 7.4 550.3 9 550.3 10.3 551.6 10.4 553.4 10.5 555.2 10.6 557 10.8 557.3 10.8 557.3 9.4 557.3 7.7 557.3 6 557.3 4.3 557.3 3.1 555.9 3 554.1 2.8 552.3 2.7 550.5 2.5 550.3 2.5 550.3 4 550.3 5.7"/><polygon class="cls-15" points="571.2 20 571.2 18.3 571.2 16.6 571.2 15 569.5 14.9 567.7 14.7 565.9 14.6 564.3 14.5 564.3 14.7 564.3 16.4 564.3 18 564.3 19.7 564.3 21.4 564.3 22.2 565.1 22.2 566.9 22.3 568.7 22.5 570.5 22.6 571.2 22.7 571.2 21.6 571.2 20"/><polygon class="cls-16" points="579.8 6.8 579.8 5.1 579.7 3.5 579.7 1.8 579.7 0.6 578.4 0.4 576.6 0.3 574.8 0.2 573 0 572.9 0 572.9 1.6 572.9 3.3 572.9 4.9 572.9 6.6 572.9 7.6 574 7.7 575.8 7.9 577.6 8 579.4 8.1 579.8 8.2 579.8 6.8"/><polygon class="cls-17" points="564.3 58.1 564.3 56.4 564.3 54.7 564.3 53 564.3 51.4 564.3 49.7 564.3 49 563.6 49 561.8 48.9 560.1 48.9 558.3 48.8 556.6 48.7 554.8 48.6 553.1 48.5 551.4 48.5 550.4 48.4 550.4 49.2 550.4 50.9 550.4 52.5 550.4 54.2 550.5 55.9 550.5 57.6 550.5 59.2 550.5 59.6 550.8 59.6 552.5 59.6 554.3 59.7 556 59.8 557.7 59.9 559.5 59.9 561.2 60 563 60.1 564.3 60.1 564.3 59.7 564.3 58.1"/><polygon class="cls-18" points="508.7 82.9 510.5 83 512.3 83.1 514.1 83.2 515.9 83.3 516.6 83.4 516.6 82.3 516.6 82.3 516.5 80.6 516.5 78.9 516.5 77.2 516.5 75.5 516.5 73.9 516.5 72.2 516.5 70.5 516.5 68.8 516.5 67.1 516.5 65.4 516.5 63.7 516.5 62 516.5 60.5 514.9 60.5 513.1 60.4 511.4 60.3 509.6 60.2 507.8 60.1 506 60 504.2 59.9 502.5 59.8 500.7 59.7 498.9 59.6 497.1 59.5 495.3 59.4 493.6 59.3 493.6 59.3 491.8 59.2 490 59.1 488.2 59 487.1 59 487.1 59 487.1 59.6 487.1 61.3 487.1 62.9 487.1 64.6 487.1 66.3 487.1 68 487.1 69.7 487.1 71.4 487.1 73.1 487.3 73.3 487.1 73.1 487.1 74.8 487.1 76.5 487.1 78.1 487.1 79.8 487.1 81.5 487.1 83.2 487.1 84.9 487.1 86.6 487.1 88.3 487.1 90 487.1 91.7 487.1 92 487.5 92.1 489.3 92.1 491 92.2 492.8 92.3 494.5 92.3 496.3 92.4 498 92.5 499.8 92.5 501.5 92.6 503.3 92.7 505.1 92.7 506.7 92.8 506.7 92.7 506.7 92.8 506.8 92.8 506.7 92.7 506.7 92.7 506.7 92.7 506.7 91 506.7 89.3 506.7 87.6 506.7 85.9 506.7 84.2 506.7 82.7 506.9 82.8 508.7 82.9"/><polygon class="cls-19" points="523.1 99 523.1 97.3 523.1 95.6 523.1 93.9 523.1 92.2 523.1 90.5 523.1 88.8 523.1 87.1 523.1 85.4 523.1 85.3 522.9 85.2 521.1 85.1 519.3 85 517.5 84.9 516.6 84.9 515.7 84.8 513.9 84.7 512.1 84.6 510.3 84.5 508.5 84.4 508.2 84.3 508.2 85.7 508.2 87.4 508.2 89.1 508.2 90.8 508.2 92.5 508.2 92.8 508.2 94.2 508.2 95.9 508.2 97.6 508.2 99.3 508.2 100.9 508.2 101.3 508.6 101.3 510.3 101.3 512 101.4 513.8 101.5 515.5 101.5 517.3 101.6 519 101.6 520.8 101.7 522.5 101.7 523.1 101.8 523.1 100.7 523.1 99"/><path class="cls-1" d="M428.67,97A15.69,15.69,0,1,1,444.36,81.3,15.71,15.71,0,0,1,428.67,97Zm0-28.34A12.65,12.65,0,1,0,441.32,81.3,12.67,12.67,0,0,0,428.67,68.65Z"/><path class="cls-1" d="M430.78,86.46l-3.56-4.68H427v4.68h-2.16V73.88h4.25A4.08,4.08,0,0,1,432,75a3.76,3.76,0,0,1,1.19,2.85,3.68,3.68,0,0,1-.95,2.56,4,4,0,0,1-2.43,1.3l3.66,4.73ZM427,75.92v4h2a1.84,1.84,0,0,0,1.39-.57A2,2,0,0,0,429,75.92Z"/></g></g></svg>